<?xml version="1.0" encoding="utf-8"?>
<!-- Generator: Adobe Illustrator 25.0.0, SVG Export Plug-In . SVG Version: 6.00 Build 0)  -->
<svg version="1.1" id="Layer_1" xmlns="http://www.w3.org/2000/svg" xmlns:xlink="http://www.w3.org/1999/xlink" x="0px" y="0px"
	 viewBox="0 0 463.9 439.3" style="enable-background:new 0 0 463.9 439.3;" xml:space="preserve">
<style type="text/css">
	.st0{fill:#062851;}
	.st1{fill-rule:evenodd;clip-rule:evenodd;fill:#E48026;}
	.st2{fill-rule:evenodd;clip-rule:evenodd;fill:#FCBE75;}
	.st3{fill-rule:evenodd;clip-rule:evenodd;fill:#FFFFFF;}
	.st4{fill-rule:evenodd;clip-rule:evenodd;fill:#F05F22;}
	.st5{fill-rule:evenodd;clip-rule:evenodd;fill:#E14825;}
	.st6{fill-rule:evenodd;clip-rule:evenodd;fill:#BF3425;}
	.st7{fill:none;stroke:#FFFFFF;stroke-width:8.851;stroke-miterlimit:10;}
</style>
<rect x="5.4" y="5.5" class="st0" width="451.4" height="425.3"/>
<path class="st1" d="M356.3,236.8c0,0-5.1-7.4-5.7-13.7c-0.5-6.2-5-11.4-9.4-15.1c-4.4-3.6-5.5-6.1-9.6-10.6s-8.7-6.1-13.7-7.5
	c-5-1.5-14.4-2.1-19.2-7.1s-9.6-11.8-15.4-13.1s-19.9-2.9-28-9.4c-8.1-6.4-12.9-14.7-12.9-14.7s-1.4,5.5,4.9,17.7
	c6.3,12.2,13.1,18.9,13.1,18.9s-3.6-2.6-10.1-4.8c-6.6-2.1-10.1-2.5-14.3-8s-8.9-16.7-20.1-26.1s-26.4-11.7-26.4-11.7
	s9.1,5.4,11.1,13.4c2,7.9,2.8,12.9,5.4,19.5s6.2,9.9,6.2,9.9s-12.4-9.5-24.1-15.5c-11.8-6-18.3-6.8-28.1-16.6s-14.9-28.1-14.9-28.1
	s-2.2,6.4-0.9,21.4C145.5,150.5,158,167,158,167s-13.9-11.1-22.4-25.6c-8.6-14.6-15.2-19.9-18.8-34.1c-3.6-14.1-11-22.8-22.2-28.3
	s-19.3-4.7-19.3-4.7s16.5,9.7,20.4,25s-0.8,24.1,9.1,49.5s32.4,49,32.4,49s-7.6,0.2-17.6-9.2s-14.9-20-14.9-20s2.9,17.7,9.8,29.5
	c7,11.8,10.7,11.8,17.2,18.2c6.6,6.4,9,12.1,17.3,14.6s20.8,1.9,28.6,6c7.8,4.2,12.4,13.5,12.4,13.5s-8.2-9.6-15.8-10.2
	c-7.6-0.6-14.9,5.1-14.9,5.1s13-3.4,21.8,10.3c8.8,13.8,11,23.8,21.9,35.4c10.9,11.5,23.1,13.8,29.5,13.5s9.8-0.3,15,3.2
	s6.5,6,6.5,6s-4.9-4-10.8-4.9c-5.9-0.8-10.4,0.7-10.4,0.7s8.2,1.3,15.8,9.5c7.6,8.2,16.7,16.7,27.8,12.4c11.1-4.3,20.4-4,31.9-2.1
	s19.8,1,30.2-4.6c10.4-5.6,14.8-14.1,23.4-20.7s11.6-15,7.5-26.4s-11.2-23-11.4-29.3C357.6,241.8,358.9,241.3,356.3,236.8
	L356.3,236.8z M194.9,142.1c1.2,3.2-1.8,4.7-4.7,3s-4.1-4.7-7-8.3s-13.7-5.4-13.7-5.4s8.7,0,15.7,3
	C192.3,137.3,194.9,142.1,194.9,142.1L194.9,142.1z M171.9,255.7c0.7,1.7,0.9,4.3-0.8,4.2c-1.8-0.1-3.8-1.6-9-6.3
	c-5.3-4.7-16.7-1.8-16.7-1.8s3.3-2.6,13.3-2.3C168.6,249.9,171.9,255.7,171.9,255.7z"/>
<path class="st2" d="M306.3,200.4c-0.7-0.5-1.5-1-2.3-1.4c-8.3-4-14.1-5-19.1-7.2s-10-6-10-6c2.5,2.6,4.4,5.7,5.4,9.1
	c1.8,5.6,2,7.3,2,7.3s-8.7-5.5-18.1-6s-20.5,0-26-2.8c-5.5-2.9-10.9-9.8-10.9-9.8s1.5,5.4,5.5,14.1c4,8.7,8.1,12.4,8.1,12.4
	s-9-8.5-21.2-11.2s-22.3-5.2-31.3-11.2s-15.6-17.4-15.6-17.4s1.2,11.3,7.6,22.2c6.4,10.9,14.2,17.2,14.2,17.2s-11.5-2-20.2-9.5
	s-9.8-12.3-17.4-16.7c-7.7-4.4-12.9-4.4-12.9-4.4s11.8,5.3,15,13.1c3.1,7.8,6.3,14.8,15.5,21.4s14.2,7.9,14.2,7.9s-9.1-1.7-15.8-1
	s-9.1,2-9.1,2s24.8,3.3,35.7,16.5c10.9,13.3,14.7,25.3,14.7,25.3s-4.2-3.7-10.1-4.2s-9.3,0.7-9.3,0.7s10,2.7,18,11.7
	c3.4,3.8,8.1,7,12.9,9.4c-0.7,0.3-1.5,0.6-2.3,0.8c-5.1,1.5-11.3-3-11.3-3c1.8,3,3.8,5.9,6,8.7c3.4,4.1,8.6,5.5,8.6,5.5
	s-2,1.8-10.6,0.7c-8.5-1-14.3-4.4-14.4-4.5c0.3,0.3,0.7,0.7,1,1c10.9,11.5,23.1,13.8,29.5,13.5s9.8-0.3,15,3.2s6.5,6,6.5,6
	s-4.9-4-10.8-4.9s-10.4,0.7-10.4,0.7s8.2,1.3,15.8,9.5s16.7,16.7,27.8,12.4c11.1-4.3,20.4-4,31.9-2.1s19.8,1,30.2-4.6
	c10.4-5.6,14.8-14.1,23.4-20.7s11.6-15,7.5-26.4s-11.2-23-11.4-29.3s1-7-1.6-11.4c0,0-5.1-7.4-5.7-13.7c-0.2-2.8-1.3-5.5-2.8-7.8
	l0,0c-1.8-2.9-4.2-5.3-6.6-7.3c-4.4-3.6-5.5-6.1-9.6-10.6s-8.7-6.1-13.7-7.5c-1.9-0.6-4.5-1-7.2-1.6l0,0c9.2,3.3,13.1,7.6,11.9,9.3
	c-4.4,6.1-18.8-4.1-23.5-6.6c0,0,0.5,0.6,3.6,4.1C306,198.7,306.3,200.4,306.3,200.4L306.3,200.4z"/>
<path class="st3" d="M270.4,225c0,0-10.1-9.7-17.1-12.6c-7-2.9-9.3-3.7-9.3-3.7s5.7,5.9,7.8,9.2c1.2,2,2.2,4.1,2.9,6.3
	c0,0-7.7-6.2-17.9-5.9s-13.9,2.1-21.2-0.6c-7.2-2.7-14.4-11-14.4-11s3.8,12.6,12.8,21c9.1,8.4,15.2,14.6,15.2,14.6s-6-3.5-10.2-4.9
	c-2.7-0.8-5.5-1.2-8.3-1.1c0,0,8.9,6.6,17,18c8.1,11.4,14,18.1,22.8,21.8c8.7,3.8,17.6,1.2,17.6,1.2L270.4,225z"/>
<path class="st4" d="M337.9,312.4c0,0-11.9,7.6-18.5,7.7s-12.1-4.7-18-6s-18-2.4-23.9-4.2c-6-1.7-13.2-5.6-18.4-11.3
	c-5.2-5.7-10-20.8-11.6-28.6c-1.6-7.7-1.8-12.4-2.2-19.9s1.2-12.7,5-16.2c3.8-3.4,8-6.7,9-12.7s1.9-11.3,6.2-13.3
	c4.2-2,10.1-1.8,17-2c6.9-0.1,9.6-2.3,16.1-1.5c6.6,0.9,8.8-0.2,16.4,0.2s16.3,5.4,20.7,14.4s5.5,7.7,9.4,11.6
	c3.9,3.9,7.3,10.7,6.1,16.1c-1.1,5.4-1.7,8.6,0.5,12.8c2.2,4.3,8.8,15.1,10.7,21.6c1.8,6.5-2.4,16-6.7,19.4
	c-4.4,3.4-7.6,4.5-10.7,6.6C341.9,309.4,337.9,312.4,337.9,312.4z"/>
<path class="st5" d="M275.2,249.8c0,0-7.1-5.6-11.9-3.2s-6.4,4.3-7.1,8.2c-0.7,3.9,3.1,9.2,8.4,11.6s9.7,0,11.4-2.1
	c1.8-2.2,2.6-2.7,2.9-4.7C279.3,257.4,277.8,251.5,275.2,249.8z"/>
<path class="st6" d="M271.2,247.3c-2.4-1.1-5.4-2-7.9-0.8c-4.7,2.4-6.4,4.3-7.1,8.2c-0.7,3.7,2.7,8.6,7.5,11.2
	c-2-2.1-5.1-6.1-4-10.4C261.3,249.4,265.3,246.7,271.2,247.3z"/>
<path class="st5" d="M301.3,274.7c0,0,5.2,3.4,8.3,1.5c3.1-1.9,4.1-3.3,4.3-6c0.2-2.7-2.7-6.1-6.4-7.4c-3.8-1.3-6.6,0.6-7.6,2.1
	c-1,1.6-1.6,2-1.6,3.4C298,269.7,299.4,273.7,301.3,274.7z"/>
<path class="st6" d="M304.1,276.1c1.7,0.6,3.8,1,5.4,0.1c3.1-1.9,4.1-3.3,4.3-6c0.2-2.5-2.3-5.7-5.8-7.2c1.5,1.3,3.8,3.8,3.4,6.8
	C310.8,274.1,308.2,276.1,304.1,276.1z"/>
<path class="st6" d="M341.3,305.5c0,0,0.2-2.1-0.8-2.7s-1.6-0.7-2.5-0.4c-0.8,0.3-1.4,1.7-1.2,3c0.1,1,0.8,1.8,1.8,2
	c0.6,0.1,0.8,0.2,1.3,0C340.3,307.1,341.3,306.2,341.3,305.5L341.3,305.5z M281.2,285.1c0,0,0.3-2.8-1.1-3.6c-1.4-0.8-2.2-1-3.3-0.5
	c-1.1,0.5-1.9,2.3-1.6,4.1c0.3,1.8,1.6,2.5,2.5,2.6c0.8,0.1,1.1,0.2,1.7,0C279.8,287.5,281.2,286.1,281.2,285.1L281.2,285.1z
	 M285.3,293.1c0,0,0.1-1.4-0.6-1.8s-1.1-0.5-1.7-0.2c-0.6,0.2-1,1.2-0.8,2.1c0.1,0.7,0.6,1.2,1.2,1.3c0.4,0.1,0.6,0.1,0.8,0
	C284.6,294.3,285.3,293.6,285.3,293.1L285.3,293.1z M295.8,228c0,0,0.1-0.7-0.3-0.9c-0.3-0.2-0.5-0.2-0.8-0.1
	c-0.3,0.1-0.5,0.6-0.4,1c0,0.3,0.3,0.6,0.6,0.7c0.2,0,0.3,0.1,0.4,0C295.6,228.5,295.7,228.3,295.8,228L295.8,228z M309.4,262.5
	c0,0,0.1-0.7-0.3-0.9s-0.5-0.2-0.8-0.1s-0.5,0.6-0.4,1c0,0.3,0.3,0.6,0.6,0.7c0.2,0,0.3,0.1,0.4,0
	C309.1,263,309.3,262.7,309.4,262.5L309.4,262.5z M259.2,256.7c0,0,0.1-0.7-0.3-0.9c-0.4-0.2-0.5-0.2-0.8-0.1
	c-0.3,0.1-0.5,0.6-0.4,1c0,0.3,0.3,0.6,0.6,0.7c0.2,0,0.3,0.1,0.4,0C258.9,257.2,259.1,257,259.2,256.7L259.2,256.7z M321.7,246.1
	c0,0,0.1-1.4-0.6-1.8c-0.7-0.4-1.1-0.5-1.7-0.2c-0.6,0.2-1,1.2-0.8,2.1c0.1,0.7,0.6,1.2,1.2,1.3c0.4,0.1,0.6,0.1,0.8,0
	C321,247.3,321.7,246.6,321.7,246.1L321.7,246.1z M266.4,219.6c0,0,0.1-1.4-0.6-1.8c-0.7-0.4-1.1-0.5-1.7-0.2
	c-0.6,0.2-1,1.2-0.8,2.1c0.1,0.7,0.6,1.2,1.2,1.3c0.4,0.1,0.6,0.1,0.8,0C265.7,220.8,266.4,220.1,266.4,219.6L266.4,219.6z
	 M278.9,294.8c0,0,0.1-0.7-0.3-0.9c-0.3-0.2-0.5-0.2-0.8-0.1s-0.5,0.6-0.4,1c0,0.3,0.3,0.6,0.6,0.7c0.2,0,0.3,0.1,0.4,0
	C278.7,295.3,278.9,295.1,278.9,294.8L278.9,294.8z M326.5,225.9c0,0,0.1-0.7-0.3-0.9s-0.5-0.2-0.8-0.1c-0.3,0.1-0.5,0.6-0.4,1
	c0,0.3,0.3,0.6,0.6,0.7c0.2,0,0.3,0.1,0.4,0C326.2,226.4,326.4,226.2,326.5,225.9L326.5,225.9z M277.6,223.1c0,0,0.1-0.7-0.3-0.9
	c-0.3-0.2-0.5-0.2-0.8-0.1c-0.3,0.1-0.5,0.6-0.4,1c0,0.3,0.3,0.6,0.6,0.7c0.2,0,0.3,0.1,0.4,0C277.3,223.6,277.5,223.4,277.6,223.1
	L277.6,223.1z M293.5,270.7c0,0,0.1-0.7-0.3-0.9c-0.3-0.2-0.5-0.2-0.8-0.1s-0.5,0.6-0.4,1c0,0.3,0.3,0.6,0.6,0.7
	c0.2,0,0.3,0.1,0.4,0C293.3,271.3,293.4,271,293.5,270.7L293.5,270.7z M284.2,250.8c0,0,0.1-1.4-0.6-1.8c-0.7-0.4-1.1-0.5-1.7-0.2
	c-0.6,0.2-1,1.2-0.8,2.1c0.1,0.7,0.6,1.2,1.2,1.3c0.4,0.1,0.6,0.1,0.8,0C283.5,252,284.2,251.3,284.2,250.8L284.2,250.8z
	 M351.2,258.3c0.2,0.4,0.4,0.8,0.6,1.3l0.2,0.3c-0.1,0.1-0.1,0.1-0.2,0.1c-0.1,0.1-0.2,0-0.4,0c-0.3-0.1-0.6-0.3-0.6-0.7
	C350.7,258.9,350.9,258.5,351.2,258.3L351.2,258.3L351.2,258.3z M356.6,279.4c0,0,0.1-0.7-0.3-0.9c-0.3-0.2-0.5-0.2-0.8-0.1
	s-0.5,0.6-0.4,1c0,0.3,0.3,0.6,0.6,0.7c0.2,0,0.3,0.1,0.4,0C356.3,280,356.6,279.7,356.6,279.4L356.6,279.4z M338.6,276.3
	c0,0,0.1-0.7-0.3-0.9c-0.3-0.2-0.5-0.2-0.8-0.1s-0.5,0.6-0.4,1c0,0.3,0.3,0.6,0.6,0.7c0.2,0,0.3,0.1,0.4,0
	C338.4,276.8,338.6,276.6,338.6,276.3L338.6,276.3z M262.3,282.6c-1.5-0.1-2.9,0.1-4.3,0.6c-2.4,0.8-0.1,1.2,2.7,1.1
	C263.4,284.1,266.5,283.7,262.3,282.6L262.3,282.6z M246,260.7c-0.1-0.5-0.1-1.1-0.2-1.6c0.1,0,0.2,0.1,0.3,0.1
	c0.3,0.2,0.3,0.9,0.3,0.9C246.4,260.4,246.2,260.6,246,260.7z M318.4,288.2c0,0,0.1-1.4-0.6-1.8s-1.1-0.5-1.7-0.2
	c-0.6,0.2-1,1.2-0.8,2.1c0.1,0.7,0.6,1.2,1.2,1.3c0.4,0.1,0.6,0.1,0.8,0C317.7,289.4,318.4,288.7,318.4,288.2L318.4,288.2z"/>
<path class="st5" d="M297.6,290.6c0,0-4.3-0.8-5.8,1.3s-1.8,3.3-1.2,5.1c0.6,1.8,3.4,3.3,6.2,3.1c2.8-0.2,4.2-2.1,4.4-3.5
	c0.3-1.3,0.5-1.7,0.2-2.7C301.1,293,299.2,290.8,297.6,290.6z"/>
<path class="st6" d="M295.4,290.5c-1.3,0.1-2.8,0.4-3.5,1.4c-1.5,2.1-1.8,3.3-1.2,5.1c0.5,1.7,3.1,3.1,5.7,3.1
	c-1.3-0.4-3.6-1.5-4-3.5C291.6,293.6,292.8,291.6,295.4,290.5z"/>
<path class="st5" d="M305.6,226.5c0,0,0.3-4.4-2-5.6c-2.3-1.2-3.5-1.4-5.2-0.6c-1.8,0.8-2.8,3.8-2.3,6.5c0.5,2.8,2.6,3.9,4,4
	s1.8,0.3,2.7-0.2C303.7,230.2,305.7,228.1,305.6,226.5z"/>
<path class="st6" d="M305.5,224.3c-0.2-1.3-0.7-2.7-1.8-3.3c-2.3-1.2-3.5-1.4-5.2-0.6c-1.6,0.7-2.7,3.4-2.4,6c0.3-1.4,1-3.7,3-4.4
	C302,220.9,304.1,221.8,305.5,224.3z"/>
<path class="st6" d="M334.2,263.9c0,0,0.3-2.6-1-3.4s-2-0.9-3.1-0.5s-1.8,2.2-1.6,3.8c0.2,1.7,1.5,2.4,2.3,2.5s1,0.2,1.6,0
	S334.2,264.8,334.2,263.9z"/>
<path class="st6" d="M265.4,239.5c0,0,0.3-2.6-1-3.4c-1.3-0.8-2-0.9-3.1-0.5c-1.1,0.5-1.8,2.2-1.6,3.8c0.2,1.7,1.5,2.4,2.3,2.5
	s1,0.2,1.6,0C264.2,241.7,265.4,240.4,265.4,239.5z"/>
<path class="st5" d="M336.5,248.1c0,0,1.6-5.2-0.7-7.4c-2.4-2.2-3.8-2.7-6.2-2.2s-4.6,3.7-4.8,7.2c-0.2,3.5,2.1,5.5,3.7,6
	s2.1,0.9,3.3,0.6C333,252,336.1,250,336.5,248.1z"/>
<path class="st6" d="M337.1,245.3c0.1-1.6,0-3.5-1.2-4.6c-2.4-2.1-3.8-2.7-6.2-2.2c-2.2,0.4-4.3,3.4-4.7,6.6c0.7-1.6,2.4-4.2,5-4.5
	C333.7,240.2,336.1,241.8,337.1,245.3z"/>
<path class="st6" d="M302.8,212.4c0,0-4-1.2-8.2-0.9s-3.8-0.2-8.7-0.4c-5-0.2-11.2,0.1-11.2,0.1s-4.8-0.4,0.4-1.3
	c5.2-0.9,9-0.9,11.3-1.1c2.3-0.2,6.7-0.1,9.6-0.3s4.3-1.2,8.7-0.8c4.4,0.5,6.7,0.2,11.5,0.7s9.8,2.8,11.7,5.9c2,3.1,3.7,4.3,5.3,7.8
	c0.7,1.4,1.5,2.7,2.5,3.8l0,0c0.9,1.1,2.8,4.9,1.5,3.6c-0.8-0.8-1.8-1.6-2.9-2.1c-0.4-0.5-1-1.1-1.8-2.1c-2.9-3.1-4-4.6-7.3-6.2
	c-3.3-1.6-2.5-1.9-6.9-2.8c-4.4-0.9-6.2-1-8-2.1C308.4,213.2,305.1,213.3,302.8,212.4z"/>
<path class="st5" d="M346.9,280.6c0,0-0.2-4.4-2.6-5.3c-2.4-1-3.6-0.9-5.3,0.1c-1.6,1-2.4,4.1-1.5,6.8c0.8,2.7,3.1,3.5,4.4,3.4
	c1.4-0.1,1.8,0.1,2.6-0.5C345.4,284.5,347.1,282.1,346.9,280.6z"/>
<path class="st6" d="M346.5,278.4c-0.3-1.2-1-2.6-2.2-3.1c-2.4-1-3.6-0.9-5.3,0.1c-1.6,0.9-2.3,3.7-1.7,6.3c0.1-1.4,0.6-3.8,2.5-4.8
	C342.6,275.5,344.8,276.1,346.5,278.4z"/>
<path class="st7" d="M448.5,434.8H15.4c-6,0-10.9-4.9-10.9-10.9V15.4c0-6,4.9-10.9,10.9-10.9h433.1c6,0,10.9,4.9,10.9,10.9v408.5
	C459.4,429.9,454.5,434.8,448.5,434.8z"/>
</svg>
