<?xml version="1.0" encoding="utf-8"?>
<!-- Generator: Adobe Illustrator 25.0.0, SVG Export Plug-In . SVG Version: 6.00 Build 0)  -->
<svg version="1.1" id="Layer_1" xmlns="http://www.w3.org/2000/svg" xmlns:xlink="http://www.w3.org/1999/xlink" x="0px" y="0px"
	 viewBox="0 0 1598.8 1508" style="enable-background:new 0 0 1598.8 1508;" xml:space="preserve">
<style type="text/css">
	.st0{fill:#062851;}
	.st1{clip-path:url(#SVGID_2_);}
	.st2{opacity:0.28;fill:url(#SVGID_3_);enable-background:new    ;}
	.st3{display:none;opacity:0.75;fill:url(#SVGID_4_);enable-background:new    ;}
	.st4{fill:#FF9F38;}
	.st5{opacity:0.5;fill:#AB4031;enable-background:new    ;}
	.st6{opacity:0.3;fill:#F7F0E8;enable-background:new    ;}
	.st7{opacity:0.15;fill:#F7F0E8;enable-background:new    ;}
	.st8{fill:#05101F;}
	.st9{fill:#2F3A4A;}
	.st10{fill:#F3FFFD;}
	.st11{fill:#E8E8E8;}
	.st12{fill:#153F4D;}
	.st13{fill:#194959;}
	.st14{opacity:0.7;}
	.st15{fill:#FFFFFF;}
	.st16{fill:#F7F0E8;}
	.st17{fill:#D4C6B6;}
	.st18{opacity:0.4;}
	.st19{opacity:0.5;fill:#58595B;enable-background:new    ;}
	.st20{fill:#11323D;}
	.st21{opacity:0.3;}
	.st22{fill:#EF5A45;}
	.st23{fill:#6592A1;}
	.st24{opacity:0.6;}
	.st25{opacity:0.6;fill:#EF5A45;enable-background:new    ;}
	.st26{opacity:0.3;fill:#FFFFFF;enable-background:new    ;}
	.st27{opacity:0.3;fill:#58595B;enable-background:new    ;}
	.st28{opacity:0.7;fill:#FFFFFF;enable-background:new    ;}
	.st29{opacity:0.5;fill:#FFFFFF;enable-background:new    ;}
	.st30{fill:#F0E0CE;}
	.st31{fill:none;stroke:#FFFFFF;stroke-width:31.311;stroke-miterlimit:10;}
</style>
<rect class="st0" width="1598.8" height="1508.5"/>
<g>
	<g>
		<g>
			<defs>
				<rect id="SVGID_1_" x="13.7" y="9.4" width="1598.8" height="1496.8"/>
			</defs>
			<clipPath id="SVGID_2_">
				<use xlink:href="#SVGID_1_"  style="overflow:visible;"/>
			</clipPath>
			<g class="st1">
				
					<radialGradient id="SVGID_3_" cx="818.2064" cy="5312.9502" r="1548.4954" gradientTransform="matrix(0.9717 0 0 1 17.9988 -4176)" gradientUnits="userSpaceOnUse">
					<stop  offset="0" style="stop-color:#152B4A"/>
					<stop  offset="0.49" style="stop-color:#09172B"/>
					<stop  offset="0.76" style="stop-color:#05101F"/>
				</radialGradient>
				<path class="st2" d="M2386.1,1206.8l-1571.3-69.9l1573-68.2l-18.6-168l-1.7,0.2l-0.3-2.2l-1549,237l1520-372L2282.7,603
					l-1.5,0.5l-0.8-2.4L821.1,1133.6l1401.1-658.3l-90-146.3l-1.2,0.7l-1.5-2.4l-1307,803.2l1221.9-914.8L1924,90l-0.8,0.8l-2.1-2.2
					L822.6,1127.1L1813-3.8l-145.8-99.4l-0.5,0.7l-2.7-1.9L821.1,1123.9l716.7-1297.2l-164.7-68.9l-0.2,0.5l-3.2-1.3L814.2,1132
					l0.1-2.4l413.2-1415.9l-176.4-35L814.9,1120.6L906-335.7l-180.4-0.2l87.9,1465.5l-0.4,2.3L576.9-321.5l-3.4,0.7l-0.1-0.6
					L397-286.3l411.1,1408.9L258.2-243.5l-3.1,1.3l-0.3-0.8L90-174.3l715.9,1299.7L-36.2-105.1l-2.6,1.8l-0.7-1L-185.4-5.1
					l990.6,1133.8L-293.5,87.5l-1.9,2.1l-1-1l-120.7,125.5l1223.1,918L-502.3,326l-1.3,2.2l-1.3-0.8l-90.2,146.2l1403.2,661.3
					l-1461.8-535l-0.7,2.1l-1.6-0.6L-711.7,762l1523,374.6L-740.9,897.3l-0.2,1.9l-1.7-0.3l-18.9,167.9l1497.2,66.5l75.7,3.5
					l-203.5,9l-1367.9,59.3l0.2,1.6l-1.7,0.1l18.9,167.9l1203.2-184l347.5-52.8L349,1250.7L-710.6,1510l0.4,1.2l-1.6,0.4l55.7,160.6
					l889.9-324.5l571.4-207.6l-647,304.9l-752.6,353.7l0.5,0.8l-1.3,0.6l90.2,146.2l600.1-368.8l708.7-434.4l-735.5,552l-485,363.2
					l0.5,0.5l-1,0.7l120.7,125.5l364.8-345l735.4-693.5L94.9,1957.9l-280.1,319.8l0.4,0.3l-0.6,0.7l145.9,99.2l197.3-287.5
					l647.4-941L233.3,2187.8L89.9,2447.3l0.3,0.1l-0.3,0.5l164.8,68.7l93.6-231.6l459.5-1133.2L459.6,2345.2l-62.8,214.3l0.3,0.1
					l-0.1,0.3l176.5,35.1l33.6-205l204.3-1237.2l-76.7,1249.8l-12.9,207l180.4,0.2v-0.3h0.3l-13.7-221.8l-74-1235.3l196.3,1198.2
					l39.8,244.8l176.5-34.9l-0.2-0.6l0.4-0.1l-82.2-281.7L817.9,1150.8l423,1046.9l128.7,319.7l164.9-68.5l-0.4-0.8l0.5-0.2
					l-202.5-367.6l-512-932.3l564.3,822.3l279.7,408.7l146-99.1l-0.8-0.9l0.6-0.4l-393.2-449.9l-596-683.9l596.1,563.5l504.4,478.1
					l120.8-125.3l-1.1-0.9l0.7-0.7l-657-493.1l-564.7-424.9l512.4,314.9l797.7,491.5l90.4-146.1l-1.4-0.7l0.7-1.1l-978.3-461
					l-423.5-200.2l328,119.6L2281.4,1674l55.9-160.5l-1.7-0.4l0.5-1.5l-1324.3-325.7l-197-48.7l74.8,11.4l1479,228l19-167.9
					l-1.7-0.1L2386.1,1206.8z M816,1136.6l-1.7,0.3c-0.1,0,0.7-0.2,0.7-0.2L816,1136.6z M811.9,1136.5c0.1,0,0.3,0.2,0.3,0.2
					C812,1136.6,812,1136.6,811.9,1136.5z M812.1,1136.7l-0.5-0.3C811.8,1136.5,811.9,1136.6,812.1,1136.7L812.1,1136.7z
					 M814.4,1136.5c-0.1,0,0.1-0.2,0.1-0.2C814.7,1136.2,814.4,1136.5,814.4,1136.5L814.4,1136.5z M815,1136.1l0.4-0.1l-0.6,0.4
					C814.6,1136.5,815,1136.1,815,1136.1z M812.1,1136.3c-0.1,0-0.2-0.3-0.2-0.3L812.1,1136.3L812.1,1136.3z M813.9,1136l0.4-0.2
					l-0.1,0.3l-0.3,0.1L813.9,1136z M812.9,1135.9C812.7,1135.9,812.8,1135.8,812.9,1135.9L812.9,1135.9z M812.3,1136.1l-0.3-0.2
					v-0.3l0.3,0.3V1136.1z M814.2,1136.3c0.1,0,0,0.2,0,0.2V1136.3L814.2,1136.3z M814.8,1135.9l0.4-0.5l0.6-0.3l-0.7,0.6
					L814.8,1135.9z M814.5,1136c-0.2,0.1,0-0.2,0-0.2l0.3-0.1L814.5,1136z M814.8,1135.2l0.3-0.6l0.7-0.5l-0.6,0.9L814.8,1135.2z
					 M814.5,1135.4l-0.6,0.3v-0.2l0.7-0.5L814.5,1135.4z M814,1135.2v-0.4l1.4-1.6l-0.4,1L814,1135.2z M813.7,1135.4
					c-0.1,0.1-0.2-0.1-0.2-0.1l0.2-0.2V1135.4z M813.5,1134.9l-0.1-0.4l0.2-0.4v0.5L813.5,1134.9z M813.3,1135.2
					c-0.2,0-0.1-0.3-0.1-0.3L813.3,1135.2z M813,1134.9l-0.1-0.3l0.1-0.5l0.1,0.4L813,1134.9z M812.9,1135.2l-0.1,0.2
					c-0.1-0.1-0.1-0.3,0-0.4L812.9,1135.2z M812.5,1135l-0.8-1.1l-0.2-1.1l1,1.8V1135z M812.4,1135.4v0.2l-0.5-0.4l-0.1-0.5
					L812.4,1135.4z M811.7,1134.9l-0.3-0.3l-0.4-1l0.5,0.6L811.7,1134.9z M811.8,1135.5l0.1,0.3c-0.2-0.1-0.3-0.5-0.3-0.5
					L811.8,1135.5z M811.5,1135.5l-0.3-0.2l-0.5-0.7l0.5,0.4L811.5,1135.5z M811.8,1136l0.2,0.3
					C811.9,1136.3,811.7,1135.9,811.8,1136L811.8,1136z M811.7,1136.2c-0.3-0.2-0.5-0.4-0.7-0.6l0.4,0.2L811.7,1136.2z M812,1136.5
					l0.1,0.2C812.1,1136.7,812.1,1136.6,812,1136.5L812,1136.5z M812.7,1136.7c0.1,0-0.2,0.1-0.2,0.1L812.7,1136.7L812.7,1136.7z
					 M813,1136.8l0.4,0.1L813,1136.8h-0.4H813z M813.3,1136.8c0.1,0,0.3,0.1,0.4,0.1C813.6,1136.9,813.3,1136.8,813.3,1136.8
					L813.3,1136.8z M813.5,1136.8c0.1,0,0.2,0.1,0.2,0.1C813.6,1136.9,813.6,1136.8,813.5,1136.8L813.5,1136.8z M814.1,1136.8
					l-0.1,0.2L814.1,1136.8L814.1,1136.8z M814.2,1136.8c0.1,0-0.2,0.2-0.2,0.2C814,1136.9,814.1,1136.8,814.2,1136.8L814.2,1136.8z
					 M814.4,1136.8c0.2,0-0.3,0.2-0.3,0.2L814.4,1136.8L814.4,1136.8z M818.6,1135.3l-2.8,1l-0.7,0.1l1.2-0.6L818.6,1135.3z
					 M820.4,1133l-3.5,2.2l-1.1,0.4l1.4-1L820.4,1133z M821.1,1130.2l-3.7,3.4l-1.3,0.8l1.3-1.5L821.1,1130.2z M820.4,1127.5
					l-3.2,4.7l-1.4,1.3l1.1-2L820.4,1127.5z M818.7,1125.2l-2.3,5.6l-2.4,3.4v-0.7L818.7,1125.2z M813.6,1132.3l0.1,1.1l-0.3,0.7
					l-0.1-0.7L813.6,1132.3z M810.2,1124.3l2.6,9l-0.1,0.7l-1.5-3.8L810.2,1124.3z M807.9,1126.2l2.5,4.6l0.6,2.1l-1.1-1.6
					L807.9,1126.2z M806.7,1128.8l3,3.4l1,1.8l-1.1-1.1L806.7,1128.8z M806.7,1131.6l2.8,2.1l1.1,1.3l-1-0.6L806.7,1131.6z
					 M807.9,1134.2l2.1,1l1.1,0.8l-0.6-0.2L807.9,1134.2z M810.2,1136.1l1,0.2l0.8,0.4C811.8,1136.7,810.2,1136.1,810.2,1136.1
					L810.2,1136.1z M814.2,1137.4c-0.1-0.1-0.2-0.1-0.3-0.2C814,1137.2,814.1,1137.2,814.2,1137.4L814.2,1137.4z M814,1137.2
					c0.2,0.1,0.3,0.2,0.5,0.3C814.3,1137.3,814.2,1137.2,814,1137.2L814,1137.2z M812,1137l-0.2,0.2L812,1137L812,1137z
					 M811.6,1137.1c-0.2,0,0.3-0.2,0.3-0.2L811.6,1137.1L811.6,1137.1z M813.9,1137.7c-0.1,0-0.1-0.2-0.1-0.2L813.9,1137.7
					L813.9,1137.7z M813.9,1137.5c0.1,0,0.2,0.3,0.2,0.3L813.9,1137.5L813.9,1137.5z M811.8,1137.5c-0.1,0,0-0.2,0-0.2V1137.5
					L811.8,1137.5z M813.2,1137.9c0.1,0.1,0,0.2,0,0.2C813.1,1138,813.2,1137.9,813.2,1137.9
					C813.3,1137.8,813.3,1137.8,813.2,1137.9L813.2,1137.9z M811.9,1137.7l-0.1,0.2C811.7,1138,811.8,1137.8,811.9,1137.7
					L811.9,1137.7z M812.1,1138.1v0.2C811.9,1138.4,812,1138.1,812.1,1138.1L812.1,1138.1z M812.4,1138.4v0.2l-0.2,0.2v-0.3
					L812.4,1138.4z M812.8,1138.5c0,0.1,0,0.3-0.1,0.4l-0.1-0.3L812.8,1138.5z M813.2,1138.5c0.1,0.1,0.1,0.3,0,0.4l-0.1-0.2
					L813.2,1138.5z M813.6,1138.3c0.1,0.1,0.1,0.4,0.1,0.4C813.6,1138.5,813.6,1138.3,813.6,1138.3L813.6,1138.3z M813.6,1138
					C813.7,1137.9,813.7,1138.1,813.6,1138L813.6,1138z M813.8,1138c0.1,0.1,0.1,0.3,0.1,0.3C813.8,1138.2,813.8,1138,813.8,1138
					L813.8,1138z M812.6,1137.1l-0.3-0.1c0.1,0,0.2,0.1,0.4,0.1H812.6z M812.4,1137.1c-0.1,0-0.2-0.1-0.2-0.1c0.1,0,0.2,0,0.4,0
					L812.4,1137.1z M811.9,1137.1l0.1-0.2L811.9,1137.1L811.9,1137.1z M811.4,1137.4l-0.4,0.3l-0.4,0.1l0.6-0.4H811.4z
					 M811.6,1137.4c0.1,0-0.1,0.2-0.1,0.2c0-0.1,0.2-0.3,0.2-0.3L811.6,1137.4z M811.1,1138l-0.4,0.5l-0.6,0.3l0.7-0.6L811.1,1138z
					 M811.4,1137.9c0.2-0.1,0,0.2,0,0.2l-0.3,0.1L811.4,1137.9z M811.1,1138.7l-0.3,0.6l-0.7,0.5l0.6-0.8L811.1,1138.7z
					 M811.5,1138.5l0.2-0.1l-0.1,0.4l-0.3,0.2L811.5,1138.5z M811.4,1139.3l-0.2,0.7l-0.6,0.7l0.4-1L811.4,1139.3z M811.8,1138.9
					l0.2-0.2v0.4l-0.3,0.3L811.8,1138.9z M811.9,1139.7v0.7l-0.5,0.9l0.2-1.1L811.9,1139.7z M812.2,1139.2l0.2-0.3l0.1,0.4l-0.2,0.4
					L812.2,1139.2z M812.6,1139.9l0.1,0.7l-0.3,1.1l-0.1-1.1L812.6,1139.9z M812.8,1139.4l0.1-0.3l0.1,0.3l-0.1,0.5L812.8,1139.4z
					 M813.3,1139.8l0.3,0.6l-0.1,1.1l-0.3-1L813.3,1139.8z M813.4,1139.2l0.1-0.4l0.2,0.2v0.5L813.4,1139.2z M813.9,1139.5l0.3,0.5
					l0.2,1.1l-0.5-0.8V1139.5z M813.9,1138.9v-0.4l0.2,0.2l0.1,0.5L813.9,1138.9z M814.3,1139l0.3,0.3l0.4,0.9l-0.5-0.6L814.3,1139z
					 M814.2,1138.4l-0.1-0.3c0.2,0.1,0.3,0.5,0.3,0.5L814.2,1138.4z M814.5,1138.4l0.3,0.2l0.5,0.7l-0.5-0.4L814.5,1138.4z
					 M814.2,1137.9l-0.2-0.3C814.1,1137.6,814.3,1137.9,814.2,1137.9L814.2,1137.9z M814.3,1137.7c0.3,0.2,0.5,0.4,0.7,0.6l-0.4-0.2
					L814.3,1137.7z M814,1137.4l-0.1-0.2l0.3,0.1L814,1137.4z M813.3,1137.2c-0.1,0,0.2-0.1,0.2-0.1h-0.1L813.3,1137.2z
					 M812.9,1137.1l-0.4-0.1L812.9,1137.1h0.4H812.9z M810,1137.2l1.7-0.3c0.1,0-0.7,0.2-0.7,0.2L810,1137.2z M807.4,1138.6l2.8-1
					l0.6-0.1l-1.2,0.6L807.4,1138.6z M805.7,1140.9l3.4-2.1l1-0.4l-1.4,1L805.7,1140.9z M805.1,1143.6l3.5-3.3l1.3-0.8l-1.3,1.5
					L805.1,1143.6z M805.7,1146.3l3.1-4.5l1.4-1.3l-1.1,1.9L805.7,1146.3z M807.4,1148.5l2.2-5.5l1.2-1.7l-0.6,2.2L807.4,1148.5z
					 M810,1149.9l1-6l0.8-2.1l-0.1,2.3L810,1149.9z M812.9,1150.2l-0.4-6l0.4-2.3l0.4,2.2L812.9,1150.2z M815.7,1149.3l-1.6-5.4
					l-0.1-2.3l0.8,1.9L815.7,1149.3z M817.9,1147.5l-2.5-4.5l-0.6-2.1l1,1.5L817.9,1147.5z M819.1,1145l-2.9-3.3l-1-1.7l1.1,1
					L819.1,1145z M819.1,1142.2l-2.7-2l-1.1-1.3l1,0.6L819.1,1142.2z M817.9,1139.7l-2-1l-1-0.8l0.6,0.2L817.9,1139.7z
					 M815.7,1137.8l-1-0.2l-0.8-0.4c0.3-0.1,1.9,0.5,1.9,0.5L815.7,1137.8z"/>
				
					<radialGradient id="SVGID_4_" cx="818.2064" cy="5312.9502" r="1548.4954" gradientTransform="matrix(0.9717 0 0 1 17.9988 -4176)" gradientUnits="userSpaceOnUse">
					<stop  offset="0" style="stop-color:#152B4A"/>
					<stop  offset="0.49" style="stop-color:#09172B"/>
					<stop  offset="0.76" style="stop-color:#05101F"/>
				</radialGradient>
				<path class="st3" d="M2386.1,1206.8l-1571.3-69.9l1573-68.2l-18.6-168l-1.7,0.2l-0.3-2.2l-1549,237l1520-372L2282.7,603
					l-1.5,0.5l-0.8-2.4L821.1,1133.6l1401.1-658.3l-90-146.3l-1.2,0.7l-1.5-2.4l-1307,803.2l1221.9-914.8L1924,90l-0.8,0.8l-2.1-2.2
					L822.6,1127.1L1813-3.8l-145.8-99.4l-0.5,0.7l-2.7-1.9L821.1,1123.9l716.7-1297.2l-164.7-68.9l-0.2,0.5l-3.2-1.3L814.2,1132
					l0.1-2.4l413.2-1415.9l-176.4-35L814.9,1120.6L906-335.7l-180.4-0.2l87.9,1465.5l-0.4,2.3L576.9-321.5l-3.4,0.7l-0.1-0.6
					L397-286.3l411.1,1408.9L258.2-243.5l-3.1,1.3l-0.3-0.8L90-174.3l715.9,1299.7L-36.2-105.1l-2.6,1.8l-0.7-1L-185.4-5.1
					l990.6,1133.8L-293.5,87.5l-1.9,2.1l-1-1l-120.7,125.5l1223.1,918L-502.3,326l-1.3,2.2l-1.3-0.8l-90.2,146.2l1403.2,661.3
					l-1461.8-535l-0.7,2.1l-1.6-0.6L-711.7,762l1523,374.6L-740.9,897.3l-0.2,1.9l-1.7-0.3l-18.9,167.9l1497.2,66.5l75.7,3.5
					l-203.5,9l-1367.9,59.3l0.2,1.6l-1.7,0.1l18.9,167.9l1203.2-184l347.5-52.8L349,1250.7L-710.6,1510l0.4,1.2l-1.6,0.4l55.7,160.6
					l889.9-324.5l571.4-207.6l-647,304.9l-752.6,353.7l0.5,0.8l-1.3,0.6l90.2,146.2l600.1-368.8l708.7-434.4l-735.5,552l-485,363.2
					l0.5,0.5l-1,0.7l120.7,125.5l364.8-345l735.4-693.5L94.9,1957.9l-280.1,319.8l0.4,0.3l-0.6,0.7l145.9,99.2l197.3-287.5
					l647.4-941L233.3,2187.8L89.9,2447.3l0.3,0.1l-0.3,0.5l164.8,68.7l93.6-231.6l459.5-1133.2L459.6,2345.2l-62.8,214.3l0.3,0.1
					l-0.1,0.3l176.5,35.1l33.6-205l204.3-1237.2l-76.7,1249.8l-12.9,207l180.4,0.2v-0.3h0.3l-13.7-221.8l-74-1235.3l196.3,1198.2
					l39.8,244.8l176.5-34.9l-0.2-0.6l0.4-0.1l-82.2-281.7L817.9,1150.8l423,1046.9l128.7,319.7l164.9-68.5l-0.4-0.8l0.5-0.2
					l-202.5-367.6l-512-932.3l564.3,822.3l279.7,408.7l146-99.1l-0.8-0.9l0.6-0.4l-393.2-449.9l-596-683.9l596.1,563.5l504.4,478.1
					l120.8-125.3l-1.1-0.9l0.7-0.7l-657-493.1l-564.7-424.9l512.4,314.9l797.7,491.5l90.4-146.1l-1.4-0.7l0.7-1.1l-978.3-461
					l-423.5-200.2l328,119.6L2281.4,1674l55.9-160.5l-1.7-0.4l0.5-1.5l-1324.3-325.7l-197-48.7l74.8,11.4l1479,228l19-167.9
					l-1.7-0.1L2386.1,1206.8z M816,1136.6l-1.7,0.3c-0.1,0,0.7-0.2,0.7-0.2L816,1136.6z M811.9,1136.5c0.1,0,0.3,0.2,0.3,0.2
					C812,1136.6,812,1136.6,811.9,1136.5z M812.1,1136.7l-0.5-0.3C811.8,1136.5,811.9,1136.6,812.1,1136.7L812.1,1136.7z
					 M814.4,1136.5c-0.1,0,0.1-0.2,0.1-0.2C814.7,1136.2,814.4,1136.5,814.4,1136.5L814.4,1136.5z M815,1136.1l0.4-0.1l-0.6,0.4
					C814.6,1136.5,815,1136.1,815,1136.1z M812.1,1136.3c-0.1,0-0.2-0.3-0.2-0.3L812.1,1136.3L812.1,1136.3z M813.9,1136l0.4-0.2
					l-0.1,0.3l-0.3,0.1L813.9,1136z M812.9,1135.9C812.7,1135.9,812.8,1135.8,812.9,1135.9L812.9,1135.9z M812.3,1136.1l-0.3-0.2
					v-0.3l0.3,0.3V1136.1z M814.2,1136.3c0.1,0,0,0.2,0,0.2V1136.3L814.2,1136.3z M814.8,1135.9l0.4-0.5l0.6-0.3l-0.7,0.6
					L814.8,1135.9z M814.5,1136c-0.2,0.1,0-0.2,0-0.2l0.3-0.1L814.5,1136z M814.8,1135.2l0.3-0.6l0.7-0.5l-0.6,0.9L814.8,1135.2z
					 M814.5,1135.4l-0.6,0.3v-0.2l0.7-0.5L814.5,1135.4z M814,1135.2v-0.4l1.4-1.6l-0.4,1L814,1135.2z M813.7,1135.4
					c-0.1,0.1-0.2-0.1-0.2-0.1l0.2-0.2V1135.4z M813.5,1134.9l-0.1-0.4l0.2-0.4v0.5L813.5,1134.9z M813.3,1135.2
					c-0.2,0-0.1-0.3-0.1-0.3L813.3,1135.2z M813,1134.9l-0.1-0.3l0.1-0.5l0.1,0.4L813,1134.9z M812.9,1135.2l-0.1,0.2
					c-0.1-0.1-0.1-0.3,0-0.4L812.9,1135.2z M812.5,1135l-0.8-1.1l-0.2-1.1l1,1.8V1135z M812.4,1135.4v0.2l-0.5-0.4l-0.1-0.5
					L812.4,1135.4z M811.7,1134.9l-0.3-0.3l-0.4-1l0.5,0.6L811.7,1134.9z M811.8,1135.5l0.1,0.3c-0.2-0.1-0.3-0.5-0.3-0.5
					L811.8,1135.5z M811.5,1135.5l-0.3-0.2l-0.5-0.7l0.5,0.4L811.5,1135.5z M811.8,1136l0.2,0.3
					C811.9,1136.3,811.7,1135.9,811.8,1136L811.8,1136z M811.7,1136.2c-0.3-0.2-0.5-0.4-0.7-0.6l0.4,0.2L811.7,1136.2z M812,1136.5
					l0.1,0.2C812.1,1136.7,812.1,1136.6,812,1136.5L812,1136.5z M812.7,1136.7c0.1,0-0.2,0.1-0.2,0.1L812.7,1136.7L812.7,1136.7z
					 M813,1136.8l0.4,0.1L813,1136.8h-0.4H813z M813.3,1136.8c0.1,0,0.3,0.1,0.4,0.1C813.6,1136.9,813.3,1136.8,813.3,1136.8
					L813.3,1136.8z M813.5,1136.8c0.1,0,0.2,0.1,0.2,0.1C813.6,1136.9,813.6,1136.8,813.5,1136.8L813.5,1136.8z M814.1,1136.8
					l-0.1,0.2L814.1,1136.8L814.1,1136.8z M814.2,1136.8c0.1,0-0.2,0.2-0.2,0.2C814,1136.9,814.1,1136.8,814.2,1136.8L814.2,1136.8z
					 M814.4,1136.8c0.2,0-0.3,0.2-0.3,0.2L814.4,1136.8L814.4,1136.8z M818.6,1135.3l-2.8,1l-0.7,0.1l1.2-0.6L818.6,1135.3z
					 M820.4,1133l-3.5,2.2l-1.1,0.4l1.4-1L820.4,1133z M821.1,1130.2l-3.7,3.4l-1.3,0.8l1.3-1.5L821.1,1130.2z M820.4,1127.5
					l-3.2,4.7l-1.4,1.3l1.1-2L820.4,1127.5z M818.7,1125.2l-2.3,5.6l-2.4,3.4v-0.7L818.7,1125.2z M813.6,1132.3l0.1,1.1l-0.3,0.7
					l-0.1-0.7L813.6,1132.3z M810.2,1124.3l2.6,9l-0.1,0.7l-1.5-3.8L810.2,1124.3z M807.9,1126.2l2.5,4.6l0.6,2.1l-1.1-1.6
					L807.9,1126.2z M806.7,1128.8l3,3.4l1,1.8l-1.1-1.1L806.7,1128.8z M806.7,1131.6l2.8,2.1l1.1,1.3l-1-0.6L806.7,1131.6z
					 M807.9,1134.2l2.1,1l1.1,0.8l-0.6-0.2L807.9,1134.2z M810.2,1136.1l1,0.2l0.8,0.4C811.8,1136.7,810.2,1136.1,810.2,1136.1
					L810.2,1136.1z M814.2,1137.4c-0.1-0.1-0.2-0.1-0.3-0.2C814,1137.2,814.1,1137.2,814.2,1137.4L814.2,1137.4z M814,1137.2
					c0.2,0.1,0.3,0.2,0.5,0.3C814.3,1137.3,814.2,1137.2,814,1137.2L814,1137.2z M812,1137l-0.2,0.2L812,1137L812,1137z
					 M811.6,1137.1c-0.2,0,0.3-0.2,0.3-0.2L811.6,1137.1L811.6,1137.1z M813.9,1137.7c-0.1,0-0.1-0.2-0.1-0.2L813.9,1137.7
					L813.9,1137.7z M813.9,1137.5c0.1,0,0.2,0.3,0.2,0.3L813.9,1137.5L813.9,1137.5z M811.8,1137.5c-0.1,0,0-0.2,0-0.2V1137.5
					L811.8,1137.5z M813.2,1137.9c0.1,0.1,0,0.2,0,0.2C813.1,1138,813.2,1137.9,813.2,1137.9
					C813.3,1137.8,813.3,1137.8,813.2,1137.9L813.2,1137.9z M811.9,1137.7l-0.1,0.2C811.7,1138,811.8,1137.8,811.9,1137.7
					L811.9,1137.7z M812.1,1138.1v0.2C811.9,1138.4,812,1138.1,812.1,1138.1L812.1,1138.1z M812.4,1138.4v0.2l-0.2,0.2v-0.3
					L812.4,1138.4z M812.8,1138.5c0,0.1,0,0.3-0.1,0.4l-0.1-0.3L812.8,1138.5z M813.2,1138.5c0.1,0.1,0.1,0.3,0,0.4l-0.1-0.2
					L813.2,1138.5z M813.6,1138.3c0.1,0.1,0.1,0.4,0.1,0.4C813.6,1138.5,813.6,1138.3,813.6,1138.3L813.6,1138.3z M813.6,1138
					C813.7,1137.9,813.7,1138.1,813.6,1138L813.6,1138z M813.8,1138c0.1,0.1,0.1,0.3,0.1,0.3C813.8,1138.2,813.8,1138,813.8,1138
					L813.8,1138z M812.6,1137.1l-0.3-0.1c0.1,0,0.2,0.1,0.4,0.1H812.6z M812.4,1137.1c-0.1,0-0.2-0.1-0.2-0.1c0.1,0,0.2,0,0.4,0
					L812.4,1137.1z M811.9,1137.1l0.1-0.2L811.9,1137.1L811.9,1137.1z M811.4,1137.4l-0.4,0.3l-0.4,0.1l0.6-0.4H811.4z
					 M811.6,1137.4c0.1,0-0.1,0.2-0.1,0.2c0-0.1,0.2-0.3,0.2-0.3L811.6,1137.4z M811.1,1138l-0.4,0.5l-0.6,0.3l0.7-0.6L811.1,1138z
					 M811.4,1137.9c0.2-0.1,0,0.2,0,0.2l-0.3,0.1L811.4,1137.9z M811.1,1138.7l-0.3,0.6l-0.7,0.5l0.6-0.8L811.1,1138.7z
					 M811.5,1138.5l0.2-0.1l-0.1,0.4l-0.3,0.2L811.5,1138.5z M811.4,1139.3l-0.2,0.7l-0.6,0.7l0.4-1L811.4,1139.3z M811.8,1138.9
					l0.2-0.2v0.4l-0.3,0.3L811.8,1138.9z M811.9,1139.7v0.7l-0.5,0.9l0.2-1.1L811.9,1139.7z M812.2,1139.2l0.2-0.3l0.1,0.4l-0.2,0.4
					L812.2,1139.2z M812.6,1139.9l0.1,0.7l-0.3,1.1l-0.1-1.1L812.6,1139.9z M812.8,1139.4l0.1-0.3l0.1,0.3l-0.1,0.5L812.8,1139.4z
					 M813.3,1139.8l0.3,0.6l-0.1,1.1l-0.3-1L813.3,1139.8z M813.4,1139.2l0.1-0.4l0.2,0.2v0.5L813.4,1139.2z M813.9,1139.5l0.3,0.5
					l0.2,1.1l-0.5-0.8V1139.5z M813.9,1138.9v-0.4l0.2,0.2l0.1,0.5L813.9,1138.9z M814.3,1139l0.3,0.3l0.4,0.9l-0.5-0.6L814.3,1139z
					 M814.2,1138.4l-0.1-0.3c0.2,0.1,0.3,0.5,0.3,0.5L814.2,1138.4z M814.5,1138.4l0.3,0.2l0.5,0.7l-0.5-0.4L814.5,1138.4z
					 M814.2,1137.9l-0.2-0.3C814.1,1137.6,814.3,1137.9,814.2,1137.9L814.2,1137.9z M814.3,1137.7c0.3,0.2,0.5,0.4,0.7,0.6l-0.4-0.2
					L814.3,1137.7z M814,1137.4l-0.1-0.2l0.3,0.1L814,1137.4z M813.3,1137.2c-0.1,0,0.2-0.1,0.2-0.1h-0.1L813.3,1137.2z
					 M812.9,1137.1l-0.4-0.1L812.9,1137.1h0.4H812.9z M810,1137.2l1.7-0.3c0.1,0-0.7,0.2-0.7,0.2L810,1137.2z M807.4,1138.6l2.8-1
					l0.6-0.1l-1.2,0.6L807.4,1138.6z M805.7,1140.9l3.4-2.1l1-0.4l-1.4,1L805.7,1140.9z M805.1,1143.6l3.5-3.3l1.3-0.8l-1.3,1.5
					L805.1,1143.6z M805.7,1146.3l3.1-4.5l1.4-1.3l-1.1,1.9L805.7,1146.3z M807.4,1148.5l2.2-5.5l1.2-1.7l-0.6,2.2L807.4,1148.5z
					 M810,1149.9l1-6l0.8-2.1l-0.1,2.3L810,1149.9z M812.9,1150.2l-0.4-6l0.4-2.3l0.4,2.2L812.9,1150.2z M815.7,1149.3l-1.6-5.4
					l-0.1-2.3l0.8,1.9L815.7,1149.3z M817.9,1147.5l-2.5-4.5l-0.6-2.1l1,1.5L817.9,1147.5z M819.1,1145l-2.9-3.3l-1-1.7l1.1,1
					L819.1,1145z M819.1,1142.2l-2.7-2l-1.1-1.3l1,0.6L819.1,1142.2z M817.9,1139.7l-2-1l-1-0.8l0.6,0.2L817.9,1139.7z
					 M815.7,1137.8l-1-0.2l-0.8-0.4c0.3-0.1,1.9,0.5,1.9,0.5L815.7,1137.8z"/>
				<path class="st4" d="M1732.3,1459.4l-37.2,28.4l-35.4,50.7c-12.5,32.2-40.5,66.8-76.4,102.6l0.3,12.4
					c-1.7,5.6-5.2,11.9-9.8,18.2c-9.2,12.4-22.6,24.8-34.3,32.1l-45,8.6l-16.2,8.2l-34,17.3l-48,24.3l-33,21.6
					c-42.2,16-94.3,28.4-155.5,37.4l-27.7,0.2c-39.4,7-78.8,10.8-118.1,9.6l-121.2,5.5l-58.1,12.7c-46,6.7-92.5,7.8-138.7,3.5
					l-42.7-15.6l-55.5,0.3l-80.8-15.5c0,0-77.5-6.5-81.9-6.5s-50-10.8-50-10.8c-34.5-4.1-66.5-13.9-97.1-27.1l-68-31.4l-67.8-26.5
					l-68.1-34.9l-72.4-33.5l-12-17.7c-44.9-36.7-77.3-74.3-96.3-112.7l-31-12.9c-17.1-32.1-24.2-63.3-15.4-93.3l20.5-20.4l6.6-6.5
					l-10.8-21.3c2.6-26,14.9-49.1,37.8-69.2l44.6-30.6l-0.3-11.4c0-1.6,0-3.1,0.2-4.7c1.3-13.9,10-27.4,25.4-39.3l20.7-16
					c13.4-10.4,32.3-19,54.9-24.9l54.2-14.2l59.1-32.1l53.7-26l12.8-6.2c19.5-11.2,61.5-23.6,116.7-36.6
					c20.4-4.8,42.6-9.8,66.1-14.8l115.2-9.6c63.9-13.7,135.8-21.5,220.1-19.8l90.7,2.3c59.9,0.5,115.7,3.4,168.2,8.1
					c69.5,11.6,145.2,34,223.5,60.9l77.6,9.9c43.9,8.9,83,20.5,117.7,34.6l62.5,47.3c53.3,21.8,98.4,57.1,138.3,100.8l-2.1,32.4
					l15.8,48.6l42,49C1742.2,1423.4,1740,1441.5,1732.3,1459.4z"/>
				<path class="st5" d="M284.5,1091.7l-12.8,6.2l-53.7,26l-59.1,32.1l-54.2,14.1c-22.6,5.9-41.5,14.5-54.9,24.9l-20.7,16
					c-15.4,11.9-24.1,25.4-25.4,39.3c14.8-5.5,28.6-10.9,40.8-16.1c6.9-2.9,13.2-5.8,19.1-8.5c6.4-3,12.9-5.9,19-8.9
					c3.8-1.8,7.5-3.6,11.1-5.4c1.8-0.9,3.7-1.6,5.7-2.2c2-0.7,4-1.4,6-2.1c8.7-3.1,16.5-6.1,23.2-9c16.1-6.8,26.6-12.8,29.1-16.5
					c0.6-1,0.7-1.8,0.1-2.4c-0.3-0.3-0.7-0.6-1.1-0.7c-0.5-0.2-1.9-0.2-0.9-0.7c4.8-2.8,9.4-5.7,13.9-8.4c9.3-5.8,18-11.3,26.1-16.8
					c2.2-1.5,4.4-2.9,6.5-4.4c1-0.7,1.9-1.4,2.9-2c0.6-0.5,0.1-0.4,2.5-1.1l4.7-1.3c9.5-2.7,19.2-5.8,26.9-8.8
					c7.3-2.8,11.4-5,13.6-6.7c0.7-0.6,1.5-1.2,2.2-1.8c0.6-0.5,9-2.8,11.4-3.6c42.8-13,81.5-27.3,95.8-36.9c4.3-2.9,7-5.5,10.3-8.1
					c6-4.8,12-9.6,18.1-14.4l10.3-8.3C346,1068.1,304,1080.5,284.5,1091.7z"/>
				<path class="st6" d="M1732.2,1459.4l-37.2,28.4l-35.4,50.7c-12.5,32.3-40.6,66.8-76.4,102.6l0.3,12.4
					c-1.7,5.7-5.2,11.9-9.8,18.2c-9.2,12.4-22.5,24.8-34.3,32.1l-45,8.6l-50.2,25.5c-16-44.4,23.7-133.4-1.3-147.1
					c-23.5-12.9-18.9-37.3-34-52.9c-17.3-18,27.4-63.2-4.1-75.8c-58.4-23.4-115.7-37.4-150.2-69.6c-42.7-39.9-32.6-97.2-121.9-124.1
					c-69.4-20.9-114.1-42.2-168.2-73.2c-56-32-179.7-21.6-267.1-31.7c-76.4-8.9-142.5-27.2-218.5-35.5c-30.3-3.3-64.6-4.7-68.2-22.7
					c-1.4-6.5-66.6-8-139-7.6l12.7-6.2c26.7-15.3,95.8-32.9,182.8-51.4l115.2-9.6c63.9-13.8,135.8-21.5,220.1-19.8l90.7,2.3
					c59.9,0.5,115.7,3.4,168.1,8.1c69.5,11.6,145.3,34,223.6,60.9l77.6,9.9c43.9,8.9,83,20.5,117.7,34.6l62.5,47.3
					c53.3,21.8,98.4,57.1,138.3,100.7l-2.1,32.4l15.8,48.6l42,49C1742.2,1423.4,1740,1441.5,1732.2,1459.4z"/>
				<path class="st7" d="M370.4,1207.4c-8.6-2.6-25.7-2.3-29.2,2.9c-2.6,3.9,7.3,10.8,10.6,13.8c9.8,9.2,35,13.8,57.3,14.2
					c10.4,0.2,25.9,3.3,34.7-0.2c8-3.2,7.5-10.2,2.5-13.7c-10.3-7.2-42.6-15.6-59.9-16.4C379.8,1207.7,376.1,1209.1,370.4,1207.4z"
					/>
				<path class="st7" d="M763.6,1215c-12.1,1-16.5,1.8-20.6,7.7c-3.7,5.3-4,7.8,6.4,10.3c17.6,4.3,39.9,2.4,58.5,3.1
					c5.5,0.2,26.6,5.2,30.5,2c5-4.2-18.6-8.4-23.4-9.8C796.5,1223,782.4,1219.8,763.6,1215z"/>
				<path class="st7" d="M610.4,1342.2c-19.9-4.7-47,6.6-59.2,13.5c-19,10.7-17.4,20.5-10.1,33.2c2.9,5.1,3,12.5,9.1,17.2
					c6.7,5.2,22.4,8.9,33.2,11.7c25.2,6.4,58.4,11.2,86.1,13c22.1,1.4,52.6,1.7,72.7-1.8c26.1-4.6,58.6-3,64.1-18.1
					c5.1-13.8-2.9-24.9-24.1-35.1c-13.5-6.5-33.5-8.8-48.6-14.3c-12-4.3-24.1-8.9-36.8-12.7c-13.2-3.9-30-7.5-45.4-8.2
					C636.4,1339.9,623.4,1345.3,610.4,1342.2z"/>
				<path class="st7" d="M146.7,1317.7c-16.5,4.2-31.7,16.4-36,24.4c-7,13.1,2.6,21.8,14.3,33.1c11.9,11.4,19.8,17.1,49.7,15.6
					c25.2-1.3,43.8-5.2,57-15.3c16.9-13,1-26.4-19.1-37.4C201.4,1332,163.3,1313.5,146.7,1317.7z"/>
				<path class="st7" d="M261.6,1116.9c-15.8,3.3-29.7,13.6-27.2,21.6c2.5,8.2,28.3,12.4,43.7,10c12.3-1.9,29.8-17.1,27.6-22.8
					C302.2,1116.6,275.4,1114,261.6,1116.9z"/>
				<path class="st7" d="M984.1,1514.8c-27.5,3.3-10.3,19.6,5.3,24c18.6,5.2,45,0.6,65.5,3.2c8,1,21.5,4.3,24.5-1.5
					s-25.1-12.5-33.3-15C1025.1,1519,1007.6,1512,984.1,1514.8z"/>
				<path class="st7" d="M449.3,1571.5c-24.8-2.8-25.7,23.1-25.6,29.8c0.3,12-3,23.4,11.4,33.8c15.6,11.2,44.2,18.3,70.3,22.9
					c25.5,4.5,42.8,0.1,67.1-3.6c24.9-3.8,34.9-6.8,36-20.2c1.1-13.8-23.1-26-42.9-35.1c-19.4-9-38.7-18.1-63.7-23.5
					C489.5,1572.8,458.6,1568,449.3,1571.5z"/>
				<path class="st7" d="M878.7,1689.4c-26.9-1.6-56.9,9-36,20.2c20,10.7,40.2,14.8,68.7,17.1c30,2.4,66.8,6.9,97.2,4.3
					c10.6-0.9,33.7-5.1,40.3-9.3c14.7-9.3-19.2-14.3-32.3-16.4c-28.2-4.6-62.3-6.5-88.3-12.8C918.5,1690,886.1,1682,878.7,1689.4z"
					/>
				<path class="st7" d="M1379.3,1608.6c-26.8-1.6-40.1,12-41.9,21.6s-4.3,24.3,4.1,33.2c12.4,13.1,50.7,7.1,68-0.5
					c23.5-10.4,13.3-26.1-0.2-37.8C1402.9,1619.5,1392.7,1609.4,1379.3,1608.6z"/>
				<path class="st7" d="M1051.1,1386c-13.4,0.1-19.3,11.5-18.6,16.7c0.7,5.5,6.8,8.1,16.3,11.2c12.8,4.1,25.1,7.4,36.7,12.2
					c10.5,4.3,16.5,6.3,30.9,5.9c7.5-0.2,29-0.9,31.7-5.1c3.5-5.4-27.9-20.8-35.4-25.4C1106.1,1397.4,1063.8,1375.8,1051.1,1386z"/>
				<path class="st5" d="M445.3,1567.2c-4.4,2.3-8.4,5.7-4.8,8.2c24.2-0.8,50.3,0.6,68.9,7.9c7.5,3,13.4,6.8,21.3,9.5
					c9.7,3.3,21.8,4.8,31.6,8.1c24.7,8.2,28.3,24.7,45.5,36.4c1.7,1.3,3.8,2.1,5.9,2.3c6,0.5,8.8-3.3,9.2-6.2
					c1.2-8.2,2.4-16.5,3.5-24.7c0.5-3.7,1-7.4-1-10.9c-1.7-3.1-5.4-6-9-8.7c-18-13.5-39.8-27-71.2-32.9
					C511.6,1550,469.9,1554.5,445.3,1567.2z"/>
				<path class="st5" d="M796.9,1639.5l-9-3c-10.9-3.6-22.4-7.4-35.6-8.1c-14-0.8-27.7,2-40.6,4.7c-5.1,1.1-10.4,2.3-13.4,4.5
					c-1.8,1.2-2.8,3.2-2.8,5.4c-0.1,6.6,7.9,12.9,19.3,16.7c11.4,3.8,25.9,5.2,39.8,4.7c5.4-0.2,10.7-0.7,16.1-0.6
					c9.2,0.2,18.4,2,27.5,1.3c13.9-1,23.8-8.7,19.3-15C814.2,1645.4,805.3,1642.4,796.9,1639.5z"/>
				<path class="st5" d="M507.3,1373.8c0.4,17.8,8.3,32,34.7,44.7c24.2,11.6,58.3,13.7,89.5,19.5c29,5.4,62,7.3,93.7,6.4
					c14.3-0.4,22.5-1.9,35-5c7.5-1.9,23.3-7.8,31.9-7.2c0,0,4-0.4,4.1-0.4c0.5,0.1,0.9,0.4,1.2,0.7c-15.1,9.3-34.6,9.1-54.7,13.8
					c-17.8,4.2-21.2,13.1-43.2,15c3.8,5,21.5,2.9,27.6,7.2c-22.2,3-52.2-0.8-72.8,4.6c-10.6,2.8-13.6,9.4-25.7,12.1
					c-12.7,2.8-25.3,0.2-38.3,0c-13.7-0.2-26.1,3.8-39.4,3.7c-15.5-0.1-28.2-4.8-38.2-9.8c-20.4-10.2-26.5-18.9-22.7-32
					c2.8-9.5-4.2-14.7-9.7-23.5s2.3-13.4,8.2-21.4c6.7-9.1-9.6-40.3,19.6-41.4c0.8,6.5-2.7,15.3,2.2,21.3L507.3,1373.8z"/>
				<path class="st5" d="M100.2,1329.7c-16.4,3.3-20.7,21-26,28.3c-3.7,5-4.2,9.8-5.1,15.4c-1,6.1-5.2,10.7-7,16.6
					c-4.4,14.8,18.5,18.4,28.2,29c1.9,2.2,3.4,5.3,7.5,6.9c7.2,2.8,7.1,0.2,12,0.9c8,1.2,5.3,0.4,12.1,3.6c4.2,2,7.3,5.8,13.4,6.6
					c12.6,1.7,16.8-7.3,28.6-10.1c12.2-2.9,24.5-4.7,36.4-8.5c11-3.5,20.3-6.4,31.9-9.3c12.5-3.1,18.7-6.4,17-13.7
					c-21.6,5.3-31.6,10.7-57.8,10.3c4.7-6,20.8-3,30-6.4c18.3-6.8-4.4-6.4-14.4-5.3c-22.4,2.4-47.6,9.6-70,3.7
					c-26.1-6.9-42.8-17.4-43.1-31.4c-0.1-6.2-0.3-12.4-0.4-18.6c-0.1-2.5-1.5-5.9-0.3-8.3s6.5-3.3,7.2-5.5
					S103.3,1330.6,100.2,1329.7z"/>
				<path class="st5" d="M600,1336.7c1.7-9.6,50.1-12.5,65.4-13.6c24.5-1.8,53.6-3.1,77.4,0.6c55,8.4,94.6,40.3,95.1,67.1
					c0.1,5.5,2.3,14-8.4,17.9c-14.8,5.3-10.7-2.7-15.1-7.4c-9.7-10.3-39.1-5.2-57-11.4c-22.9-7.9-22.1-21.2-44.6-29.5
					c-18.9-7-40.6-13.8-64.6-15c-15.8-0.8-45.5,2.7-58.5-0.5c-24.1-6,12.5-14.2,24.6-11.7L600,1336.7z"/>
				<path class="st5" d="M123.5,1324.8c1.2-9,35.7-19.2,52.1-22.2c25-4.5,41.2-0.5,63,3.6c23.2,4.3,40,10.9,45.7,23.2
					c6,13-12,20-25.9,29.8c-5.5,3.9-28,24.1-28.7,8.4c-0.3-6,7.8-7.3-0.4-13.1c-5.1-3.6-14.7-5.9-22.4-8
					c-16.2-4.5-21.9-11-35.5-17.1c-16.1-7.2-31.4-5.7-52.2-6.2c3.7-1.8,8.3-3.7,11.4-5.4L123.5,1324.8z"/>
				<path class="st5" d="M199.2,1436.2c-20.9-2.3-28.7,20.2-22.4,26.9c5,5.3,13.7,6.2,22.2,9.5c9.1,3.5,12.1,8.4,26.1,8.3
					C276.3,1480.7,238.1,1440.5,199.2,1436.2z"/>
				<path class="st5" d="M-22,1350.4c-5.2,6.9-12.1,13.4-12.6,20.8c-0.5,6.2,4,11.8,4.9,17.9c1,6.8,0,9.6,7.3,15.3
					c3.1,2.4,13,14.6,18.3,15c17.9,1.2,0.6-34.7,0.5-39.4c-0.3-10.8,8.7-22.5,2.4-33.3C-10,1331.7-14.8,1347.9-22,1350.4z"/>
				<path class="st5" d="M120.8,1213.6c-5.5,5-7.3,8.4-17.2,11.7c-7.1,2.3-12.6,1.8-18.9,5.8c-11,6.8-9.4,15-16.6,22.2
					c-7.4,7.4-9.4,13-10,21.4c-0.2,3.3-2.3,8,6.1,9.1c9.5,1.3,8.3-4.7,17.2-5c3.4,9.9,17.2-0.2,20.6-3.7
					c5.7-5.8,10.4-12.1,18.5-17.2c13.3-8.3,29.3-16.5,42.1-25.2c10.5-7.1,24-26.6-3.9-27.6c-11.5-0.4-53.7,10.1-42,16.1
					L120.8,1213.6z"/>
				<path class="st5" d="M224,1130.9c-0.6,6.9-6.6,11.7,4.4,17.4c7.8,4,22.9,5.9,34.1,5.9c8.3,0,32.5-5.6,23.4,3.3
					c-4.4,4.3-22,5.3-30.5,7.2c-24.1,5.3-35.7,15.8-63.9,15.3c-13.5-0.2-17-1.4-10.8-9.1c4.1-5,13.6-8.5,17.6-13.7
					c5.9-7.8,5.9-21.4,21.2-27.1c3.5,1.1,3.8,2.7,3.1,4.9L224,1130.9z"/>
				<path class="st5" d="M263.3,1124.2c4.4-3.9,26.1-7.6,33.9-3.8c9.5,4.5-2.7,11.5-2.7,16c18.6-0.4,47.7-16.8,62.1-22.8
					c17.7-7.3,40.3-24,5.1-28.5c-22.9-2.9-42.5,4.9-57.9,12.1c-12.1,5.7-39.6,13.7-46.5,20.9c-1.7,1.9-2.1,4.6-1.1,6.9
					c7.1-1,14.5-3.7,21.6-5.6L263.3,1124.2z"/>
				<path class="st5" d="M600.5,1115.1c-12.4,3.3-22.2,7.2-36.4,9.2c-11.8,1.6-21.5,2.4-31.8,5.9c-15.1,5.1-46.6,17.7-22.5,26
					c9,3.1,25.9,2.5,36.3,3.4c10.9,0.9,19.5,2.8,30.8,3.3c26.5,1.1,49.6-7.5,74.2-10.8c31.4-4.1,64.5-19.3,21.2-29
					c-28.8-6.4-54.8-12.7-81.9-3.8L600.5,1115.1z"/>
				<path class="st5" d="M619.7,1061.1c-10.4,5.1-68.1,18.8-28.7,21.6c11.7,0.8,24,1.2,35.1,1.9c17.8,1.1,21.4-2.1,34.5-5.9
					c7.6-2.2,73.4-8.3,42.3-17.5c-19.1-5.7-50.4-1.1-70.1-0.1C627,1061.4,624.3,1058.9,619.7,1061.1z"/>
				<path class="st5" d="M853.5,1067.5c-6.4-0.2-24.2-4-24.8-8.2c-0.8-5.7,15.2-5.2,23-5.7c22.9-1.2,49.6-2.1,71.6,1.7
					c34.6,5.9,62.8,17.3,78,32.6c-22.6,4-27-5.5-42.5-10c-12.8-3.7-35-3.5-49.8-5.1c-11.9-1.3-100.1-1.5-80.7-16.3L853.5,1067.5z"/>
				<path class="st5" d="M805.2,1063.6c27.8,28.5,134.3,9.3,157.1,38.4c-21.8,1.5-40.5-5.8-62.8-4.2c-20,1.4-45.1,7.7-65.6,4.2
					c-20.1-3.5-35.4-13.3-45.5-21.7C780,1073.2,784.4,1062.3,805.2,1063.6z"/>
				<path class="st5" d="M1063.3,1165.1c4.2,31.2,63,39,113.6,47.9c29.6,5.2,32.3,15.8-4,13.7c-10.5-0.6-24.5-3.5-30.3,2.4
					c-2.6,2.6,5.2,4,1.4,6.2c-3.5,2-14.4,1.4-19.1,1.2c-11.8-0.7-21.8-2-34.8-1.6c-11.8,0.3-22,1.9-33.9,0.2
					c-13.9-1.9-25.9-5.3-34.3-10.9c-9.9-6.5-9.1-8.2-4.3-15.2c3.7-5.4-2.1-9.9-0.4-15.3c2-6.5,16.1-6.1,21.4-12
					c4.4-5-3.8-11.5,2.4-16.5C1048.2,1159.5,1055.7,1160.2,1063.3,1165.1z"/>
				<path class="st5" d="M1121.7,1160.6c-11.3,2-38,13.9-28.8,20.2c8.2,5.6,41.1,3.4,54.3,6.8c18.1,4.6,26.2,11.7,40.2,18.2
					c22.8,10.6,9.7-5.8,8.4-11.7c12.6-0.7,22.1,7.4,30.7,10.9c14.6-8.1-61.7-37.3-78.1-41.3c-10.9-2.6-38.8-7.4-50.5-5.6
					c-26,4.1,19.3,6.4,22.5,10.1L1121.7,1160.6z"/>
				<path class="st5" d="M727.1,1222.2c0.6,16.6,18,19.6,55.1,21c11.8,0.4,73.6-3.9,60.9,7.9c-3.9,3.6-11.7,2.9-18.3,3.6
					c-8.3,0.9-7.8,0-15.1,3.4c-9.6,4.4-14.6,8.7-30.2,7.9c-10.8-0.5-20.9-4.1-32.2-4.7c-12.5-0.6-25.6,2.4-31.9-4
					c-2.8-2.8-1.4-9.3-2.2-12.4c-1-4.1-3.5-8-4.7-11.7c-1.9-6,1-16,8.3-20.9c3,1.3,5.8,2.9,8.4,4.8L727.1,1222.2z"/>
				<path class="st5" d="M449.1,1197.2c-29.9-7.4-52.3,2.1-79.8,4.8c-5-0.2-9.9,0.1-14.8,0.8c-2.5,7.2,13.2,7,23.3,8
					c5.1,0.5,11.4,0.5,15.8,2.1s4.7,6.1,10.3,7.6c9.3,2.5,23.9-0.1,34.1,2.9c9.5,2.7,11.7,10.2,22.1,11.8c13,2,17.1-3.9,19.1-9.1
					C484.5,1212.9,474.1,1203.4,449.1,1197.2z"/>
				<path class="st5" d="M381.5,1240.5c-14.5-1.7-49.2-12.4-52-20.4c-1.8-0.4-3.5-1.1-5.2-2c-3.3-2.1-1-7.1-5.3-8.8
					c-23.2-9.4-15.8,20.8-16.6,24.8c-2.4,11.5-13.3,22.3,21.1,25.4c11.8,1.1,22.5,1.7,33.7,2.7c11.8,1.1,24,0.6,33.5-3.2
					c10.4-4.2,9.7-6.7,24.7-7.6c12.4-0.7,21.2,0.3,31.9-3.1C446.3,1239.7,395.7,1242.2,381.5,1240.5z"/>
				<path class="st5" d="M377.2,1184.6c-3.6,1.1-6.2,1.9-5.5,4.1c13.1,1,24.9-4.3,39.1-4.2s29.2,2.2,42.5,4.8
					c12.2,2.4,25.5,5.2,33.8,10c8,4.6,7.4,12.7,16.5,15.9c19.6-10-27.8-27.4-44.6-31.8C446.1,1180,375.1,1173.8,377.2,1184.6z"/>
				<path class="st5" d="M1056.7,1373.6c-9.2,4.9-27.7,15.4-9.4,21.3c6.3,2,13.9-0.6,20.2,0c8.3,0.8,13.6,3.7,19.5,6.8
					c9.9,5.1,19.4,12.8,30.7,17.1c8.3,3.2,13.8,1.3,20.6,4c6,2.4,5.8,7.2,12,9.6c14.6-15.4,7-31.3-13.2-45.4
					c-21.7-15.2-56.6-21.2-78.3-14.1L1056.7,1373.6z"/>
				<path class="st5" d="M1026.6,1390c0.3,15.6,4.6,19.6,29.4,30.7c23.6,10.6,51,12.6,79.4,16.8c0.6,0.7,1.1,1.6,1.6,2.5
					c-22.2,9.9-94.2-10.2-113.1-17.7c-16.1-6.4-15.7-16.7-18.8-25.6c-1.4-4.1-5.5-11.2,0.3-15.2c10.8-7.4,12-2.3,19.4,1.7
					L1026.6,1390z"/>
				<path class="st5" d="M1101.8,1367.8c13.1,10.7,46.7,10.5,60.4,22.4c10.3,8.9,5.5,23.8,21.2,30.4c16-7.5-15-30.7-27.5-37
					c-8.5-4.3-17.2-8.8-27.6-11.9C1122.6,1370,1091,1359,1101.8,1367.8z"/>
				<path class="st5" d="M1242.5,1294.8c-0.3,23.2,18.3,27.2,48.2,44.5c22.7,13.1,41.9,23.9,75.3,30.7c29.6,6.1,61.1,11.2,94.2,11.1
					c8.2,0,25.5-3.4,30.7-0.2c9.3,5.7-10.9,10-18.8,11.3c-9.3,1.6-26.4,2.4-33.2,5.7c-10.2,5-2.9,11-20.4,13.1
					c-12.3,1.5-28.8-0.2-41-0.6c-14.2-0.5-22.9,1.9-36.5,2.4c-26.6,1-72.4-10-86.2-20.2c-8.5-6.3-10.8-12.1-22.7-17.3
					c-10.4-4.6-23.3-8.4-30.7-14.5c-14-11.7-6.2-22.7-8.5-34.9c-1-4.9-5.3-10.1-3.3-15.2c2-5,9.7-9.8,12.8-14.6
					c4.8-7.3,3.2-20,16.9-25.6c21.9-9,3.2,8,15.5,8.9L1242.5,1294.8z"/>
				<path class="st5" d="M1357.4,1245.6c-23.4,5.2-69,21.3-38.6,34.7c13,5.7,22.4-1.9,36.2,2.6c9.5,3,13.8,10,23,13.5
					c9.5,3.6,18.8,8,27.6,13.2c15.2,8.6,15.5,1,31.1,3.1c19.3,2.7,26.9,20.9,40.9,27.1c3.9,1.8,8,3.1,12.2,3.6
					c-0.8-10.7,0.4-21.6,2.4-32.2c2.4-12.6-9.1-23-24.4-33c-13.3-8.7-36.9-17.3-54.7-23.7
					C1394.3,1247.7,1377.7,1241.2,1357.4,1245.6z"/>
				<path class="st5" d="M848.6,1211.8c-1-0.8-2.1-1.6-3.2-2.2c-1.3-1.3-2.9-2.4-4.5-3.3c-13.4-6.2-64.3-9.4-74.1,0.8
					c-1.5,0.7-2.9,1.6-4.1,2.8c-4.4,0.7-7.9,1.8-7.8,5.2c0.1,5.5,14.1,8,23.5,8.9c12.2,1.2,24.5-0.8,35.3,2.4
					c7.9,2.3,14.4,9.7,25.8,9C864.6,1243.9,857.1,1219.4,848.6,1211.8z"/>
				<path class="st5" d="M843.5,1194.7c-10.8-1.4-46.2-6.4-49.6,1.4c14.1,1.1,34.3,0.1,43.8,2.4c9.3,2.2,15.5,5,21,9
					c4.2,3.1,6.8,10.7,14.3,10.9C874.7,1207.9,865.4,1197.5,843.5,1194.7z"/>
				<path class="st5" d="M1074.3,1680.7c-20.5-8.4-54-13.7-80.7-15.4c-28.9-1.8-59.9-0.4-87.6,2.6c-22.3,2.4-32.6,14.7-54,16.5
					l-17.5,3.8c-15.3,2.2-19.9,8-15.3,15.4c1.4,2.3,2.8,6.1,10.4,4.6c7.1-1.3,1.6-4.6,4.1-6.8c4.4-4,17.6-7.8,26.5-9.1
					c11.9-1.7,18.3,1.7,31.8,1.4c15.8-0.4,23.7-0.7,38.2,3.8c14.2,4.3,19.7,13.2,32.4,17.1c10.5,3.2,31.3,0.4,43.6,0.4
					c18,0,34.7,1.5,52.9,0.6c5.2-0.3,19.5,0.1,23.4-1.6c6.4-2.9,1.2-3.1,1.6-6.3c0.1-1-3.8-1.8-3.5-3.4c0.4-2.4,5.7-0.4,7.1-2.1
					c1.6-2,3.3-5.4,3.1-7.6C1090,1688.1,1084.1,1684.7,1074.3,1680.7z"/>
				<path class="st5" d="M855.1,1739.9c-11.3,0.4-28.6-10.6-24.2-15.7c7.5-8.6,22.8,0.5,32.6,2.8c26.8,6.2,67.5,8.3,96.7,8.3
					c9.9,0,34.3-2.3,42,0.6c14,5.3-11,10.3-20.9,11c-18.6,1.4-41.8,2.2-60.6,1.7c-15-0.4-26.3-3.7-40.7-5.5
					C871.1,1742,863.2,1742.2,855.1,1739.9z"/>
				<path class="st5" d="M996.9,1500.2c-10,2.8-35.8,12.5-22.6,19.3c7.4,3.8,25.3,0.6,34.8,2c14,2.1,11.7,7.8,28,8.8
					c12.7,0.8,22.1-0.3,33.3,4.1c6.7,2.6,17.1,12.8,28.1,9.4c7.7-2.4,2.8-15.6,1.4-18.7c-6-12.8-28.9-25.4-56.2-27.8
					c-7.9-0.7-17-1.6-24.9-1.4C1007.6,1496.3,1005.4,1497.9,996.9,1500.2z"/>
				<path class="st5" d="M962.5,1523.7c0.6,16.7,25.8,18.4,57.3,21.4c18.9,1.8,55.9-1.9,64.5,8.5c6.6,8-6.7,7.2-20.3,7.7
					c-5.6,0.2-13-0.8-17.3,1.4c-4,2,1.1,5.6-4.4,8.2c-10.6,5-21.9,2.8-28.6,10.8c-5.8,7-0.4,9.2-17.6,11c-3.8,0.2-7.6,0.1-11.4-0.5
					c-11.4,14.8-22.1,5.1-25.6-5.5c-1.5-4.5,1-10.1-1.4-14.5c-2.8-5.2-12.8-7.2-18.2-11.6c-9.6-8-3.3-21.3,1.4-29.7
					c1.5-2.7,1.7-11.4,7.9-12.9c5.2-1.2,7-2.2,12.2,1.4L962.5,1523.7z"/>
				<path class="st5" d="M1266.3,1462.9c-16.8,0.1-34.6-0.5-37.8,9.2c-1.2,3.6,3.4,4.9-1.2,8.3c-3.5,2.6-14.8,2.5-17.5,4.9
					c-12.5,11,50,9.9,61.7,10c16.3,0.3,27.8,1.8,40.9-3.5c9.2-3.7,15.4-9.5,14.2-15.4c-1.3-6.3-11.7-8.3-23.6-10.4
					c-10.3-1.8-28.3-0.2-36.7-2.4l-1.2-0.2C1265.2,1462.4,1264.9,1463.3,1266.3,1462.9z"/>
				<path class="st5" d="M1539.8,1478.7c-3.4-8.4,11.6-26.7,34.5-25c20.5,1.5,25.3,19.7,25.5,27.7c0.1,5.8,7.7,27.6-5,31
					c-16,4.3-17.8-16.7-21.3-21.2c-5.2-0.3-10.5,0.4-15.5,2c-0.8-1.8-3.6-3.3-3.6-5.3c-12.6-0.1-9.2,7.1-14.1,10.4
					C1531.6,1493.9,1536,1483.5,1539.8,1478.7z"/>
				<path class="st5" d="M1509.5,1494.7c0.4,8.8,14.8,19.9,30.1,24.5s33.4,1.7,50.6,2.1c1,5-18.2,7.9-25.4,11.1
					c-8.4,3.7-18.7,6.8-26.4,10.5c-7.5,3.7-11.2,9.8-20.2,12.6c-11.8,3.6-27.3,2.2-30.8-4c-3.2-5.7,4.9-11.3,6.9-16.6
					c2-5.2,1.2-11,1.1-16.5s-1.6-11.7-0.4-17.3c0.9-4.2,7.6-15.9,15.5-6.8c1.1,1.3,0.8,3.9,0.5,5.4L1509.5,1494.7z"/>
				<path class="st5" d="M1364.9,1619.1c-12.7-9,9-25.3,27-29.3c23.1-5.2,59.4-6.7,63.2,8.3s-4,33.4-15,47.5
					c-2.9,3.7-9.2,11.4-18.5,7c-6-2.8-3.3-13.2-3.9-17.2c-13.5-2-23.2-1.2-29.2-6.8c-3.4-3.2,3.3-6.4-7.5-6.9
					c-3.9-0.2-11.8,3.4-14.1,4.7c-4-4.9-3.5-10.2-3.7-15.6L1364.9,1619.1z"/>
				<path class="st5" d="M1328.3,1613.1c-7.1,9.4-2.3,26.4-2,36.6c0.3,8.8-0.3,18.1,14.8,24.2c12.1,4.9,28.2,4.7,42.8,2.5
					c13.9-2.1,31-10.3,44.8-10c2.8,5.4-16.6,11-25.8,13c-13.9,3.1-20.7,3.1-30.8,9.3c-7.5,4.6-12.6,10.3-22.8,13.8
					c-3.4,1.2-10.7,3.6-14.8,3.6c-10.9,0-6.1-2.2-12.9-4.6c-10.9-3.8-19-0.4-30.7-1.9c-12.2-1.5-5.8-8-20.6-8.9
					c-10.8-0.7-24.6,8.4-29.2,1.6c-3.5-5.1,13.8-12.6,20.1-16c20.1-10.8,28.9-20.8,40.4-34.1
					C1306.8,1636.2,1314.2,1612.7,1328.3,1613.1z"/>
				<path class="st5" d="M1257.3,1091.5c-14-1.8-28.3-9-44-5.5c-15.2,3.4-10.6,10.8-2.6,16.1c10.4,6.9,26.9,8.7,38,14.5
					c8.9,4.7,12.6,10.7,24,14.4c10.8,3.5,26.2,4.6,38.2,6.3c16.1,2.3,24.8,4.9,38.2,9.5c13,4.5,23.3,6,39.2,6.8
					c19.4,1,32.6,5.3,49.2,10.1c9,2.6,19.6,6.7,28.8,8c4.4-14.1-35.6-23.6-53.1-32.1c-19.6-9.5-29.6-20.2-52.9-27.5
					c-19.2-6-35.4-14.5-57.4-18.4c-15.6-2.7-45.2-1.3-57.4-5.7L1257.3,1091.5z"/>
				<path class="st5" d="M1685.9,1348.4c-29.8-11.2-40.6-13.7-64.6,1.9c14.1,5.6,25,12,29.1,20.7c3.4,7.2-0.8,18,13.5,23.5
					C1698.9,1407.9,1735.6,1348.6,1685.9,1348.4z"/>
				<path class="st8" d="M1523.5,1713.2l-44.6,38.5l-47.4,23.7l-48.4,21c-42.2,16-77.9,27.6-139.1,36.6l-46,5.8
					c-39.4,7-78.6,16.2-117.9,15l-102.7,0.6l-72.7,10.6c-44,6.3-100,4.3-148.9-0.2l-45.7-8.9l-61.9,0.3l-71.4-15.3
					c0,0-77.3-7.9-81.7-7.8s-50.2-8-50.2-8c-34.5-4.1-80.1-13.8-110.6-27l-65-32.8l-57.2-20.6l-95.4-38l-64-37.3l-43.4-26.3
					c-44.9-36.7-69.2-64-88.2-102.5l-18.3-31.7c-17.1-32-37.5-71.1-28.7-101.1l51.4-13.6c30.1,48.8,29,109.7,123.6,136.4
					c29.2-10.7,111.8-8.7,131.6,6s33.9,33.2,67.6,40.3c8.4,1.8,17.8,2.8,25,5.5c9.1,3.4,13.5,9.2,23.2,12.4
					c17.7,5.8,41.9,0.1,58.2-6.6c16.3-6.6,34.2-14.8,55.6-13.7c-30,25.2-17.5,60,28.5,79.1s120.5,20.6,169.7,3.3
					c-5.8,15.4,26.2,27.6,55.2,35c56.3,14.4,116.2,25.3,176,36.2c17.8,3.2,35.6,6.5,53.9,8.8c29.4,3.7,59.1,5.1,88.7,4.1
					c15.4-0.5,30.9-1.6,46.2-0.4c13.7,1.1,26.4,4,39.3,6.5c74.5,14.1,158.7,11.4,236.8,2.9
					C1364.7,1743.5,1468.4,1726.2,1523.5,1713.2z"/>
			</g>
		</g>
	</g>
</g>
<path class="st5" d="M1254.4,1267.1c2.2,3.4,3.9,7.1,5,11.1c0.8,2.9,1.2,5.9,1.2,8.8c0,28.5-35.8,51.6-79.9,51.6
	c-12.2,0-24.3-1.8-35.8-5.5c-15.7,14.4-41.6,23.8-70.9,23.8c-23.2,0-44.2-5.9-59.7-15.4c-17.7,26.8-58.9,45.7-107,45.7
	c-40.1,0-75.4-13.1-96.3-33.1c-8.2,1.8-16.7,2.8-25.1,2.8c-5.7,0-11.3-0.4-16.9-1.2c-12.3,12.6-34,21-58.7,21
	c-20.6,0-39-5.8-51.8-15c-13.7,6.6-30.6,10.6-49.1,10.6c-28.7,0-53.9-9.5-68.6-23.9c-20-1.1-38.5-5.8-53.7-13.2
	c-17.6,8.5-39.4,13.4-63.1,13.4c-58.5,0-106-30.6-106-68.4c0-21.8,15.9-41.3,40.5-53.8c-28.5-8.3-47.2-17.2-47.2-38.7
	c0-3.3,75.8-29.1,115.9-29.1c28,0,17.4-24.1,32.1-10.2c10.3-2.9,21-4.3,31.7-4.3c43.5,0,78.8,22.8,78.8,50.8
	c-0.1,6.2-1.8,12.2-4.9,17.6c34.5,3.1,63.8,17,79.3,36.2c6.4-1.2,13-1.8,19.5-1.8c4.4,0,8.7,0.3,13.1,0.8
	c-7.4-19.2,20.1-36.1,50.2-29.8c11,2.3,19.8,8,23.4,15.1c5.1,10.1,0.6,19.7-9.2,26c3.6,0.4,7.1,1.4,10.3,3c22.6-7.1,46.9-7,69.5,0.2
	c21.3-15.3,52.1-24.9,86.4-24.9c0.7,0,1.4,0,2.1,0c6.2-13.8,26-24,49.4-24c12.3,0,23.6,2.8,32.4,7.4c11.1-12.5,29.9-21.8,52.3-25.1
	c0-0.2-0.1-0.5-0.1-0.7c0-28.5,35.8-51.6,79.9-51.6c33.9,0,62.8,13.7,74.4,32.9c1.8-0.1,3.7-0.2,5.5-0.2c44.1,0,79.9,23.1,79.9,51.6
	C1283.1,1243.4,1271.9,1257.7,1254.4,1267.1z"/>
<path class="st9" d="M1227.1,1050c-10.2,10.7-16.1,24.9-16.4,39.7c-20.6-9.7-44.8-8.3-64.2,3.7c0.1-1,0.1-1.9,0.1-2.9
	c0-11.9-6.5-22.9-17-28.5c15.7-0.9,29.1-11.9,33.1-27.1c4.4,17.1,21.8,27.5,38.9,23.1s27.5-21.8,23.1-38.9s-21.8-27.5-38.9-23.1
	c-10.9,2.8-19.5,11-22.7,21.7c-4.2-19.7-23.6-32.3-43.3-28.1c-3.1,0.7-6.1,1.7-8.9,3.1c-5.9,3-10.8,7.4-14.4,13
	c-25.2-32.1-71.7-37.7-103.8-12.5c-16,12.6-26.2,31.3-28,51.6c-8.1,0-15.9,3.3-21.7,9.1c-2.3,0.6-4.5,1.3-6.7,2.1
	c-23.7-29.9-67.2-34.9-97.1-11.2c-3,2.3-5.7,4.9-8.3,7.7c-8.8-23.9-35.3-36.1-59.2-27.3c-9.8,3.6-18.1,10.5-23.5,19.4
	c-16.2-19-39.9-29.9-64.8-29.9c-2.4,0-4.7,0.1-7.1,0.3c3.3-24.1-13.6-46.2-37.7-49.5c-5.8-0.8-11.7-0.4-17.3,1.1
	c-1.7-12.6-11.2-22.8-23.6-25.5c-3.5-25.2-26.7-42.8-51.9-39.3s-42.8,26.7-39.3,51.9s26.7,42.8,51.9,39.3c3.4-0.5,6.8-1.3,10-2.6
	c5.3,6.1,12.8,9.9,20.8,10.4c-3.9,20.2,6.6,40.4,25.4,48.7c-27.8,37.9-19.6,91.2,18.3,119c14.6,10.7,32.3,16.5,50.4,16.5
	c43.5,0,84.7,2.2,89.8-40c5.2,2.4,10.7,3.9,16.4,4.3l46.2,85.2c4.2-14.5,2.7-29.9-4-43.4c-0.5-1-1.1-2-1.7-3
	c14-1.4,26.8-8.4,35.6-19.4c5.1-0.2,10.6-0.4,16.3-0.4c14.1,0,27.8-4.3,39.3-12.4c25.2,19.4,61.4,14.6,80.7-10.6
	c2.5-3.3,4.7-6.9,6.5-10.7c25.9,18.6,62,12.7,80.6-13.1c1.5-2.1,2.8-4.2,4-6.5c5.8,5,13.3,7.8,21,7.8c2.2,0,4.3-0.2,6.5-0.7
	c-15.9,33.8-1.4,74.1,32.3,90c26.9,12.7,58.8,6.3,78.8-15.6L1227.1,1050z"/>
<polygon class="st10" points="875.5,1145.7 789.2,1145.7 784.3,853.8 880.5,853.8 "/>
<polygon class="st11" points="848.1,1145.7 816.6,1145.7 807.6,853.8 857.1,853.8 "/>
<path class="st9" d="M633.7,914.9c5,0,9.1-4.1,9.1-9.1s-4.1-9.1-9.1-9.1s-9.1,4.1-9.1,9.1S628.6,914.9,633.7,914.9L633.7,914.9z"/>
<path class="st9" d="M1182.9,1058.2c7.8,0,14.1-6.3,14.1-14.1c0-7.8-6.3-14.1-14.1-14.1c-7.8,0-14.1,6.3-14.1,14.1l0,0
	C1168.8,1051.9,1175.2,1058.2,1182.9,1058.2L1182.9,1058.2z"/>
<path class="st9" d="M1143.8,917c4.7,0,8.6-3.8,8.6-8.6s-3.8-8.6-8.6-8.6c-4.7,0-8.6,3.8-8.6,8.6l0,0
	C1135.2,913.1,1139.1,917,1143.8,917z"/>
<circle class="st9" cx="1042.4" cy="925.8" r="26.5"/>
<path class="st9" d="M1230.2,1018.4c10.8,0,19.6-8.8,19.6-19.6s-8.8-19.6-19.6-19.6c-10.8,0-19.6,8.8-19.6,19.6l0,0
	C1210.6,1009.7,1219.3,1018.4,1230.2,1018.4z"/>
<path class="st9" d="M541.5,837c8,0,14.5-6.5,14.5-14.5s-6.5-14.5-14.5-14.5s-14.5,6.5-14.5,14.5l0,0C527,830.5,533.5,837,541.5,837
	z"/>
<path class="st12" d="M894.2,870.3H771.4c-1.6,0-2.9-1.3-2.9-2.9v-26.3l64.3-19.3l64.2,19.3v26.3
	C897.1,869.1,895.8,870.3,894.2,870.3z"/>
<path class="st13" d="M924,811.9V940c0,11.4,7.3,18,18.3,17.9c32.1-1.2,52.4-27.8,56.2-51.6l16.5-159.1c5.3-40.3-18.1-72-56.1-88
	l-24.2-3.7L924,811.9z"/>
<g class="st14">
	<path class="st15" d="M959.1,659.2l-24.1-3.7l-1,13.7l21.1-2.1c61.4,26,57.7,76.4,51.2,161.7l8.8-81.6
		C1020.5,706.9,997.1,675.3,959.1,659.2z"/>
</g>
<path class="st16" d="M751.9,376.4c-32.2,113.1-23.2,265.7-3.5,435.4h169.1c19.6-169.7,28.6-322.3-3.5-435.4H751.9z"/>
<path class="st17" d="M810.5,811.9h-62.2C738,722.6,730.6,638,730.6,561.5c0-69,6-131.5,21.2-185.1h38.5c-3.7,19-5.2,46.3-3.1,64.7
	c9-0.2,32.2-38.1,42.9-39.5c-6.7,37.4,3.2,86.6,2.6,127.7C765.2,529.3,795.4,648.2,810.5,811.9z"/>
<rect x="730.6" y="552.3" class="st13" width="204.5" height="1.8"/>
<g class="st18">
	<path class="st19" d="M914.2,376c0,0.1,0.1,0.3,0.1,0.4c32.2,113.1,23.2,265.8,3.5,435.4H896c19.6-169.7,36-322.3,3.8-435.4
		c0-0.1-0.1-0.3-0.1-0.4H914.2z"/>
</g>
<polygon class="st20" points="897.2,841.1 768.5,841.1 756.1,811.8 909.7,811.8 "/>
<path class="st13" d="M741.6,811.9V940c0,11.4-7.3,18-18.3,17.9c-32.1-1.2-52.4-27.8-56.2-51.6l-16.5-159.1c-5.3-40.3,18.1-72,56-88
	l24.2-3.7L741.6,811.9z"/>
<g class="st21">
	<path class="st13" d="M706.6,659.2l24.2-3.7l0.9,13.7l-21.1,10.3c-48.6,18-51.3,101.3-48.5,179.4l-11.6-111.7
		C645.3,706.9,668.7,675.3,706.6,659.2z"/>
</g>
<path class="st22" d="M752.3,811.9h-30.2l-16.3-160.7c-2.3-15.8,9.9-29.8,26.1-32.5c4.5,6.4,6.5,17.3,7.3,30.7L752.3,811.9z"/>
<path class="st22" d="M913.3,811.9h30.2l16.3-160.7c2.3-15.8-9.9-29.8-26.1-32.5c-4.5,6.4-6.5,17.3-7.3,30.7L913.3,811.9z"/>
<path class="st22" d="M802.4,650.3l8.1,161.5h44.7l8.1-161.5c0.8-16.6-12-30.8-28.6-31.6c-0.5,0-1,0-1.5,0h-0.6
	c-16.7,0-30.2,13.5-30.2,30.2C802.4,649.3,802.4,649.8,802.4,650.3z"/>
<path class="st22" d="M825.5,270c-38.3,28.5-63.5,63.6-73.7,106.4h162c-10.2-42.7-35.3-77.9-73.7-106.4H825.5z"/>
<polygon class="st16" points="832.9,171 832.9,170.8 825.5,270 840.2,270 832.9,170.8 "/>
<rect x="745.8" y="729.6" class="st13" width="59.9" height="1.8"/>
<rect x="860" y="729.6" class="st13" width="59.8" height="1.8"/>
<path class="st13" d="M762.6,382.1c-0.3,1.4,0.2,2.7,1,2.9s1.7-0.9,2-2.3s-0.2-2.7-1-2.9S762.8,380.7,762.6,382.1z"/>
<path class="st13" d="M785.2,382.3c-0.1,1.4,0.5,2.6,1.3,2.7s1.6-1.1,1.7-2.5s-0.5-2.6-1.3-2.7S785.3,380.9,785.2,382.3z"/>
<path class="st13" d="M815.7,382.4c0.1,1.4,1.2,2.4,2.6,2.3c1.4-0.1,2.4-1.2,2.3-2.6c-0.1-1.3-1.2-2.3-2.5-2.3
	C816.7,379.9,815.6,381,815.7,382.4z"/>
<path class="st13" d="M902.8,382.1c0.3,1.4-0.2,2.7-1,2.9s-1.7-0.9-2-2.3s0.2-2.7,1-2.9S902.5,380.7,902.8,382.1z"/>
<path class="st13" d="M880.7,381.8c0.1,1.4-0.5,2.6-1.3,2.7s-1.6-1-1.7-2.5s0.5-2.6,1.3-2.7S880.6,380.4,880.7,381.8z"/>
<path class="st13" d="M851.5,382.4c0,1.4-1.1,2.5-2.5,2.5h-0.1c-1.4,0-2.6-1.2-2.6-2.6s1.1-2.5,2.4-2.5h0.1
	C850.3,379.8,851.5,381,851.5,382.4z"/>
<path class="st13" d="M756,725c0,1.4,0.8,2.6,1.8,2.6s1.8-1.2,1.8-2.6s-0.8-2.6-1.8-2.6S756,723.6,756,725z"/>
<ellipse class="st13" cx="759" cy="737.3" rx="1.8" ry="2.6"/>
<path class="st13" d="M784.3,725c0.2,1.2,1.3,2.1,2.6,1.9c1.2-0.2,2.1-1.3,1.9-2.6c-0.2-1.1-1.1-1.9-2.2-1.9
	C785.2,722.5,784.2,723.7,784.3,725z"/>
<ellipse class="st13" cx="787.7" cy="737.3" rx="2.2" ry="2.6"/>
<path class="st13" d="M910,725c0,1.4-0.8,2.6-1.8,2.6s-1.8-1.2-1.8-2.6s0.8-2.6,1.8-2.6S910,723.6,910,725z"/>
<ellipse class="st13" cx="907" cy="737.3" rx="1.8" ry="2.6"/>
<path class="st13" d="M881.7,725c-0.2,1.2-1.3,2-2.6,1.9c-1.2-0.2-2-1.3-1.9-2.6c0.2-1.1,1.1-1.9,2.2-1.9
	C880.8,722.5,881.8,723.7,881.7,725z"/>
<ellipse class="st13" cx="878.3" cy="737.3" rx="2.2" ry="2.6"/>
<path class="st13" d="M747.3,547.4c0,1.4,0.7,2.6,1.5,2.6s1.5-1.2,1.5-2.6s-0.7-2.6-1.5-2.6S747.3,545.9,747.3,547.4z"/>
<path class="st13" d="M774.9,547.4c0,1.4,0.8,2.6,1.8,2.6s1.8-1.2,1.8-2.6s-0.8-2.6-1.8-2.6S774.9,545.9,774.9,547.4z"/>
<path class="st13" d="M810.8,547.4c0.2,1.2,1.3,2,2.6,1.9c1.2-0.2,2-1.3,1.9-2.6c-0.2-1.1-1.1-1.9-2.2-1.9
	C811.7,544.9,810.7,546.1,810.8,547.4z"/>
<path class="st13" d="M919.2,547.4c0,1.4-0.7,2.6-1.5,2.6s-1.5-1.2-1.5-2.6s0.7-2.6,1.5-2.6S919.2,545.9,919.2,547.4z"/>
<path class="st13" d="M891.6,547.4c0,1.4-0.8,2.6-1.8,2.6s-1.8-1.2-1.8-2.6s0.8-2.6,1.8-2.6S891.6,545.9,891.6,547.4z"/>
<ellipse class="st13" cx="853.5" cy="547.4" rx="2.2" ry="2.6"/>
<path class="st13" d="M747.3,560.7c0,1.4,0.7,2.6,1.5,2.6s1.5-1.2,1.5-2.6s-0.7-2.6-1.5-2.6S747.3,559.2,747.3,560.7z"/>
<path class="st13" d="M774.9,560.7c0,1.4,0.8,2.6,1.8,2.6s1.8-1.2,1.8-2.6s-0.8-2.6-1.8-2.6S774.9,559.2,774.9,560.7z"/>
<path class="st13" d="M810.8,560.7c0.2,1.2,1.3,2,2.6,1.9c1.2-0.2,2-1.3,1.9-2.6c-0.2-1.1-1.1-1.9-2.2-1.9
	C811.7,558.2,810.7,559.3,810.8,560.7z"/>
<path class="st13" d="M919.2,560.7c0,1.4-0.7,2.6-1.5,2.6s-1.5-1.2-1.5-2.6s0.7-2.6,1.5-2.6S919.2,559.2,919.2,560.7z"/>
<path class="st13" d="M891.6,560.7c0,1.4-0.8,2.6-1.8,2.6s-1.8-1.2-1.8-2.6s0.8-2.6,1.8-2.6S891.6,559.2,891.6,560.7z"/>
<path class="st13" d="M855.7,560.7c-0.2,1.2-1.3,2-2.6,1.9c-1.2-0.2-2-1.3-1.9-2.6c0.2-1.1,1.1-1.9,2.2-1.9
	C854.8,558.2,855.8,559.3,855.7,560.7z"/>
<path class="st20" d="M824.2,902.8h17.4v56.8c0,1.3-1,2.3-2.3,2.3l0,0h-12.8c-1.3,0-2.3-1-2.3-2.3L824.2,902.8L824.2,902.8z"/>
<path class="st23" d="M826.5,657.7h12.8c1.3,0,2.3,1,2.3,2.3l0,0v56.9h-17.4V660C824.2,658.7,825.2,657.7,826.5,657.7z"/>
<rect x="824.2" y="716.8" class="st13" width="17.4" height="186"/>
<g class="st24">
	<path class="st25" d="M808.1,631.1c-4,5.6-6.1,12.3-5.7,19.2l8.1,161.5h13.7V657.7C824.2,657.7,818.1,647.7,808.1,631.1z"/>
</g>
<path class="st15" d="M847.2,626.6c-6-3.9-12.2-5.1-13.9-2.6s1.9,7.8,7.9,11.7s12.2,5.1,13.9,2.6S853.2,630.5,847.2,626.6z"/>
<path class="st15" d="M947.8,628.2c-3.3-2.8-7.1-3.7-8.5-2.1s0.2,5.2,3.5,8s7.1,3.7,8.5,2.1S951.1,631,947.8,628.2z"/>
<path class="st25" d="M741.6,811.9h-19.5l-16.3-160.7c-1.8-12.5,5.4-23.9,16.6-29.5L741.6,811.9z"/>
<path class="st26" d="M924,811.9h19.5l16.3-160.7c1.8-12.5-5.4-23.9-16.6-29.5L924,811.9z"/>
<path class="st25" d="M825.5,270c-20.5,26.6-28,63.7-35.1,106.4h-38.5C762,333.7,787.2,298.5,825.5,270z"/>
<polygon class="st17" points="832.9,170.8 832.9,171 832.9,170.8 825.5,270 832.9,270 832.9,171.3 "/>
<path class="st13" d="M765.7,370.1c-0.3,1.4,0.2,2.7,1,2.8s1.7-0.9,2-2.3s-0.2-2.7-1-2.8S766,368.7,765.7,370.1z"/>
<path class="st13" d="M787.3,370.2c-0.1,1.4,0.5,2.6,1.3,2.7s1.6-1,1.7-2.5s-0.5-2.6-1.3-2.7S787.4,368.8,787.3,370.2z"/>
<path class="st13" d="M815.8,370.3c0.1,1.3,1.3,2.2,2.6,2c1.3-0.1,2.2-1.3,2-2.6c-0.1-1.2-1.1-2-2.3-2.1
	C816.8,367.8,815.7,369,815.8,370.3z"/>
<path class="st13" d="M901,370.1c0.3,1.4-0.2,2.7-1,2.8s-1.7-0.9-2-2.3s0.2-2.7,1-2.8S900.7,368.7,901,370.1z"/>
<path class="st13" d="M879.4,370.2c0.1,1.4-0.5,2.6-1.3,2.7s-1.6-1-1.7-2.5s0.5-2.6,1.3-2.7S879.3,368.8,879.4,370.2z"/>
<path class="st13" d="M851,370.3c0,1.4-1,2.6-2.4,2.6c0,0,0,0-0.1,0c-1.4,0-2.6-1.2-2.6-2.6s1-2.5,2.4-2.6h0.1
	C849.8,367.8,851,368.9,851,370.3z"/>
<polygon class="st27" points="924,940 943.5,811.9 924,811.9 "/>
<polygon class="st27" points="741.5,940 722,811.9 741.5,811.9 "/>
<path class="st28" d="M872.8,510c11,0,35.6-25.5,23.7-104.2c-9.3-61.5-34-106.9-49-104.3s-27.6,93.3-17.8,149.7S861.8,510,872.8,510
	z"/>
<ellipse transform="matrix(0.7071 -0.7071 0.7071 0.7071 -85.1484 725.2511)" class="st13" cx="832.9" cy="465.4" rx="63.9" ry="63.9"/>
<path class="st4" d="M880.8,465.5c0,26.5-21.5,48-48,48s-48-21.5-48-48s21.5-48,48-48l0,0c26.5,0,47.9,21.4,48,47.9
	C880.8,465.4,880.8,465.4,880.8,465.5z"/>
<path class="st29" d="M867.3,475.9c0,11.9-4.4,23.3-12.3,32.1c-23.5,12.2-52.4,3-64.7-20.5c-9.2-17.7-6.5-39.3,6.9-54.2
	c6.8-3.6,14.4-5.4,22.1-5.4C845.8,428,867.3,449.4,867.3,475.9z"/>
<path class="st15" d="M835.5,522.1c0-1.4-1.2-2.6-2.6-2.6c-1.4,0-2.6,1.2-2.6,2.6s1.2,2.6,2.6,2.6l0,0
	C834.3,524.7,835.4,523.6,835.5,522.1L835.5,522.1z"/>
<path class="st15" d="M835.5,408.8c0-1.4-1.2-2.6-2.6-2.6c-1.4,0-2.6,1.2-2.6,2.6s1.2,2.6,2.6,2.6l0,0
	C834.3,411.4,835.5,410.2,835.5,408.8z"/>
<path class="st15" d="M776.2,468c1.4,0,2.6-1.2,2.6-2.6s-1.2-2.6-2.6-2.6c-1.4,0-2.6,1.2-2.6,2.6l0,0
	C773.6,466.9,774.7,468,776.2,468C776.1,468,776.2,468,776.2,468z"/>
<circle class="st15" cx="889.5" cy="465.4" r="2.6"/>
<path class="st15" d="M794.6,507.4c1-1,1-2.7,0-3.7s-2.7-1-3.7,0s-1,2.7,0,3.7l0,0C791.9,508.4,793.6,508.4,794.6,507.4z"/>
<circle class="st15" cx="872.9" cy="425.4" r="2.6"/>
<path class="st15" d="M790.9,427.2c1,1,2.7,1,3.7,0s1-2.7,0-3.7s-2.7-1-3.7,0l0,0C789.9,424.5,789.9,426.2,790.9,427.2L790.9,427.2z
	"/>
<path class="st15" d="M871.1,507.4c1,1,2.7,1,3.7,0s1-2.7,0-3.7s-2.7-1-3.7,0C870.1,504.7,870.1,506.4,871.1,507.4z"/>
<path class="st15" d="M857,516.8c-0.5-1.3-2.1-2-3.4-1.4c-1.3,0.5-2,2.1-1.4,3.4c0.5,1.3,2.1,2,3.4,1.4l0,0
	C856.9,519.7,857.5,518.2,857,516.8z"/>
<path class="st15" d="M813.6,412.1c-0.6-1.3-2.1-2-3.4-1.4s-2,2.1-1.4,3.4c0.5,1.3,2.1,2,3.4,1.4S814.1,413.4,813.6,412.1
	L813.6,412.1z"/>
<path class="st15" d="M781.5,489.5c1.3-0.5,2-2.1,1.4-3.4c-0.5-1.3-2.1-2-3.4-1.4c-1.3,0.5-2,2.1-1.4,3.4l0,0
	C778.6,489.5,780.1,490.1,781.5,489.5z"/>
<path class="st15" d="M886.2,446.2c1.3-0.5,2-2.1,1.4-3.4c-0.5-1.3-2.1-2-3.4-1.4c-1.3,0.5-2,2.1-1.4,3.4l0,0
	C883.4,446.1,884.9,446.7,886.2,446.2z"/>
<path class="st15" d="M813.6,518.8c0.5-1.3-0.1-2.8-1.4-3.4c-1.3-0.5-2.8,0.1-3.4,1.4c-0.5,1.3,0.1,2.8,1.4,3.4
	C811.5,520.8,813,520.2,813.6,518.8L813.6,518.8z"/>
<path class="st15" d="M857,414.1c0.5-1.3-0.1-2.8-1.4-3.4c-1.3-0.5-2.8,0.1-3.4,1.4c-0.5,1.3,0.1,2.8,1.4,3.4
	C854.9,416,856.4,415.4,857,414.1L857,414.1z"/>
<path class="st15" d="M779.5,446.2c1.3,0.6,2.8-0.1,3.4-1.4c0.6-1.3-0.1-2.8-1.4-3.4c-1.3-0.6-2.8,0.1-3.4,1.4
	C777.5,444.1,778.2,445.6,779.5,446.2L779.5,446.2z"/>
<path class="st15" d="M884.2,489.5c1.3,0.5,2.8-0.1,3.4-1.4c0.5-1.3-0.1-2.8-1.4-3.4c-1.3-0.5-2.8,0.1-3.4,1.4
	C882.3,487.5,882.9,489,884.2,489.5L884.2,489.5z"/>
<path class="st13" d="M913.4,376.9H752.3c-0.5-0.1-0.8-0.5-0.8-1c0-0.4,0.4-0.7,0.8-0.8h161.1c0.5-0.1,0.9,0.3,1,0.8s-0.3,0.9-0.8,1
	C913.5,376.9,913.4,376.9,913.4,376.9z"/>
<path class="st15" d="M806.5,479.4c2.5,6.1,1.8,12.1-1.6,13.5s-8.1-2.4-10.6-8.5s-1.8-12.1,1.6-13.5S804,473.4,806.5,479.4z"/>
<circle class="st16" cx="1113.9" cy="908.4" r="26.5"/>
<path class="st16" d="M1333.8,1133.7c0,7.8-6.3,14.1-14.1,14.1c-7.8,0-14.1-6.3-14.1-14.1c0-7.8,6.3-14.1,14.1-14.1l0,0
	C1327.5,1119.6,1333.8,1125.9,1333.8,1133.7z"/>
<path class="st16" d="M1045.8,1007.3c0,7.8-6.3,14.1-14.1,14.1c-7.8,0-14.1-6.3-14.1-14.1s6.3-14.1,14.1-14.1l0,0
	C1039.5,993.2,1045.8,999.5,1045.8,1007.3L1045.8,1007.3z"/>
<circle class="st16" cx="382.3" cy="1082.8" r="7.5"/>
<circle class="st16" cx="363.9" cy="1125.2" r="11"/>
<path class="st16" d="M1305.7,1007.3c0,5.4-4.4,9.7-9.7,9.7s-9.7-4.4-9.7-9.7c0-5.4,4.4-9.7,9.7-9.7
	C1301.3,997.6,1305.7,1001.9,1305.7,1007.3L1305.7,1007.3z"/>
<path class="st16" d="M1102.1,822.4c0,5.4-4.3,9.7-9.7,9.7c-5.4,0-9.7-4.3-9.7-9.7s4.3-9.7,9.7-9.7l0,0
	C1097.8,812.7,1102.1,817.1,1102.1,822.4z"/>
<path class="st16" d="M506.3,878.2c0,6-4.9,10.9-10.9,10.9s-10.9-4.9-10.9-10.9s4.9-10.9,10.9-10.9l0,0
	C501.4,867.4,506.3,872.2,506.3,878.2z"/>
<path class="st16" d="M1265.4,1135.2c3.8,9.1,5.7,18.8,5.7,28.6c0,40.9-33.1,74-73.9,74.1c-11.6,0-23-2.7-33.4-7.9
	c-25.5,36.3-75.6,45.1-111.9,19.6c-3.3-2.3-6.4-4.8-9.3-7.6c-23.2,54.7-86.5,80.3-141.2,57c-19.2-8.1-35.6-21.7-47.2-38.9
	c-7.5,2.6-15.4,4-23.3,4c-5.3,0-10.5-0.6-15.7-1.8c-18.8,30.1-58.4,39.2-88.5,20.4c-5.2-3.2-9.9-7.2-14-11.8
	c-33.6,25.2-81.2,18.3-106.4-15.3c-0.9-1.3-1.9-2.6-2.7-3.9c-18-1.5-35.3-8.1-49.8-18.9c-43.3,32.6-104.9,24-137.6-19.3
	c-32.4-43-24.2-104,18.4-136.9c-38.3-17-55.5-61.9-38.4-100.1s62-55.5,100.3-38.5c12.8,5.7,23.8,14.9,31.7,26.5
	c36.8-16.3,79.9,0.3,96.2,37.1c7.7,17.4,8.3,37.1,1.7,54.9c31.5,4.5,58.8,23.8,73.5,52c5.9-1.7,12-2.5,18.1-2.5
	c4.1,0,8.1,0.4,12.1,1.1c-6.8-27.6,18.6-51.9,46.5-42.7c10.3,3.4,18.3,11.4,21.7,21.7c4.8,14.5,0.5,28.3-8.6,37.3
	c3.5,0.6,6.7,2.1,9.5,4.2c20.3-10.2,44.2-10.1,64.4,0.2c20.4-22.8,49.5-35.8,80.1-35.8c0.7,0,1.3,0,1.9,0.1
	c7.3-25.3,33.7-39.9,59-32.6c6.2,1.8,11.9,4.8,16.9,8.8c10.5-18.2,28-31.3,48.5-36c0-0.3-0.1-0.7-0.1-1
	c-0.1-40.9,32.9-74.1,73.8-74.2c30.7-0.1,58.3,18.8,69.3,47.4c1.7-0.2,3.4-0.3,5.1-0.3c40.9-0.1,74.1,33,74.2,73.8
	C1292.1,1100.2,1282.3,1121.1,1265.4,1135.2L1265.4,1135.2z"/>
<path class="st30" d="M1271.1,1163.8c0,40.9-33.1,74-73.9,74.1c-11.6,0-23-2.7-33.4-7.9c-25.5,36.3-75.6,45.1-111.9,19.6
	c-3.3-2.3-6.4-4.8-9.3-7.6c-23.2,54.7-86.5,80.3-141.2,57c-19.2-8.1-35.6-21.7-47.2-38.9c-7.5,2.6-15.4,4-23.3,4
	c-5.3,0-10.5-0.6-15.7-1.8c-18.8,30.1-58.4,39.2-88.5,20.4c-5.2-3.2-9.9-7.2-14-11.8c-33.6,25.2-81.2,18.3-106.4-15.3
	c-0.9-1.3-1.9-2.6-2.7-3.9c-18-1.5-35.3-8.1-49.8-18.9c-43.3,32.6-104.9,24-137.6-19.3c-32.4-43-24.2-104,18.4-136.9
	c-32-14.3-50.1-48.7-43.7-83.2c9.2,30,33,53.2,63.2,61.8c-19,49.4,5.8,104.9,55.2,123.8c14,5.4,29.1,7.4,44,5.9
	c12.8,22.2,38.7,33.2,63.7,27.2c17.4,23.8,50.9,29,74.7,11.6c5.8-4.3,10.7-9.6,14.4-15.8c25.4,17,59.3,13.7,81-7.8
	c17.6,19.7,47.6,22.3,68.3,5.9c37.4,39.9,100.1,41.9,140,4.5c5-4.7,9.5-9.9,13.4-15.5c38.9,26.5,90.4,24.8,127.5-4.3
	c48.5,15.1,101.2-0.5,133.6-39.6C1270.7,1155.3,1271.1,1159.5,1271.1,1163.8z"/>
<path class="st16" d="M1241.4,925.8c0,13-10.5,23.5-23.5,23.5s-23.5-10.5-23.5-23.5s10.5-23.5,23.5-23.5l0,0
	C1230.9,902.3,1241.4,912.9,1241.4,925.8z"/>
<path class="st16" d="M447,905.7c0,7.2-5.8,13-13,13s-13-5.8-13-13s5.8-13,13-13C441.1,892.7,447,898.5,447,905.7L447,905.7z"/>
<path class="st16" d="M338.4,973.1c0,7.2-5.8,13-13,13s-13-5.8-13-13s5.8-13,13-13l0,0C332.6,960.1,338.4,965.9,338.4,973.1z"/>
<circle class="st16" cx="1233.2" cy="1049.5" r="7.8"/>
<path class="st16" d="M1060.2,867.3c0,5-4,9-9,9s-9-4-9-9s4-9,9-9l0,0C1056.2,858.3,1060.2,862.3,1060.2,867.3z"/>
<path class="st16" d="M612.5,875.2c0,11.8-9.6,21.4-21.4,21.4c-11.8,0-21.4-9.6-21.4-21.4c0-11.8,9.6-21.4,21.4-21.4l0,0
	C603,853.8,612.5,863.4,612.5,875.2z"/>
<path class="st16" d="M642.7,944c0,5-4,9-9,9s-9-4-9-9s4-9,9-9C638.7,934.9,642.7,938.9,642.7,944
	C642.7,943.9,642.7,943.9,642.7,944z"/>
<circle class="st16" cx="704.2" cy="1044.8" r="13.4"/>
<path class="st16" d="M871.5,1089.7c0,3.8-3.1,6.9-6.9,6.9s-6.9-3.1-6.9-6.9s3.1-6.9,6.9-6.9l0,0
	C868.4,1082.8,871.5,1085.9,871.5,1089.7L871.5,1089.7z"/>
<path class="st16" d="M770.5,977.7c0,2.6-2.1,4.6-4.6,4.6s-4.6-2.1-4.6-4.6s2.1-4.6,4.6-4.6l0,0C768.5,973,770.5,975.1,770.5,977.7z
	"/>
<circle class="st16" cx="975" cy="1030" r="11"/>
<path class="st16" d="M910.6,1055.6c0,6.1-4.9,11-11,11s-11-4.9-11-11s4.9-11,11-11S910.6,1049.5,910.6,1055.6L910.6,1055.6z"/>
<path class="st31" d="M1567.4,1518.2H35.2c-21.4,0-38.7-17.3-38.7-38.7V34.3c0-21.4,17.3-38.7,38.7-38.7h1532.2
	c21.4,0,38.7,17.3,38.7,38.7v1445.2C1606.1,1500.9,1588.8,1518.2,1567.4,1518.2z"/>
</svg>
