<?xml version="1.0" encoding="utf-8"?>
<!-- Generator: Adobe Illustrator 25.0.0, SVG Export Plug-In . SVG Version: 6.00 Build 0)  -->
<svg version="1.1" id="Layer_1" xmlns="http://www.w3.org/2000/svg" xmlns:xlink="http://www.w3.org/1999/xlink" x="0px" y="0px"
	 viewBox="0 0 463.9 439.3" style="enable-background:new 0 0 463.9 439.3;" xml:space="preserve">
<style type="text/css">
	.st0{fill:#05101F;}
	.st1{fill-rule:evenodd;clip-rule:evenodd;fill:#62558F;}
	.st2{fill-rule:evenodd;clip-rule:evenodd;fill:#E48026;}
	.st3{fill-rule:evenodd;clip-rule:evenodd;fill:#FCBE75;}
	.st4{fill-rule:evenodd;clip-rule:evenodd;fill:#81E6D9;}
	.st5{fill-rule:evenodd;clip-rule:evenodd;fill:#F05F22;}
	.st6{fill-rule:evenodd;clip-rule:evenodd;fill:#E14825;}
	.st7{fill-rule:evenodd;clip-rule:evenodd;fill:#BF3425;}
	.st8{fill:none;stroke:#FFFFFF;stroke-width:8.851;stroke-miterlimit:10;}
</style>
<rect x="5.4" y="5.5" class="st0" width="451.4" height="425.3"/>
<path class="st1" d="M78.3,188.9c0,0-0.2-1.5-0.9-1.8c-0.8-0.3-1.1-0.2-1.6,0.1s-0.7,1.4-0.3,2.3c0.2,0.7,0.8,1.1,1.4,1
	c0.4-0.1,0.5,0,0.8-0.2C77.9,190.3,78.3,189.4,78.3,188.9z M456.8,281.6v4.4c-0.2-0.1-0.4-0.2-0.6-0.3c-0.6-0.5-0.8-1.8-0.4-2.9
	C455.9,282.3,456.3,281.9,456.8,281.6L456.8,281.6z M366.4,429.8h-1.8c0-0.1,0-0.2,0.1-0.3c0.1-0.4,0.5-0.7,0.9-0.7
	c0.3,0,0.3,0,0.5,0.1C366.3,429.3,366.4,429.5,366.4,429.8L366.4,429.8z M72.5,429.8h-1.9C71.1,429.5,71.6,429.5,72.5,429.8
	L72.5,429.8z M5.1,340.1v-0.3C5.2,339.9,5.2,340,5.1,340.1z M5.1,32.9v-0.3C5.2,32.7,5.2,32.8,5.1,32.9z M361.3,174.1
	c0,0-0.2,1.5-0.9,1.8c-0.8,0.3-1.1,0.2-1.6-0.1c-0.5-0.4-0.7-1.4-0.3-2.3c0.2-0.7,0.8-1.1,1.4-1.1c0.4,0.1,0.5,0,0.8,0.2
	S361.3,173.6,361.3,174.1z M373.9,140.3c0,0-0.3,2.7-1.7,3.2s-2.1,0.4-3-0.3c-0.9-0.7-1.2-2.6-0.6-4.2c0.6-1.6,1.9-2,2.7-2
	c0.8,0.1,1,0,1.5,0.4C373.2,137.8,374.1,139.4,373.9,140.3L373.9,140.3z M366.2,60.4c0,0-0.3,2.7-1.7,3.2s-2.1,0.4-3-0.3
	c-0.9-0.7-1.2-2.6-0.6-4.3c0.6-1.6,1.9-2,2.6-2s1,0,1.5,0.4C365.5,57.9,366.4,59.5,366.2,60.4L366.2,60.4z M362.9,51.4
	c0,0-0.2,1.8-1.2,2.1c-0.9,0.3-1.4,0.3-2-0.2s-0.8-1.8-0.4-2.9c0.3-0.8,1-1.4,1.8-1.3c0.5,0.1,0.7,0,1,0.3
	C362.5,49.7,363.1,50.8,362.9,51.4L362.9,51.4z M334.8,75.5c0,0-0.2,1.8-1.2,2.1c-0.9,0.3-1.4,0.3-2-0.2s-0.8-1.8-0.4-2.9
	c0.3-0.8,1-1.4,1.8-1.3c0.5,0.1,0.7,0,1,0.3S334.9,74.9,334.8,75.5L334.8,75.5z M322.2,25c0,0-0.3,1.7-1.6,2
	c-1.3,0.3-1.9,0.3-2.7-0.2c-0.8-0.4-1-1.7-0.5-2.7c0.5-1,1.7-1.3,2.4-1.2s0.9,0,1.3,0.3S322.4,24.4,322.2,25L322.2,25z M239.4,76.8
	c0,0-0.2,1.8-1.2,2.1c-0.9,0.3-1.4,0.3-2-0.2c-0.6-0.5-0.8-1.8-0.4-2.9c0.3-0.8,1-1.4,1.8-1.3c0.5,0.1,0.7,0,1,0.3
	C238.9,75.1,239.5,76.2,239.4,76.8L239.4,76.8z M243.1,89.7c0,0-0.1,0.9-0.6,1.1c-0.5,0.2-0.7,0.1-1-0.1c-0.3-0.2-0.4-0.9-0.2-1.4
	c0.1-0.4,0.5-0.7,0.9-0.7c0.3,0,0.3,0,0.5,0.1C242.9,88.9,243.2,89.4,243.1,89.7L243.1,89.7z M238.5,66.4c0,0-0.1,0.9-0.6,1.1
	c-0.5,0.2-0.7,0.1-1-0.1c-0.3-0.2-0.4-0.9-0.2-1.4c0.1-0.4,0.5-0.7,0.9-0.7c0.3,0,0.3,0,0.5,0.1C238.3,65.5,238.5,66,238.5,66.4
	L238.5,66.4z M355.1,97c0,0-0.1,0.9-0.6,1.1c-0.5,0.2-0.7,0.1-1-0.1c-0.3-0.2-0.4-0.9-0.2-1.4c0.1-0.4,0.5-0.7,0.9-0.7
	c0.3,0,0.3,0,0.5,0.1C354.9,96.2,355.2,96.7,355.1,97z M377,98.4c0,0-0.1,0.9-0.6,1.1c-0.5,0.2-0.7,0.1-1-0.1
	c-0.3-0.2-0.4-0.9-0.2-1.4c0.1-0.4,0.5-0.7,0.9-0.7c0.3,0,0.3,0,0.5,0.1C376.8,97.6,377.1,98.1,377,98.4z M366.4,122.8
	c0,0-0.1,0.9-0.6,1.1c-0.5,0.2-0.7,0.1-1-0.1c-0.3-0.2-0.4-0.9-0.2-1.4c0.1-0.4,0.5-0.7,0.9-0.7c0.3,0,0.3,0,0.5,0.1
	C366.3,122,366.5,122.5,366.4,122.8L366.4,122.8z M284.6,113.2c0,0-0.2,1.8-1.2,2.1s-1.4,0.3-2-0.2c-0.6-0.5-0.8-1.8-0.4-2.9
	c0.3-0.8,1-1.4,1.8-1.3c0.5,0.1,0.7,0,1,0.3S284.8,112.6,284.6,113.2L284.6,113.2z M301,90.4c0,0-0.1,0.9-0.6,1.1s-0.7,0.1-1-0.1
	c-0.3-0.2-0.4-0.9-0.2-1.4c0.1-0.4,0.5-0.7,0.9-0.7c0.3,0,0.3,0,0.5,0.1C300.8,89.6,301,90.1,301,90.4z M269.3,146.7
	c0,0-0.1,0.9-0.6,1.1c-0.5,0.2-0.7,0.1-1-0.1c-0.3-0.2-0.4-0.9-0.2-1.4c0.1-0.4,0.5-0.7,0.9-0.7c0.3,0,0.3,0,0.5,0.1
	C269,145.9,269.3,146.4,269.3,146.7L269.3,146.7z M327,157.9c0,0-0.1,0.9-0.6,1.1c-0.5,0.2-0.7,0.1-1-0.1c-0.3-0.2-0.4-0.9-0.2-1.4
	c0.1-0.4,0.5-0.7,0.9-0.7c0.3,0,0.3,0,0.5,0.1C326.9,157.1,327.1,157.6,327,157.9z M243,135.9c0,0-0.1,0.9-0.6,1.1
	c-0.5,0.2-0.7,0.1-1-0.1c-0.3-0.2-0.4-0.9-0.2-1.4c0.1-0.4,0.5-0.7,0.9-0.7c0.3,0,0.3,0,0.5,0.1C242.8,135,243.1,135.6,243,135.9
	L243,135.9z M290.6,55.1c0,0-0.1,0.9-0.6,1.1c-0.5,0.2-0.7,0.1-1-0.1c-0.3-0.2-0.4-0.9-0.2-1.4c0.1-0.4,0.5-0.7,0.9-0.7
	c0.3,0,0.3,0,0.5,0.1C290.4,54.3,290.6,54.8,290.6,55.1L290.6,55.1z M323.2,53.1c0,0-0.1,0.9-0.6,1.1c-0.5,0.2-0.7,0.1-1-0.1
	c-0.3-0.2-0.4-0.9-0.2-1.4c0.1-0.4,0.5-0.7,0.9-0.7c0.3,0,0.3,0,0.5,0.1C323,52.3,323.3,52.8,323.2,53.1L323.2,53.1z M255.2,147.8
	c0,0-0.2,1.8-1.2,2.1c-0.9,0.3-1.4,0.3-2-0.2c-0.6-0.5-0.8-1.8-0.4-2.9c0.3-0.8,1-1.4,1.8-1.3c0.5,0.1,0.7,0,1,0.3
	S255.4,147.2,255.2,147.8L255.2,147.8z M303.4,171.2c0,0-0.2,1.8-1.2,2.1c-0.9,0.3-1.4,0.3-2-0.2c-0.6-0.5-0.8-1.8-0.4-2.9
	c0.3-0.8,1-1.4,1.8-1.3c0.5,0.1,0.7,0,1,0.3C302.9,169.5,303.5,170.6,303.4,171.2L303.4,171.2z M327,130.5c0,0-0.2,1.8-1.2,2.1
	c-0.9,0.3-1.4,0.3-2-0.2c-0.6-0.5-0.8-1.8-0.4-2.9c0.3-0.8,1-1.4,1.8-1.3c0.5,0.1,0.7,0,1,0.3S327.2,129.9,327,130.5L327,130.5z
	 M277.8,35.1c0,0-0.1,0.9-0.6,1.1s-0.7,0.1-1-0.1c-0.3-0.2-0.4-0.9-0.2-1.4c0.1-0.4,0.5-0.7,0.9-0.7c0.3,0,0.3,0,0.5,0.1
	C277.6,34.2,277.9,34.8,277.8,35.1z M257.1,98c0,0-0.1,0.9-0.6,1.1c-0.5,0.2-0.7,0.1-1-0.1c-0.3-0.2-0.4-0.9-0.2-1.4
	c0.1-0.4,0.5-0.7,0.9-0.7c0.3,0,0.3,0,0.5,0.1C256.8,97.2,257.1,97.7,257.1,98L257.1,98z M317.2,105.8c0,0-0.1,0.9-0.6,1.1
	c-0.5,0.2-0.7,0.1-1-0.1c-0.3-0.2-0.4-0.9-0.2-1.4c0.1-0.4,0.5-0.7,0.9-0.7c0.3,0,0.3,0,0.5,0.1C317,105,317.3,105.5,317.2,105.8
	L317.2,105.8z M291.9,145.9c0,0-0.1,0.9-0.6,1.1c-0.5,0.2-0.7,0.1-1-0.1c-0.3-0.2-0.4-0.9-0.2-1.4c0.1-0.4,0.5-0.7,0.9-0.7
	c0.3,0,0.3,0,0.5,0.1S291.9,145.6,291.9,145.9z M270,178c0,0-0.1,0.9-0.6,1.1c-0.5,0.2-0.7,0.1-1-0.1c-0.3-0.2-0.4-0.9-0.2-1.4
	c0.1-0.4,0.5-0.7,0.9-0.7c0.3,0,0.3,0,0.5,0.1C269.8,177.1,270.1,177.7,270,178z M341.1,177.3c0,0-0.1,0.9-0.6,1.1s-0.7,0.1-1-0.1
	c-0.3-0.2-0.4-0.9-0.2-1.4c0.1-0.4,0.5-0.7,0.9-0.7c0.3,0,0.3,0,0.5,0.1C340.9,176.5,341.2,177,341.1,177.3z M297.6,59.3
	c0,0-0.2,1.8-1.2,2.1c-0.9,0.3-1.4,0.3-2-0.2c-0.6-0.5-0.8-1.8-0.4-2.9c0.3-0.8,1-1.4,1.8-1.3c0.5,0.1,0.7,0,1,0.3
	C297.1,57.6,297.7,58.6,297.6,59.3L297.6,59.3z M288.1,69.8c0,0-0.3,2.5-1.6,2.9c-1.2,0.5-1.9,0.4-2.7-0.3c-0.8-0.6-1-2.4-0.5-3.8
	c0.3-1.1,1.3-1.8,2.4-1.8c0.7,0.1,0.9,0,1.3,0.4C287.5,67.5,288.2,69,288.1,69.8L288.1,69.8z M346,26.1c0,0-0.2,1.5-0.9,1.8
	s-1.1,0.2-1.6-0.1c-0.5-0.4-0.7-1.4-0.3-2.3c0.2-0.7,0.8-1.1,1.4-1.1c0.4,0.1,0.5,0,0.8,0.2C345.6,24.7,346.1,25.6,346,26.1z
	 M311.8,9.9c0,0-0.1,0.9-0.6,1.1c-0.5,0.2-0.7,0.1-1-0.1c-0.3-0.2-0.4-0.9-0.2-1.4c0.1-0.4,0.5-0.7,0.9-0.7c0.3,0,0.3,0,0.5,0.1
	S311.8,9.6,311.8,9.9z M288.1,23.2c0,0-0.2,1.8-1.2,2.1c-0.9,0.3-1.4,0.3-2-0.2s-0.8-1.8-0.4-2.9c0.3-0.8,1-1.4,1.8-1.3
	c0.5,0.1,0.7,0,1,0.3C287.7,21.5,288.3,22.6,288.1,23.2L288.1,23.2z M254.8,30c0,0-0.1,0.9-0.6,1.1c-0.5,0.2-0.7,0.1-1-0.1
	c-0.3-0.2-0.4-0.9-0.2-1.4c0.1-0.4,0.5-0.7,0.9-0.7c0.3,0,0.3,0,0.5,0.1C254.5,29.1,254.9,29.6,254.8,30L254.8,30z M325.9,29.4
	c0,0-0.1,0.9-0.6,1.1c-0.5,0.2-0.7,0.1-1-0.1c-0.3-0.2-0.4-0.9-0.2-1.4c0.1-0.4,0.5-0.7,0.9-0.7c0.3,0,0.3,0,0.5,0.1
	C325.6,28.5,325.9,29,325.9,29.4z M264.2,61.7c0,0-0.1,0.9-0.6,1.1c-0.5,0.2-0.7,0.1-1-0.1c-0.3-0.2-0.4-0.9-0.2-1.4
	c0.1-0.4,0.5-0.7,0.9-0.7c0.3,0,0.3,0,0.5,0.1C264,60.9,264.3,61.4,264.2,61.7L264.2,61.7z M241.3,33c0,0-0.3,2.7-1.7,3.2
	s-2.1,0.4-3-0.3c-0.9-0.7-1.2-2.6-0.6-4.2c0.6-1.6,1.9-2,2.7-2c0.8,0.1,1,0,1.5,0.4C240.6,30.6,241.5,32.1,241.3,33L241.3,33z
	 M251.2,55.7c0,0-0.3,2.7-1.7,3.2c-1.4,0.5-2.1,0.4-3-0.3c-0.9-0.7-1.2-2.6-0.6-4.2c0.6-1.6,1.9-2,2.6-2c0.8,0.1,1,0,1.5,0.4
	C250.5,53.3,251.3,54.8,251.2,55.7L251.2,55.7z M251.2,117.9c0,0-0.3,2.7-1.7,3.2c-1.4,0.5-2.1,0.4-3-0.3c-0.9-0.7-1.2-2.6-0.6-4.2
	s1.9-2,2.6-2c0.8,0.1,1,0,1.5,0.4C250.5,115.4,251.3,117,251.2,117.9L251.2,117.9z M248,173.6c0,0-0.3,2.7-1.7,3.2
	c-1.4,0.5-2.1,0.4-3-0.3s-1.2-2.6-0.6-4.2c0.6-1.6,1.9-2,2.6-2c0.7,0.1,1,0,1.5,0.4C247.4,171.1,248.2,172.7,248,173.6L248,173.6z
	 M343.6,115.4c0,0-0.3,2.7-1.7,3.2c-1.4,0.5-2.1,0.4-3-0.3c-0.9-0.7-1.2-2.6-0.6-4.3c0.6-1.6,1.9-2,2.7-2s1,0,1.5,0.4
	C342.9,112.9,343.8,114.5,343.6,115.4L343.6,115.4z M386.9,70.8c0,0-0.2,1.8-1.2,2.1c-0.9,0.3-1.4,0.3-2-0.2
	c-0.6-0.5-0.8-1.8-0.4-2.9c0.3-0.8,1-1.4,1.8-1.3c0.5,0.1,0.7,0,1,0.3C386.4,69.2,387,70.2,386.9,70.8L386.9,70.8z M390.7,83.7
	c0,0-0.1,0.9-0.6,1.1c-0.5,0.2-0.7,0.1-1-0.1c-0.3-0.2-0.4-0.9-0.2-1.4c0.1-0.4,0.5-0.7,0.9-0.7c0.3,0,0.3,0,0.5,0.1
	C390.5,82.9,390.7,83.4,390.7,83.7z M386,60.4c0,0-0.1,0.9-0.6,1.1c-0.5,0.2-0.7,0.1-1-0.1c-0.3-0.2-0.4-0.9-0.2-1.4
	c0.1-0.4,0.5-0.7,0.9-0.7c0.3,0,0.3,0,0.5,0.1C385.8,59.5,386.1,60.1,386,60.4z M432.1,107.2c0,0-0.2,1.8-1.2,2.1
	c-0.9,0.3-1.4,0.3-2-0.2c-0.6-0.5-0.8-1.8-0.4-2.9c0.3-0.8,1-1.4,1.8-1.3c0.5,0.1,0.7,0,1,0.3C431.7,105.5,432.3,106.6,432.1,107.2
	L432.1,107.2z M448.5,84.5c0,0-0.1,0.9-0.6,1.1s-0.7,0.1-1-0.1c-0.3-0.2-0.4-0.9-0.2-1.4c0.1-0.4,0.5-0.7,0.9-0.7
	c0.3,0,0.3,0,0.5,0.1C448.3,83.6,448.6,84.1,448.5,84.5z M416.8,140.7c0,0-0.1,0.9-0.6,1.1c-0.5,0.2-0.7,0.1-1-0.1
	c-0.3-0.2-0.4-0.9-0.2-1.4c0.1-0.4,0.5-0.7,0.9-0.7c0.3,0,0.3,0,0.5,0.1S416.9,140.4,416.8,140.7z M390.5,129.9c0,0-0.1,0.9-0.6,1.1
	c-0.5,0.2-0.7,0.1-1-0.1c-0.3-0.2-0.4-0.9-0.2-1.4c0.1-0.4,0.5-0.7,0.9-0.7c0.3,0,0.3,0,0.5,0.1
	C390.3,129.1,390.6,129.6,390.5,129.9L390.5,129.9z M438.1,49.1c0,0-0.1,0.9-0.6,1.1c-0.5,0.2-0.7,0.1-1-0.1
	c-0.3-0.2-0.4-0.9-0.2-1.4c0.1-0.4,0.5-0.7,0.9-0.7c0.3,0,0.3,0,0.5,0.1C437.9,48.3,438.2,48.8,438.1,49.1L438.1,49.1z M402.8,141.8
	c0,0-0.2,1.8-1.2,2.1c-0.9,0.3-1.4,0.3-2-0.2s-0.8-1.8-0.4-2.9c0.3-0.8,1-1.4,1.8-1.3c0.5,0.1,0.7,0,1,0.3S402.9,141.2,402.8,141.8
	L402.8,141.8z M450.9,165.2c0,0-0.2,1.8-1.2,2.1c-0.9,0.3-1.4,0.3-2-0.2c-0.6-0.5-0.8-1.8-0.4-2.9c0.3-0.8,1-1.4,1.8-1.3
	c0.5,0.1,0.7,0,1,0.3C450.4,163.5,451,164.6,450.9,165.2L450.9,165.2z M425.4,29.1c0,0-0.1,0.9-0.6,1.1c-0.5,0.2-0.7,0.1-1-0.1
	c-0.3-0.2-0.4-0.9-0.2-1.4c0.1-0.4,0.5-0.7,0.9-0.7c0.3,0,0.3,0,0.5,0.1C425.1,28.3,425.4,28.8,425.4,29.1z M404.6,92
	c0,0-0.1,0.9-0.6,1.1c-0.5,0.2-0.7,0.1-1-0.1c-0.3-0.2-0.4-0.9-0.2-1.4c0.1-0.4,0.5-0.7,0.9-0.7c0.3,0,0.3,0,0.5,0.1
	C404.4,91.2,404.7,91.7,404.6,92z M439.4,139.9c0,0-0.1,0.9-0.6,1.1c-0.5,0.2-0.7,0.1-1-0.1c-0.3-0.2-0.4-0.9-0.2-1.4
	c0.1-0.4,0.5-0.7,0.9-0.7c0.3,0,0.3,0,0.5,0.1C439.2,139.1,439.5,139.6,439.4,139.9L439.4,139.9z M417.6,172c0,0-0.1,0.9-0.6,1.1
	c-0.5,0.2-0.7,0.1-1-0.1c-0.3-0.2-0.4-0.9-0.2-1.4c0.1-0.4,0.5-0.7,0.9-0.7c0.3,0,0.3,0,0.5,0.1C417.3,171.1,417.6,171.7,417.6,172z
	 M445.1,53.3c0,0-0.2,1.8-1.2,2.1c-0.9,0.3-1.4,0.3-2-0.2c-0.6-0.5-0.8-1.8-0.4-2.9c0.3-0.8,1-1.4,1.8-1.3c0.5,0.1,0.7,0,1,0.3
	C444.6,51.6,445.2,52.7,445.1,53.3L445.1,53.3z M435.6,63.8c0,0-0.3,2.4-1.6,2.9c-1.3,0.5-1.9,0.4-2.7-0.3c-0.8-0.6-1-2.4-0.5-3.8
	c0.3-1.1,1.3-1.8,2.4-1.8c0.7,0.1,0.9,0,1.3,0.4C435,61.6,435.8,63,435.6,63.8L435.6,63.8z M435.7,17.3c0,0-0.2,1.8-1.2,2.1
	c-0.9,0.3-1.4,0.3-2-0.2s-0.8-1.8-0.4-2.9c0.3-0.8,1-1.4,1.8-1.3c0.5,0.1,0.7,0,1,0.3C435.2,15.6,435.8,16.6,435.7,17.3L435.7,17.3z
	 M402.3,24c0,0-0.1,0.9-0.6,1.1s-0.7,0.1-1-0.1c-0.3-0.2-0.4-0.9-0.2-1.4c0.1-0.4,0.5-0.7,0.9-0.7c0.3,0,0.3,0,0.5,0.1
	C402.1,23.2,402.4,23.6,402.3,24z M411.7,55.7c0,0-0.1,0.9-0.6,1.1c-0.5,0.2-0.7,0.1-1-0.1c-0.3-0.2-0.4-0.9-0.2-1.4
	c0.1-0.4,0.5-0.7,0.9-0.7c0.3,0,0.3,0,0.5,0.1C411.5,54.9,411.8,55.4,411.7,55.7z M371.8,26.7c0,0-0.3,2.7-1.7,3.2
	c-1.4,0.5-2.1,0.4-3-0.3c-0.9-0.7-1.2-2.6-0.6-4.3c0.6-1.6,1.9-2,2.7-2c0.8,0.1,1,0,1.5,0.4C371.1,24.2,372,25.8,371.8,26.7
	L371.8,26.7z M398.7,49.8c0,0-0.3,2.7-1.7,3.2c-1.4,0.5-2.1,0.4-3-0.3c-0.9-0.7-1.2-2.6-0.6-4.3s1.9-2,2.7-2s1,0,1.5,0.4
	C398,47.3,398.9,48.8,398.7,49.8L398.7,49.8z M398.7,111.9c0,0-0.3,2.7-1.7,3.2c-1.4,0.5-2.1,0.4-3-0.3c-0.9-0.7-1.2-2.6-0.6-4.3
	s1.9-2,2.7-2c0.8,0.1,1,0,1.5,0.4C398,109.4,398.9,111,398.7,111.9L398.7,111.9z M395.5,167.7c0,0-0.3,2.7-1.7,3.2s-2.1,0.4-3-0.3
	c-0.9-0.7-1.2-2.6-0.6-4.3c0.6-1.6,1.9-2,2.6-1.9c0.7,0.1,1,0,1.5,0.4C394.8,165.2,395.7,166.7,395.5,167.7L395.5,167.7z M39.2,30.8
	c0,0-0.3-1.7-1.6-2c-1.3-0.3-1.9-0.3-2.7,0.2c-0.8,0.4-1,1.7-0.5,2.7c0.5,1,1.7,1.3,2.4,1.2c0.7-0.1,0.9,0,1.3-0.3
	C38.6,32.4,39.4,31.4,39.2,30.8L39.2,30.8z M63,29.7c0,0-0.2-1.5-0.9-1.8c-0.8-0.3-1.1-0.2-1.6,0.1c-0.5,0.4-0.6,1.4-0.3,2.3
	c0.2,0.7,0.8,1.1,1.4,1.1c0.4-0.1,0.5,0,0.8-0.2C62.6,31.1,63.1,30.2,63,29.7L63,29.7z M75.6,63.4c0,0-0.3-2.7-1.7-3.2
	c-1.4-0.5-2.1-0.4-3,0.3c-0.9,0.7-1.2,2.6-0.6,4.3c0.6,1.6,1.9,2,2.7,2c0.8-0.1,1,0,1.5-0.4S75.8,64.4,75.6,63.4L75.6,63.4z
	 M68,143.4c0,0-0.3-2.7-1.7-3.2s-2.1-0.4-3,0.3c-0.9,0.7-1.2,2.6-0.6,4.2c0.6,1.6,1.9,2,2.7,2c0.8-0.1,1,0,1.5-0.4
	C67.3,145.9,68.2,144.3,68,143.4L68,143.4z M64.7,152.4c0,0-0.2-1.8-1.2-2.1c-0.9-0.3-1.4-0.3-2,0.2c-0.6,0.5-0.8,1.8-0.4,2.9
	c0.3,0.8,1,1.4,1.8,1.3c0.5-0.1,0.7,0,1-0.3C64.2,154.1,64.8,153,64.7,152.4L64.7,152.4z M36.5,128.2c0,0-0.2-1.8-1.2-2.1
	c-0.9-0.3-1.4-0.3-2,0.2c-0.6,0.5-0.8,1.8-0.4,2.9c0.3,0.8,1,1.4,1.8,1.3c0.5-0.1,0.7,0,1-0.3C36.1,129.9,36.7,128.9,36.5,128.2
	L36.5,128.2z M24,178.8c0,0-0.3-1.7-1.6-2c-1.3-0.3-1.9-0.3-2.7,0.2c-0.8,0.4-1,1.7-0.5,2.7c0.5,1,1.7,1.3,2.4,1.2
	c0.7-0.1,0.9,0,1.3-0.3C23.3,180.4,24.1,179.4,24,178.8L24,178.8z M56.9,106.8c0,0-0.1-0.9-0.6-1.1c-0.5-0.2-0.7-0.1-1,0.1
	c-0.3,0.2-0.4,0.9-0.2,1.4c0.1,0.4,0.5,0.7,0.9,0.7c0.3,0,0.3,0,0.5-0.1C56.7,107.6,56.9,107.1,56.9,106.8L56.9,106.8z M84.5,90.8
	c0,0-0.1-0.9-0.6-1.1s-0.7-0.1-1,0.1c-0.3,0.2-0.4,0.9-0.2,1.4c0.1,0.4,0.5,0.7,0.9,0.7c0.3,0,0.3,0,0.5-0.1
	C84.3,91.7,84.5,91.2,84.5,90.8L84.5,90.8z M68.2,80.9c0,0-0.1-0.9-0.6-1.1c-0.5-0.2-0.7-0.1-1,0.1c-0.3,0.2-0.4,0.9-0.2,1.4
	c0.1,0.4,0.5,0.7,0.9,0.7c0.3,0,0.3,0,0.5-0.1S68.3,81.3,68.2,80.9z M28.8,45.9c0,0-0.1-0.9-0.6-1.1s-0.7-0.1-1,0.1
	c-0.3,0.2-0.4,0.9-0.2,1.4c0.1,0.4,0.5,0.7,0.9,0.7c0.3,0,0.3,0,0.5-0.1C28.6,46.7,28.8,46.2,28.8,45.9L28.8,45.9z M24.9,150.7
	c0,0-0.1-0.9-0.6-1.1s-0.7-0.1-1,0.1c-0.3,0.2-0.4,0.9-0.2,1.4c0.1,0.4,0.5,0.7,0.9,0.7c0.3,0,0.3,0,0.5-0.1
	C24.7,151.5,25,151,24.9,150.7z M28.8,73.2c0,0-0.2-1.8-1.2-2.1c-0.9-0.3-1.4-0.3-2,0.2c-0.6,0.5-0.8,1.8-0.4,2.9
	c0.3,0.8,1,1.4,1.8,1.3c0.5-0.1,0.7,0,1-0.3C28.4,74.9,29,73.9,28.8,73.2L28.8,73.2z M19,97.9c0,0-0.1-0.9-0.6-1.1
	c-0.5-0.2-0.7-0.1-1,0.1c-0.3,0.2-0.4,0.9-0.2,1.4c0.1,0.4,0.5,0.7,0.9,0.7c0.3,0,0.3,0,0.5-0.1C18.7,98.8,19,98.3,19,97.9L19,97.9z
	 M42.8,26.4c0,0-0.1-0.9-0.6-1.1c-0.5-0.2-0.7-0.1-1,0.1c-0.3,0.2-0.4,0.9-0.2,1.4c0.1,0.4,0.5,0.7,0.9,0.7c0.3,0,0.3,0,0.5-0.1
	S42.9,26.8,42.8,26.4L42.8,26.4z M227.5,10.4c0,0-0.2-1.8-1.2-2.1c-0.9-0.3-1.4-0.3-2,0.2c-0.6,0.5-0.8,1.8-0.4,2.9
	c0.3,0.8,1,1.4,1.8,1.3c0.5-0.1,0.7,0,1-0.3S227.6,11,227.5,10.4L227.5,10.4z M186.7,36.8c0,0-0.3-1.7-1.6-2
	c-1.3-0.3-1.9-0.3-2.7,0.2c-0.8,0.5-1,1.7-0.5,2.7c0.5,1,1.7,1.3,2.4,1.2c0.7-0.1,0.9,0,1.3-0.3C186.1,38.4,186.9,37.4,186.7,36.8z
	 M155.1,6.7c0,0-0.1-0.9-0.6-1.1c-0.5-0.2-0.7-0.1-1,0.1c-0.3,0.2-0.4,0.9-0.2,1.4c0.1,0.4,0.5,0.7,0.9,0.7c0.3,0,0.3,0,0.5-0.1
	S155.2,7,155.1,6.7L155.1,6.7z M187.7,8.7c0,0-0.1-0.9-0.6-1.1c-0.5-0.2-0.7-0.1-1,0.1c-0.3,0.2-0.4,0.9-0.2,1.4
	c0.1,0.4,0.5,0.7,0.9,0.7c0.3,0,0.3,0,0.5-0.1C187.5,9.5,187.8,9,187.7,8.7L187.7,8.7z M142.4,26.7c0,0-0.1-0.9-0.6-1.1
	s-0.7-0.1-1,0.1c-0.3,0.2-0.4,0.9-0.2,1.4c0.1,0.4,0.5,0.7,0.9,0.7c0.3,0,0.3,0,0.5-0.1C142.2,27.5,142.5,27,142.4,26.7z
	 M210.5,35.7c0,0-0.2-1.5-0.9-1.8c-0.8-0.3-1.1-0.2-1.6,0.1s-0.6,1.4-0.3,2.3c0.2,0.7,0.8,1.1,1.4,1.1c0.4-0.1,0.5,0,0.8-0.2
	S210.6,36.2,210.5,35.7z M223.2,69.4c0,0-0.3-2.7-1.7-3.2c-1.4-0.5-2.1-0.4-3,0.3c-0.9,0.7-1.2,2.6-0.6,4.3c0.6,1.6,1.9,2,2.6,2
	c0.7-0.1,1,0,1.5-0.4C222.5,71.9,223.4,70.4,223.2,69.4L223.2,69.4z M215.5,149.4c0,0-0.3-2.7-1.7-3.2s-2.1-0.4-3,0.3
	c-0.9,0.7-1.2,2.6-0.6,4.3c0.6,1.6,1.9,2,2.7,1.9c0.8-0.1,1,0,1.5-0.4C214.9,151.8,215.7,150.3,215.5,149.4L215.5,149.4z
	 M212.2,158.4c0,0-0.2-1.8-1.2-2.1c-0.9-0.3-1.4-0.3-2,0.2c-0.6,0.5-0.8,1.8-0.4,2.9c0.3,0.8,1,1.4,1.8,1.3c0.5-0.1,0.7,0,1-0.3
	C211.8,160.1,212.4,159,212.2,158.4L212.2,158.4z M184.1,134.2c0,0-0.2-1.8-1.2-2.1c-0.9-0.3-1.4-0.3-2,0.2
	c-0.6,0.5-0.8,1.8-0.4,2.9c0.3,0.8,1,1.4,1.8,1.3c0.5-0.1,0.7,0,1-0.3S184.2,134.9,184.1,134.2L184.1,134.2z M171.5,184.8
	c0,0-0.3-1.7-1.6-2s-1.9-0.3-2.7,0.2c-0.8,0.4-1,1.7-0.5,2.7c0.5,1,1.7,1.3,2.4,1.2c0.7-0.1,0.9,0,1.3-0.3
	C170.9,186.4,171.7,185.4,171.5,184.8L171.5,184.8z M73.5,124.8c0,0-0.2-1.8-1.2-2.1c-0.9-0.3-1.4-0.3-2,0.2s-0.8,1.8-0.4,2.9
	c0.3,0.8,1,1.4,1.8,1.3c0.5-0.1,0.7,0,1-0.3C73.1,126.5,73.7,125.4,73.5,124.8L73.5,124.8z M92.5,120c0,0-0.1-0.9-0.6-1.1
	c-0.5-0.2-0.7-0.1-1,0.1c-0.3,0.2-0.4,0.9-0.2,1.4c0.1,0.4,0.5,0.7,0.9,0.7c0.3,0,0.3,0,0.5-0.1C92.2,120.9,92.5,120.4,92.5,120z
	 M87.8,143.4c0,0-0.1-0.9-0.6-1.1c-0.5-0.2-0.7-0.1-1,0.1c-0.3,0.2-0.4,0.9-0.2,1.4c0.1,0.4,0.5,0.7,0.9,0.7c0.3,0,0.3,0,0.5-0.1
	S87.8,143.7,87.8,143.4z M204.4,112.8c0,0-0.1-0.9-0.6-1.1c-0.5-0.2-0.7-0.1-1,0.1c-0.3,0.2-0.4,0.9-0.2,1.4
	c0.1,0.4,0.5,0.7,0.9,0.7c0.3,0,0.3,0,0.5-0.1C204.3,113.6,204.5,113.1,204.4,112.8L204.4,112.8z M226.3,111.4c0,0-0.1-0.9-0.6-1.1
	c-0.5-0.2-0.7-0.1-1,0.1c-0.3,0.2-0.4,0.9-0.2,1.4c0.1,0.4,0.5,0.7,0.9,0.7c0.3,0,0.3,0,0.5-0.1
	C226.1,112.2,226.4,111.7,226.3,111.4L226.3,111.4z M215.7,86.9c0,0-0.1-0.9-0.6-1.1c-0.5-0.2-0.7-0.1-1,0.1
	c-0.3,0.2-0.4,0.9-0.2,1.4c0.1,0.4,0.5,0.7,0.9,0.7c0.3,0,0.3,0,0.5-0.1C215.5,87.7,215.8,87.2,215.7,86.9L215.7,86.9z M133.9,96.6
	c0,0-0.2-1.8-1.2-2.1c-0.9-0.3-1.4-0.3-2,0.2c-0.6,0.5-0.8,1.8-0.4,2.9c0.3,0.8,1,1.4,1.8,1.3c0.5-0.1,0.7,0,1-0.3
	C133.5,98.3,134.1,97.2,133.9,96.6L133.9,96.6z M150.3,119.3c0,0-0.1-0.9-0.6-1.1c-0.5-0.2-0.7-0.1-1,0.1c-0.3,0.2-0.4,0.9-0.2,1.4
	c0.1,0.4,0.5,0.7,0.9,0.7c0.3,0,0.3,0,0.5-0.1C150.1,120.2,150.3,119.6,150.3,119.3L150.3,119.3z M118.5,63.1c0,0-0.1-0.9-0.6-1.1
	c-0.5-0.2-0.7-0.1-1,0.1c-0.3,0.2-0.4,0.9-0.2,1.4c0.1,0.4,0.5,0.7,0.9,0.7c0.3,0,0.3,0,0.5-0.1C118.4,63.9,118.6,63.4,118.5,63.1
	L118.5,63.1z M176.3,51.8c0,0-0.1-0.9-0.6-1.1s-0.7-0.1-1,0.1c-0.3,0.2-0.4,0.9-0.2,1.4c0.1,0.4,0.5,0.7,0.9,0.7
	c0.3,0,0.3,0,0.5-0.1C176.2,52.7,176.4,52.1,176.3,51.8L176.3,51.8z M92.3,73.9c0,0-0.1-0.9-0.6-1.1c-0.5-0.2-0.7-0.1-1,0.1
	c-0.3,0.2-0.4,0.9-0.2,1.4c0.1,0.4,0.5,0.7,0.9,0.7c0.3,0,0.3,0,0.5-0.1C92.1,74.7,92.4,74.2,92.3,73.9L92.3,73.9z M139.9,154.6
	c0,0-0.1-0.9-0.6-1.1c-0.5-0.2-0.7-0.1-1,0.1c-0.3,0.2-0.4,0.9-0.2,1.4c0.1,0.4,0.5,0.7,0.9,0.7c0.3,0,0.3,0,0.5-0.1
	S139.9,155,139.9,154.6L139.9,154.6z M172.5,156.6c0,0-0.1-0.9-0.6-1.1c-0.5-0.2-0.7-0.1-1,0.1c-0.3,0.2-0.4,0.9-0.2,1.4
	c0.1,0.4,0.5,0.7,0.9,0.7c0.3,0,0.3,0,0.5-0.1S172.5,157,172.5,156.6L172.5,156.6z M104.6,62c0,0-0.2-1.8-1.2-2.1
	c-0.9-0.3-1.4-0.3-2,0.2s-0.8,1.8-0.4,2.9c0.3,0.8,1,1.4,1.8,1.3c0.5-0.1,0.7,0,1-0.3S104.7,62.6,104.6,62L104.6,62z M152.7,38.5
	c0,0-0.2-1.8-1.2-2.1c-0.9-0.3-1.4-0.3-2,0.2s-0.8,1.8-0.4,2.9c0.3,0.8,1,1.4,1.8,1.3c0.5-0.1,0.7,0,1-0.3
	C152.2,40.2,152.8,39.2,152.7,38.5L152.7,38.5z M176.4,79.2c0,0-0.2-1.8-1.2-2.1c-0.9-0.3-1.4-0.3-2,0.2c-0.6,0.5-0.8,1.8-0.4,2.9
	c0.3,0.8,1,1.4,1.8,1.3c0.5-0.1,0.7,0,1-0.3C175.9,80.9,176.5,79.8,176.4,79.2L176.4,79.2z M127.1,174.7c0,0-0.1-0.9-0.6-1.1
	c-0.5-0.2-0.7-0.1-1,0.1c-0.3,0.2-0.4,0.9-0.2,1.4c0.1,0.4,0.5,0.7,0.9,0.7c0.3,0,0.3,0,0.5-0.1C126.9,175.5,127.2,175,127.1,174.7z
	 M106.4,111.7c0,0-0.1-0.9-0.6-1.1c-0.5-0.2-0.7-0.1-1,0.1c-0.3,0.2-0.4,0.9-0.2,1.4c0.1,0.4,0.5,0.7,0.9,0.7c0.3,0,0.3,0,0.5-0.1
	S106.4,112,106.4,111.7z M166.5,103.9c0,0-0.1-0.9-0.6-1.1c-0.5-0.2-0.7-0.1-1,0.1c-0.3,0.2-0.4,0.9-0.2,1.4
	c0.1,0.4,0.5,0.7,0.9,0.7c0.3,0,0.3,0,0.5-0.1C166.3,104.7,166.6,104.2,166.5,103.9L166.5,103.9z M141.2,63.8c0,0-0.1-0.9-0.6-1.1
	s-0.7-0.1-1,0.1c-0.3,0.2-0.4,0.9-0.2,1.4c0.1,0.4,0.5,0.7,0.9,0.7c0.3,0,0.3,0,0.5-0.1C141,64.7,141.2,64.2,141.2,63.8L141.2,63.8z
	 M119.3,31.8c0,0-0.1-0.9-0.6-1.1c-0.5-0.2-0.7-0.1-1,0.1c-0.3,0.2-0.4,0.9-0.2,1.4c0.1,0.4,0.5,0.7,0.9,0.7c0.3,0,0.3,0,0.5-0.1
	C119.1,32.6,119.4,32.1,119.3,31.8L119.3,31.8z M190.4,32.4c0,0-0.1-0.9-0.6-1.1c-0.5-0.2-0.7-0.1-1,0.1c-0.3,0.2-0.4,0.9-0.2,1.4
	c0.1,0.4,0.5,0.7,0.9,0.7c0.3,0,0.3,0,0.5-0.1C190.1,33.2,190.4,32.7,190.4,32.4L190.4,32.4z M146.8,150.5c0,0-0.2-1.8-1.2-2.1
	c-0.9-0.3-1.4-0.3-2,0.2c-0.6,0.5-0.8,1.8-0.4,2.9c0.3,0.8,1,1.4,1.8,1.3c0.5-0.1,0.7,0,1-0.3C146.4,152.2,147,151.1,146.8,150.5
	L146.8,150.5z M137.3,139.9c0,0-0.3-2.5-1.6-2.9c-1.2-0.4-1.9-0.4-2.7,0.3c-0.8,0.6-1,2.4-0.5,3.8c0.5,1.5,1.7,1.8,2.4,1.8
	c0.7-0.1,0.9,0,1.3-0.4C136.7,142.2,137.5,140.8,137.3,139.9L137.3,139.9z M88.8,29c0,0-0.3-2.7-1.7-3.2c-1.4-0.5-2.1-0.4-3,0.3
	c-0.9,0.7-1.2,2.6-0.6,4.3c0.6,1.6,1.9,2,2.6,2c0.7-0.1,1,0,1.5-0.4C88.1,31.5,89,30,88.8,29L88.8,29z M366.2,367.6
	c0,0-0.3,2.7-1.7,3.2c-1.4,0.5-2.1,0.4-3-0.3c-0.9-0.7-1.2-2.6-0.6-4.3c0.6-1.6,1.9-2,2.6-1.9s1,0,1.5,0.4
	C365.5,365.1,366.4,366.7,366.2,367.6L366.2,367.6z M362.9,358.6c0,0-0.2,1.8-1.2,2.1c-0.9,0.3-1.4,0.3-2-0.2s-0.8-1.8-0.4-2.9
	c0.3-0.8,1-1.4,1.8-1.3c0.5,0.1,0.7,0,1,0.3C362.5,356.9,363.1,358,362.9,358.6L362.9,358.6z M334.8,382.7c0,0-0.2,1.8-1.2,2.1
	c-0.9,0.3-1.4,0.3-2-0.2c-0.6-0.5-0.8-1.8-0.4-2.9c0.3-0.8,1-1.4,1.8-1.3c0.5,0.1,0.7,0,1,0.3C334.3,381.1,334.9,382.1,334.8,382.7
	L334.8,382.7z M322.2,332.2c0,0-0.3,1.7-1.6,2s-1.9,0.3-2.7-0.2c-0.8-0.5-1-1.7-0.5-2.7c0.5-1,1.7-1.3,2.4-1.2s0.9,0,1.3,0.3
	S322.4,331.6,322.2,332.2L322.2,332.2z M239.4,384c0,0-0.2,1.8-1.2,2.1c-0.9,0.3-1.4,0.3-2-0.2c-0.6-0.5-0.8-1.8-0.4-2.9
	c0.3-0.8,1-1.4,1.8-1.3c0.5,0.1,0.7,0,1,0.3C238.9,382.3,239.5,383.4,239.4,384L239.4,384z M243.1,396.9c0,0-0.1,0.9-0.6,1.1
	c-0.5,0.2-0.7,0.1-1-0.1c-0.3-0.2-0.4-0.9-0.2-1.4c0.1-0.4,0.5-0.7,0.9-0.7c0.3,0,0.3,0,0.5,0.1
	C242.9,396.1,243.2,396.6,243.1,396.9L243.1,396.9z M238.5,373.5c0,0-0.1,0.9-0.6,1.1c-0.5,0.2-0.7,0.1-1-0.1
	c-0.3-0.2-0.4-0.9-0.2-1.4c0.1-0.4,0.5-0.7,0.9-0.7c0.3,0,0.3,0,0.5,0.1C238.3,372.7,238.5,373.2,238.5,373.5L238.5,373.5z
	 M355.1,404.2c0,0-0.1,0.9-0.6,1.1c-0.5,0.2-0.7,0.1-1-0.1c-0.3-0.2-0.4-0.9-0.2-1.4c0.1-0.4,0.5-0.7,0.9-0.7c0.3,0,0.3,0,0.5,0.1
	C354.9,403.3,355.2,403.9,355.1,404.2L355.1,404.2z M377,405.6c0,0-0.1,0.9-0.6,1.1c-0.5,0.2-0.7,0.1-1-0.1
	c-0.3-0.2-0.4-0.9-0.2-1.4c0.1-0.4,0.5-0.7,0.9-0.7c0.3,0,0.3,0,0.5,0.1C376.8,404.8,377.1,405.3,377,405.6L377,405.6z M284.6,420.4
	c0,0-0.2,1.8-1.2,2.1c-0.9,0.3-1.4,0.3-2-0.2s-0.8-1.8-0.4-2.9c0.3-0.8,1-1.4,1.8-1.3c0.5,0.1,0.7,0,1,0.3
	C284.2,418.7,284.8,419.8,284.6,420.4L284.6,420.4z M301,397.6c0,0-0.1,0.9-0.6,1.1c-0.5,0.2-0.7,0.1-1-0.1s-0.4-0.9-0.2-1.4
	c0.1-0.4,0.5-0.7,0.9-0.7c0.3,0,0.3,0,0.5,0.1C300.8,396.8,301,397.3,301,397.6z M290.6,362.3c0,0-0.1,0.9-0.6,1.1
	c-0.5,0.2-0.7,0.1-1-0.1c-0.3-0.2-0.4-0.9-0.2-1.4c0.1-0.4,0.5-0.7,0.9-0.7c0.3,0,0.3,0,0.5,0.1C290.4,361.5,290.6,362,290.6,362.3
	L290.6,362.3z M323.2,360.3c0,0-0.1,0.9-0.6,1.1c-0.5,0.2-0.7,0.1-1-0.1c-0.3-0.2-0.4-0.9-0.2-1.4c0.1-0.4,0.5-0.7,0.9-0.7
	c0.3,0,0.3,0,0.5,0.1C323,359.5,323.3,360,323.2,360.3L323.2,360.3z M277.8,342.3c0,0-0.1,0.9-0.6,1.1s-0.7,0.1-1-0.1
	c-0.3-0.2-0.4-0.9-0.2-1.4c0.1-0.4,0.5-0.7,0.9-0.7c0.3,0,0.3,0,0.5,0.1C277.6,341.5,277.9,342,277.8,342.3z M257.1,405.2
	c0,0-0.1,0.9-0.6,1.1c-0.5,0.2-0.7,0.1-1-0.1c-0.3-0.2-0.4-0.9-0.2-1.4c0.1-0.4,0.5-0.7,0.9-0.7c0.3,0,0.3,0,0.5,0.1
	C256.8,404.4,257.1,404.9,257.1,405.2L257.1,405.2z M317.2,413c0,0-0.1,0.9-0.6,1.1s-0.7,0.1-1-0.1c-0.3-0.2-0.4-0.9-0.2-1.4
	c0.1-0.4,0.5-0.7,0.9-0.7c0.3,0,0.3,0,0.5,0.1C317,412.2,317.3,412.7,317.2,413z M297.6,366.5c0,0-0.2,1.8-1.2,2.1
	c-0.9,0.3-1.4,0.3-2-0.2c-0.6-0.5-0.8-1.8-0.4-2.9c0.3-0.8,1-1.4,1.8-1.3c0.5,0.1,0.7,0,1,0.3C297.1,364.8,297.7,365.9,297.6,366.5
	L297.6,366.5z M288.1,377c0,0-0.3,2.5-1.6,2.9c-1.3,0.4-1.9,0.4-2.7-0.3c-0.8-0.6-1-2.4-0.5-3.8c0.5-1.5,1.7-1.9,2.4-1.8
	c0.7,0.1,0.9,0,1.3,0.4S288.3,376.2,288.1,377L288.1,377z M346,333.3c0,0-0.2,1.5-0.9,1.8c-0.8,0.3-1.1,0.2-1.6-0.1
	c-0.5-0.4-0.7-1.4-0.3-2.3c0.2-0.7,0.8-1.1,1.4-1.1c0.4,0.1,0.5,0,0.8,0.2C345.6,331.9,346.1,332.8,346,333.3L346,333.3z
	 M358.7,299.5c0,0-0.3,2.7-1.7,3.2s-2.1,0.4-3-0.3s-1.2-2.6-0.6-4.2c0.6-1.6,1.9-2,2.7-2c0.8,0.1,1,0,1.5,0.4
	C358,297,358.8,298.6,358.7,299.5L358.7,299.5z M351,219.6c0,0-0.3,2.7-1.7,3.2s-2.1,0.4-3-0.3c-0.9-0.7-1.2-2.6-0.6-4.3
	c0.6-1.6,1.9-2,2.6-1.9c0.7,0.1,1,0,1.5,0.4C350.3,217.1,351.2,218.6,351,219.6L351,219.6z M347.7,210.6c0,0-0.2,1.8-1.2,2.1
	c-0.9,0.3-1.4,0.3-2-0.2c-0.6-0.5-0.8-1.8-0.4-2.9c0.3-0.8,1-1.4,1.8-1.3c0.5,0.1,0.7,0,1,0.3C347.2,208.9,347.8,210,347.7,210.6
	L347.7,210.6z M319.6,234.7c0,0-0.2,1.8-1.2,2.1c-0.9,0.3-1.4,0.3-2-0.2c-0.6-0.5-0.8-1.8-0.4-2.9c0.3-0.8,1-1.4,1.8-1.3
	c0.5,0.1,0.7,0,1,0.3C319.1,233,319.7,234.1,319.6,234.7L319.6,234.7z M307,184.2c0,0-0.3,1.7-1.6,2c-1.2,0.3-1.9,0.3-2.7-0.2
	c-0.8-0.4-1-1.7-0.5-2.7c0.5-1,1.7-1.3,2.4-1.2c0.7,0.1,0.9,0,1.3,0.3C306.4,182.6,307.1,183.6,307,184.2L307,184.2z M224.1,236
	c0,0-0.2,1.8-1.2,2.1c-0.9,0.3-1.4,0.3-2-0.2c-0.6-0.5-0.8-1.8-0.4-2.9c0.3-0.8,1-1.4,1.8-1.3c0.5,0.1,0.7,0,1,0.3
	C223.7,234.3,224.3,235.4,224.1,236L224.1,236z M227.9,248.9c0,0-0.1,0.9-0.6,1.1c-0.5,0.2-0.7,0.1-1-0.1c-0.3-0.2-0.4-0.9-0.2-1.4
	c0.1-0.4,0.5-0.7,0.9-0.7c0.3,0,0.3,0,0.5,0.1C227.7,248.1,228,248.6,227.9,248.9L227.9,248.9z M223.2,225.6c0,0-0.1,0.9-0.6,1.1
	c-0.5,0.2-0.7,0.1-1-0.1c-0.3-0.2-0.4-0.9-0.2-1.4c0.1-0.4,0.5-0.7,0.9-0.7c0.3,0,0.3,0,0.5,0.1C223,224.7,223.3,225.3,223.2,225.6
	L223.2,225.6z M339.9,256.2c0,0-0.1,0.9-0.6,1.1c-0.5,0.2-0.7,0.1-1-0.1s-0.4-0.9-0.2-1.4c0.1-0.4,0.5-0.7,0.9-0.7
	c0.3,0,0.3,0,0.5,0.1C339.7,255.4,339.9,255.9,339.9,256.2z M367.4,272.1c0,0-0.1,0.9-0.6,1.1c-0.5,0.2-0.7,0.1-1-0.1
	c-0.3-0.2-0.4-0.9-0.2-1.4c0.1-0.4,0.5-0.7,0.9-0.7c0.3,0,0.3,0,0.5,0.1C367.2,271.3,367.5,271.8,367.4,272.1z M351.2,282
	c0,0-0.1,0.9-0.6,1.1c-0.5,0.2-0.7,0.1-1-0.1c-0.3-0.2-0.4-0.9-0.2-1.4c0.1-0.4,0.5-0.7,0.9-0.7c0.3,0,0.3,0,0.5,0.1
	C351,281.2,351.2,281.7,351.2,282z M269.4,272.3c0,0-0.2,1.8-1.2,2.1c-1,0.3-1.4,0.3-2-0.2c-0.6-0.5-0.8-1.8-0.4-2.9
	c0.3-0.8,1-1.4,1.8-1.3c0.5,0.1,0.7,0,1,0.3C268.9,270.6,269.5,271.7,269.4,272.3L269.4,272.3z M285.7,249.6c0,0-0.1,0.9-0.6,1.1
	s-0.7,0.1-1-0.1c-0.3-0.2-0.4-0.9-0.2-1.4c0.1-0.4,0.5-0.7,0.9-0.7c0.3,0,0.3,0,0.5,0.1C285.5,248.8,285.8,249.3,285.7,249.6z
	 M254,305.9c0,0-0.1,0.9-0.6,1.1c-0.5,0.2-0.7,0.1-1-0.1c-0.3-0.2-0.4-0.9-0.2-1.4c0.1-0.4,0.5-0.7,0.9-0.7c0.3,0,0.3,0,0.5,0.1
	C253.8,305.1,254.1,305.6,254,305.9L254,305.9z M311.8,317.1c0,0-0.1,0.9-0.6,1.1c-0.5,0.2-0.7,0.1-1-0.1c-0.3-0.2-0.4-0.9-0.2-1.4
	c0.1-0.4,0.5-0.7,0.9-0.7c0.3,0,0.3,0,0.5,0.1C311.6,316.3,311.8,316.8,311.8,317.1z M227.8,295c0,0-0.1,0.9-0.6,1.1
	c-0.5,0.2-0.7,0.1-1-0.1c-0.3-0.2-0.4-0.9-0.2-1.4c0.1-0.4,0.5-0.7,0.9-0.7c0.3,0,0.3,0,0.5,0.1C227.5,294.2,227.8,294.7,227.8,295
	L227.8,295z M275.3,214.3c0,0-0.1,0.9-0.6,1.1c-0.5,0.2-0.7,0.1-1-0.1c-0.3-0.2-0.4-0.9-0.2-1.4c0.1-0.4,0.5-0.7,0.9-0.7
	c0.3,0,0.3,0,0.5,0.1C275.1,213.5,275.4,214,275.3,214.3z M307.9,212.3c0,0-0.1,0.9-0.6,1.1c-0.5,0.2-0.7,0.1-1-0.1
	c-0.3-0.2-0.4-0.9-0.2-1.4c0.1-0.4,0.5-0.7,0.9-0.7c0.3,0,0.3,0,0.5,0.1C307.7,211.5,308,212,307.9,212.3z M240,307
	c0,0-0.2,1.8-1.2,2.1c-1,0.3-1.4,0.3-2-0.2c-0.6-0.5-0.8-1.8-0.4-2.9c0.3-0.8,1-1.4,1.8-1.3c0.5,0.1,0.7,0,1,0.3
	C239.6,305.3,240.2,306.4,240,307L240,307z M288.1,330.4c0,0-0.2,1.8-1.2,2.1c-0.9,0.3-1.4,0.3-2-0.2s-0.8-1.8-0.4-2.9
	c0.3-0.8,1-1.4,1.8-1.3c0.5,0.1,0.7,0,1,0.3C287.7,328.7,288.3,329.8,288.1,330.4L288.1,330.4z M311.8,289.7c0,0-0.2,1.8-1.2,2.1
	c-0.9,0.3-1.4,0.3-2-0.2s-0.8-1.8-0.4-2.9c0.3-0.8,1-1.4,1.8-1.3c0.5,0.1,0.7,0,1,0.3S312,289.1,311.8,289.7L311.8,289.7z
	 M262.6,194.3c0,0-0.1,0.9-0.6,1.1c-0.5,0.2-0.7,0.1-1-0.1c-0.3-0.2-0.4-0.9-0.2-1.4c0.1-0.4,0.5-0.7,0.9-0.7c0.3,0,0.3,0,0.5,0.1
	C262.4,193.5,262.7,194,262.6,194.3L262.6,194.3z M241.8,257.2c0,0-0.1,0.9-0.6,1.1c-0.5,0.2-0.7,0.1-1-0.1
	c-0.3-0.2-0.4-0.9-0.2-1.4c0.1-0.4,0.5-0.7,0.9-0.7c0.3,0,0.3,0,0.5,0.1C241.6,256.4,241.9,256.9,241.8,257.2L241.8,257.2z M302,265
	c0,0-0.1,0.9-0.6,1.1c-0.5,0.2-0.7,0.1-1-0.1c-0.3-0.2-0.4-0.9-0.2-1.4c0.1-0.4,0.5-0.7,0.9-0.7c0.3,0,0.3,0,0.5,0.1
	C301.7,264.2,302,264.7,302,265L302,265z M276.6,305.1c0,0-0.1,0.9-0.6,1.1c-0.5,0.2-0.7,0.1-1-0.1c-0.3-0.2-0.4-0.9-0.2-1.4
	c0.1-0.4,0.5-0.7,0.9-0.7c0.3,0,0.3,0,0.5,0.1C276.4,304.3,276.7,304.8,276.6,305.1L276.6,305.1z M254.8,337.1c0,0-0.1,0.9-0.6,1.1
	c-0.5,0.2-0.7,0.1-1-0.1c-0.3-0.2-0.4-0.9-0.2-1.4c0.1-0.4,0.5-0.7,0.9-0.7c0.3,0,0.3,0,0.5,0.1
	C254.5,336.3,254.9,336.8,254.8,337.1L254.8,337.1z M325.9,336.5c0,0-0.1,0.9-0.6,1.1c-0.5,0.2-0.7,0.1-1-0.1
	c-0.3-0.2-0.4-0.9-0.2-1.4c0.1-0.4,0.5-0.7,0.9-0.7c0.3,0,0.3,0,0.5,0.1C325.6,335.7,325.9,336.2,325.9,336.5L325.9,336.5z
	 M282.3,218.5c0,0-0.2,1.8-1.2,2.1c-0.9,0.3-1.4,0.3-2-0.2s-0.8-1.8-0.4-2.9c0.3-0.8,1-1.4,1.8-1.3c0.5,0.1,0.7,0,1,0.3
	C281.9,216.8,282.5,217.8,282.3,218.5L282.3,218.5z M272.8,229c0,0-0.3,2.5-1.6,2.9c-1.3,0.4-1.9,0.4-2.7-0.3
	c-0.8-0.6-1-2.4-0.5-3.9c0.3-1.1,1.3-1.8,2.4-1.8c0.7,0.1,0.9,0,1.3,0.4C272.2,226.7,273,228.2,272.8,229L272.8,229z M264.2,368.9
	c0,0-0.1,0.9-0.6,1.1c-0.5,0.2-0.7,0.1-1-0.1c-0.3-0.2-0.4-0.9-0.2-1.4c0.1-0.4,0.5-0.7,0.9-0.7c0.3,0,0.3,0,0.5,0.1
	C264,368.1,264.3,368.6,264.2,368.9L264.2,368.9z M241.3,340.2c0,0-0.3,2.7-1.7,3.2c-1.4,0.5-2.1,0.4-3-0.3s-1.2-2.6-0.6-4.3
	c0.6-1.6,1.9-2,2.7-2s1,0,1.5,0.4C240.6,337.8,241.5,339.3,241.3,340.2L241.3,340.2z M251.2,362.9c0,0-0.3,2.7-1.7,3.2
	s-2.1,0.4-3-0.3c-0.9-0.7-1.2-2.6-0.6-4.3s1.9-2,2.6-2c0.7,0.1,1,0,1.5,0.4C250.5,360.4,251.3,362,251.2,362.9L251.2,362.9z
	 M251.2,425.1c0,0-0.3,2.7-1.7,3.2s-2.1,0.4-3-0.3c-0.9-0.7-1.2-2.6-0.6-4.2s1.9-2,2.6-2c0.7,0.1,1,0,1.5,0.4
	C250.5,422.6,251.3,424.2,251.2,425.1L251.2,425.1z M343.6,422.6c0,0-0.3,2.7-1.7,3.2c-1.4,0.5-2.1,0.4-3-0.3
	c-0.9-0.7-1.2-2.6-0.6-4.3c0.6-1.6,1.9-2,2.7-2s1,0,1.5,0.4C342.9,420.1,343.8,421.7,343.6,422.6L343.6,422.6z M386.9,378
	c0,0-0.2,1.8-1.2,2.1c-0.9,0.3-1.4,0.3-2-0.2c-0.6-0.5-0.8-1.8-0.4-2.9c0.3-0.8,1-1.4,1.8-1.3c0.5,0.1,0.7,0,1,0.3
	C386.4,376.3,387,377.4,386.9,378L386.9,378z M390.7,390.9c0,0-0.1,0.9-0.6,1.1c-0.5,0.2-0.7,0.1-1-0.1c-0.3-0.2-0.4-0.9-0.2-1.4
	c0.1-0.4,0.5-0.7,0.9-0.7c0.3,0,0.3,0,0.5,0.1C390.5,390.1,390.7,390.6,390.7,390.9z M386,367.6c0,0-0.1,0.9-0.6,1.1
	c-0.5,0.2-0.7,0.1-1-0.1c-0.3-0.2-0.4-0.9-0.2-1.4c0.1-0.4,0.5-0.7,0.9-0.7c0.3,0,0.3,0,0.5,0.1C385.8,366.8,386.1,367.3,386,367.6z
	 M432.1,414.4c0,0-0.2,1.8-1.2,2.1c-0.9,0.3-1.4,0.3-2-0.2c-0.6-0.5-0.8-1.8-0.4-2.9c0.3-0.8,1-1.4,1.8-1.3c0.5,0.1,0.7,0,1,0.3
	C431.7,412.7,432.3,413.8,432.1,414.4L432.1,414.4z M448.5,391.6c0,0-0.1,0.9-0.6,1.1c-0.5,0.2-0.7,0.1-1-0.1
	c-0.3-0.2-0.4-0.9-0.2-1.4c0.1-0.4,0.5-0.7,0.9-0.7c0.3,0,0.3,0,0.5,0.1C448.3,390.8,448.6,391.3,448.5,391.6z M438.1,356.3
	c0,0-0.1,0.9-0.6,1.1c-0.5,0.2-0.7,0.1-1-0.1c-0.3-0.2-0.4-0.9-0.2-1.4c0.1-0.4,0.5-0.7,0.9-0.7c0.3,0,0.3,0,0.5,0.1
	C437.9,355.5,438.2,356,438.1,356.3z M425.4,336.3c0,0-0.1,0.9-0.6,1.1c-0.5,0.2-0.7,0.1-1-0.1c-0.3-0.2-0.4-0.9-0.2-1.4
	c0.1-0.4,0.5-0.7,0.9-0.7c0.3,0,0.3,0,0.5,0.1C425.1,335.5,425.4,336,425.4,336.3L425.4,336.3z M404.6,399.2c0,0-0.1,0.9-0.6,1.1
	c-0.5,0.2-0.7,0.1-1-0.1c-0.3-0.2-0.4-0.9-0.2-1.4c0.1-0.4,0.5-0.7,0.9-0.7c0.3,0,0.3,0,0.5,0.1
	C404.4,398.4,404.7,398.9,404.6,399.2L404.6,399.2z M445.1,360.5c0,0-0.2,1.8-1.2,2.1c-0.9,0.3-1.4,0.3-2-0.2
	c-0.6-0.5-0.8-1.8-0.4-2.9c0.3-0.8,1-1.4,1.8-1.3c0.5,0.1,0.7,0,1,0.3C444.6,358.8,445.2,359.9,445.1,360.5L445.1,360.5z M435.6,371
	c0,0-0.3,2.5-1.6,2.9c-1.3,0.4-1.9,0.4-2.7-0.3c-0.8-0.6-1-2.4-0.5-3.9c0.3-1.1,1.3-1.8,2.4-1.8c0.7,0.1,0.9,0,1.3,0.4
	C435,368.8,435.8,370.2,435.6,371L435.6,371z M454.5,178.2c0,0-0.3,1.7-1.6,2c-1.2,0.3-1.9,0.3-2.7-0.2c-0.8-0.4-1-1.7-0.5-2.7
	s1.7-1.3,2.4-1.2c0.7,0.1,0.9,0,1.3,0.3C453.9,176.6,454.7,177.6,454.5,178.2L454.5,178.2z M356.6,238.2c0,0-0.2,1.8-1.2,2.1
	c-0.9,0.3-1.4,0.3-2-0.2c-0.6-0.5-0.8-1.8-0.4-2.9c0.3-0.8,1-1.4,1.8-1.3c0.5,0.1,0.7,0,1,0.3C356.1,236.5,356.7,237.6,356.6,238.2
	L356.6,238.2z M375.4,242.9c0,0-0.1,0.9-0.6,1.1c-0.5,0.2-0.7,0.1-1-0.1c-0.3-0.2-0.4-0.9-0.2-1.4c0.1-0.4,0.5-0.7,0.9-0.7
	c0.3,0,0.3,0,0.5,0.1C375.2,242.1,375.5,242.6,375.4,242.9z M370.8,219.6c0,0-0.1,0.9-0.6,1.1c-0.5,0.2-0.7,0.1-1-0.1
	c-0.3-0.2-0.4-0.9-0.2-1.4c0.1-0.4,0.5-0.7,0.9-0.7c0.3,0,0.3,0,0.5,0.1C370.6,218.8,370.8,219.3,370.8,219.6z M416.9,266.4
	c0,0-0.2,1.8-1.2,2.1c-0.9,0.3-1.4,0.3-2-0.2c-0.6-0.5-0.8-1.8-0.4-2.9c0.3-0.8,1-1.4,1.8-1.3c0.5,0.1,0.7,0,1,0.3
	C416.5,264.7,417.1,265.8,416.9,266.4L416.9,266.4z M433.3,243.6c0,0-0.1,0.9-0.6,1.1c-0.5,0.2-0.7,0.1-1-0.1
	c-0.3-0.2-0.4-0.9-0.2-1.4c0.1-0.4,0.5-0.7,0.9-0.7c0.3,0,0.3,0,0.5,0.1C433.1,242.8,433.3,243.3,433.3,243.6z M401.6,299.9
	c0,0-0.1,0.9-0.6,1.1c-0.5,0.2-0.7,0.1-1-0.1c-0.3-0.2-0.4-0.9-0.2-1.4c0.1-0.4,0.5-0.7,0.9-0.7c0.3,0,0.3,0,0.5,0.1
	C401.3,299.1,401.6,299.6,401.6,299.9L401.6,299.9z M375.3,289.1c0,0-0.1,0.9-0.6,1.1c-0.5,0.2-0.7,0.1-1-0.1
	c-0.3-0.2-0.4-0.9-0.2-1.4c0.1-0.4,0.5-0.7,0.9-0.7c0.3,0,0.3,0,0.5,0.1C375.1,288.2,375.4,288.8,375.3,289.1L375.3,289.1z
	 M422.9,208.3c0,0-0.1,0.9-0.6,1.1c-0.5,0.2-0.7,0.1-1-0.1c-0.3-0.2-0.4-0.9-0.2-1.4c0.1-0.4,0.5-0.7,0.9-0.7c0.3,0,0.3,0,0.5,0.1
	C422.7,207.5,422.9,208,422.9,208.3z M455.5,206.3c0,0-0.1,0.9-0.6,1.1s-0.7,0.1-1-0.1c-0.3-0.2-0.4-0.9-0.2-1.4
	c0.1-0.4,0.5-0.7,0.9-0.7c0.3,0,0.3,0,0.5,0.1C455.3,205.5,455.6,206,455.5,206.3z M387.5,301c0,0-0.2,1.8-1.2,2.1
	c-0.9,0.3-1.4,0.3-2-0.2c-0.6-0.5-0.8-1.8-0.4-2.9c0.3-0.8,1-1.4,1.8-1.3c0.5,0.1,0.7,0,1,0.3C387.1,299.3,387.7,300.4,387.5,301
	L387.5,301z M435.7,324.4c0,0-0.2,1.8-1.2,2.1c-0.9,0.3-1.4,0.3-2-0.2c-0.6-0.5-0.8-1.8-0.4-2.9c0.3-0.8,1-1.4,1.8-1.3
	c0.5,0.1,0.7,0,1,0.3C435.2,322.8,435.8,323.8,435.7,324.4L435.7,324.4z M410.1,188.3c0,0-0.1,0.9-0.6,1.1s-0.7,0.1-1-0.1
	c-0.3-0.2-0.4-0.9-0.2-1.4c0.1-0.4,0.5-0.7,0.9-0.7c0.3,0,0.3,0,0.5,0.1C409.9,187.5,410.2,188,410.1,188.3z M389.3,251.2
	c0,0-0.1,0.9-0.6,1.1c-0.5,0.2-0.7,0.1-1-0.1c-0.3-0.2-0.4-0.9-0.2-1.4c0.1-0.4,0.5-0.7,0.9-0.7c0.3,0,0.3,0,0.5,0.1
	C389.1,250.4,389.4,250.9,389.3,251.2z M449.5,259c0,0-0.1,0.9-0.6,1.1c-0.5,0.2-0.7,0.1-1-0.1c-0.3-0.2-0.4-0.9-0.2-1.4
	c0.1-0.4,0.5-0.7,0.9-0.7c0.3,0,0.3,0,0.5,0.1C449.3,258.2,449.6,258.7,449.5,259L449.5,259z M424.2,299.1c0,0-0.1,0.9-0.6,1.1
	s-0.7,0.1-1-0.1c-0.3-0.2-0.4-0.9-0.2-1.4c0.1-0.4,0.5-0.7,0.9-0.7c0.3,0,0.3,0,0.5,0.1C423.9,298.3,424.2,298.8,424.2,299.1z
	 M402.3,331.2c0,0-0.1,0.9-0.6,1.1c-0.5,0.2-0.7,0.1-1-0.1c-0.3-0.2-0.4-0.9-0.2-1.4c0.1-0.4,0.5-0.7,0.9-0.7c0.3,0,0.3,0,0.5,0.1
	C402.1,330.3,402.4,330.9,402.3,331.2L402.3,331.2z M429.9,212.5c0,0-0.2,1.8-1.2,2.1c-0.9,0.3-1.4,0.3-2-0.2s-0.8-1.8-0.4-2.9
	c0.3-0.8,1-1.4,1.8-1.3c0.5,0.1,0.7,0,1,0.3C429.4,210.8,430,211.9,429.9,212.5L429.9,212.5z M420.3,223c0,0-0.3,2.5-1.6,2.9
	c-1.2,0.4-1.9,0.4-2.7-0.3c-0.8-0.6-1-2.4-0.5-3.9c0.3-1.1,1.3-1.8,2.4-1.8c0.7,0.1,0.9,0,1.3,0.4
	C419.7,220.7,420.5,222.2,420.3,223L420.3,223z M411.7,362.9c0,0-0.1,0.9-0.6,1.1c-0.5,0.2-0.7,0.1-1-0.1c-0.3-0.2-0.4-0.9-0.2-1.4
	c0.1-0.4,0.5-0.7,0.9-0.7c0.3,0,0.3,0,0.5,0.1C411.6,362.1,411.8,362.6,411.7,362.9z M371.8,333.9c0,0-0.3,2.7-1.7,3.2
	c-1.4,0.5-2.1,0.4-3-0.3c-0.9-0.7-1.2-2.6-0.6-4.3c0.6-1.6,1.9-2,2.7-1.9c0.8,0.1,1,0,1.5,0.4C371.1,331.5,372,333,371.8,333.9
	L371.8,333.9z M398.7,357c0,0-0.3,2.7-1.7,3.2c-1.4,0.5-2.1,0.4-3-0.3c-0.9-0.7-1.2-2.6-0.6-4.3c0.6-1.6,1.9-2,2.7-1.9
	c0.8,0.1,1,0,1.5,0.4C398,354.4,398.9,356,398.7,357L398.7,357z M398.7,419.1c0,0-0.3,2.7-1.7,3.2c-1.4,0.5-2.1,0.4-3-0.3
	c-0.9-0.7-1.2-2.6-0.6-4.3c0.6-1.6,1.9-2,2.7-1.9c0.8,0.1,1,0,1.5,0.4C398,416.6,398.9,418.2,398.7,419.1L398.7,419.1z M90.9,222.7
	c0,0-0.3-2.7-1.7-3.2s-2.1-0.4-3,0.3c-0.9,0.7-1.2,2.6-0.6,4.3c0.6,1.6,1.9,2,2.6,1.9c0.7-0.1,1,0,1.5-0.4
	C90.2,225.1,91.1,223.6,90.9,222.7L90.9,222.7z M83.2,302.6c0,0-0.3-2.7-1.7-3.2c-1.4-0.5-2.1-0.4-3,0.3c-0.9,0.7-1.2,2.6-0.6,4.2
	c0.6,1.6,1.9,2,2.7,2c0.8-0.1,1,0,1.5-0.4C82.6,305.1,83.4,303.5,83.2,302.6L83.2,302.6z M80,311.6c0,0-0.2-1.8-1.2-2.1
	s-1.4-0.3-2,0.2c-0.6,0.5-0.8,1.8-0.4,2.9c0.3,0.8,1,1.4,1.8,1.3c0.5-0.1,0.7,0,1-0.3C79.5,313.3,80.1,312.2,80,311.6L80,311.6z
	 M51.8,287.4c0,0-0.2-1.8-1.2-2.1s-1.4-0.3-2,0.2s-0.8,1.8-0.4,2.9c0.3,0.8,1,1.4,1.8,1.3c0.5-0.1,0.7,0,1-0.3
	C51.4,289.1,51.9,288.1,51.8,287.4L51.8,287.4z M39.2,338c0,0-0.3-1.7-1.6-2c-1.3-0.3-1.9-0.3-2.7,0.2s-1,1.7-0.5,2.7
	s1.7,1.3,2.4,1.2c0.7-0.1,0.9,0,1.3-0.3C38.6,339.6,39.4,338.6,39.2,338L39.2,338z M72.1,266c0,0-0.1-0.9-0.6-1.1
	c-0.5-0.2-0.7-0.1-1,0.1c-0.3,0.2-0.4,0.9-0.2,1.4c0.1,0.4,0.5,0.7,0.9,0.7c0.3,0,0.3,0,0.5-0.1C72,266.8,72.2,266.3,72.1,266z
	 M94,264.6c0,0-0.1-0.9-0.6-1.1c-0.5-0.2-0.7-0.1-1,0.1c-0.3,0.2-0.4,0.9-0.2,1.4c0.1,0.4,0.5,0.7,0.9,0.7c0.3,0,0.3,0,0.5-0.1
	C93.8,265.4,94.1,264.9,94,264.6z M83.4,240.1c0,0-0.1-0.9-0.6-1.1s-0.7-0.1-1,0.1c-0.3,0.2-0.4,0.9-0.2,1.4
	c0.1,0.4,0.5,0.7,0.9,0.7c0.3,0,0.3,0,0.5-0.1C83.2,241,83.5,240.5,83.4,240.1L83.4,240.1z M18,272.5c0,0-0.1-0.9-0.6-1.1
	c-0.5-0.2-0.7-0.1-1,0.1c-0.3,0.2-0.4,0.9-0.2,1.4c0.1,0.4,0.5,0.7,0.9,0.7c0.3,0,0.3,0,0.5-0.1C17.8,273.4,18.1,272.9,18,272.5z
	 M44,205c0,0-0.1-0.9-0.6-1.1c-0.5-0.2-0.7-0.1-1,0.1c-0.3,0.2-0.4,0.9-0.2,1.4c0.1,0.4,0.5,0.7,0.9,0.7c0.3,0,0.3,0,0.5-0.1
	C43.8,205.9,44.1,205.4,44,205z M7.6,307.9c0,0-0.1-0.9-0.6-1.1c-0.5-0.2-0.7-0.1-1,0.1c-0.3,0.2-0.4,0.9-0.2,1.4
	c0.1,0.4,0.5,0.7,0.9,0.7c0.3,0,0.3,0,0.5-0.1C7.4,308.7,7.6,308.2,7.6,307.9z M40.2,309.9c0,0-0.1-0.9-0.6-1.1s-0.7-0.1-1,0.1
	c-0.3,0.2-0.4,0.9-0.2,1.4c0.1,0.4,0.5,0.7,0.9,0.7c0.3,0,0.3,0,0.5-0.1C40,310.7,40.3,310.2,40.2,309.9L40.2,309.9z M20.4,191.7
	c0,0-0.2-1.8-1.2-2.1c-0.9-0.3-1.4-0.3-2,0.2c-0.6,0.5-0.8,1.8-0.4,2.9c0.3,0.8,1,1.4,1.8,1.3c0.5-0.1,0.7,0,1-0.3
	C19.9,193.5,20.5,192.4,20.4,191.7L20.4,191.7z M44.1,232.4c0,0-0.2-1.8-1.2-2.1c-0.9-0.3-1.4-0.3-2,0.2s-0.8,1.8-0.4,2.9
	c0.3,0.8,1,1.4,1.8,1.3c0.5-0.1,0.7,0,1-0.3C43.6,234.1,44.2,233.1,44.1,232.4L44.1,232.4z M34.2,257.1c0,0-0.1-0.9-0.6-1.1
	c-0.5-0.2-0.7-0.1-1,0.1c-0.3,0.2-0.4,0.9-0.2,1.4c0.1,0.4,0.5,0.7,0.9,0.7c0.3,0,0.3,0,0.5-0.1C34,258,34.3,257.5,34.2,257.1z
	 M8.9,217.1c0,0-0.1-0.9-0.6-1.1c-0.5-0.2-0.7-0.1-1,0.1c-0.3,0.2-0.4,0.9-0.2,1.4c0.1,0.4,0.5,0.7,0.9,0.7c0.3,0,0.3,0,0.5-0.1
	S8.9,217.4,8.9,217.1L8.9,217.1z M58.1,185.6c0,0-0.1-0.9-0.6-1.1c-0.5-0.2-0.7-0.1-1,0.1c-0.3,0.2-0.4,0.9-0.2,1.4
	c0.1,0.4,0.5,0.7,0.9,0.7c0.3,0,0.3,0,0.5-0.1C57.9,186.4,58.2,185.9,58.1,185.6L58.1,185.6z M14.6,303.7c0,0-0.2-1.8-1.2-2.1
	c-0.9-0.3-1.4-0.3-2,0.2c-0.6,0.5-0.8,1.8-0.4,2.9c0.3,0.8,1,1.4,1.8,1.3c0.5-0.1,0.7,0,1-0.3C14.1,305.4,14.7,304.3,14.6,303.7
	L14.6,303.7z M63,336.9c0,0-0.2-1.5-0.9-1.8c-0.8-0.3-1.1-0.2-1.6,0.1c-0.5,0.4-0.6,1.4-0.3,2.3c0.2,0.7,0.8,1.1,1.4,1.1
	c0.4-0.1,0.5,0,0.8-0.2C62.6,338.3,63.1,337.4,63,336.9L63,336.9z M75.6,370.7c0,0-0.3-2.7-1.7-3.2s-2.1-0.4-3,0.3s-1.2,2.6-0.6,4.3
	c0.6,1.6,1.9,2,2.7,1.9c0.8-0.1,1,0,1.5-0.4C75,373.1,75.8,371.6,75.6,370.7L75.6,370.7z M56.9,414c0,0-0.1-0.9-0.6-1.1
	c-0.5-0.2-0.7-0.1-1,0.1c-0.3,0.2-0.4,0.9-0.2,1.4c0.1,0.4,0.5,0.7,0.9,0.7c0.3,0,0.3,0,0.5-0.1C56.7,414.8,56.9,414.3,56.9,414z
	 M84.5,398.1c0,0-0.1-0.9-0.6-1.1s-0.7-0.1-1,0.1c-0.3,0.2-0.4,0.9-0.2,1.4c0.1,0.4,0.5,0.7,0.9,0.7c0.3,0,0.3,0,0.5-0.1
	C84.3,398.9,84.5,398.4,84.5,398.1z M68.2,388.1c0,0-0.1-0.9-0.6-1.1c-0.5-0.2-0.7-0.1-1,0.1c-0.3,0.2-0.4,0.9-0.2,1.4
	c0.1,0.4,0.5,0.7,0.9,0.7c0.3,0,0.3,0,0.5-0.1C67.9,389,68.3,388.4,68.2,388.1L68.2,388.1z M28.8,353.1c0,0-0.1-0.9-0.6-1.1
	s-0.7-0.1-1,0.1c-0.3,0.2-0.4,0.9-0.2,1.4c0.1,0.4,0.5,0.7,0.9,0.7c0.3,0,0.3,0,0.5-0.1C28.6,353.9,28.8,353.4,28.8,353.1
	L28.8,353.1z M28.8,380.4c0,0-0.2-1.8-1.2-2.1c-0.9-0.3-1.4-0.3-2,0.2c-0.6,0.5-0.8,1.8-0.4,2.9c0.3,0.8,1,1.4,1.8,1.3
	c0.5-0.1,0.7,0,1-0.3C28.4,382.1,29,381,28.8,380.4L28.8,380.4z M19,405.1c0,0-0.1-0.9-0.6-1.1c-0.5-0.2-0.7-0.1-1,0.1
	c-0.3,0.2-0.4,0.9-0.2,1.4c0.1,0.4,0.5,0.7,0.9,0.7c0.3,0,0.3,0,0.5-0.1C18.7,406,19,405.4,19,405.1L19,405.1z M42.8,333.6
	c0,0-0.1-0.9-0.6-1.1c-0.5-0.2-0.7-0.1-1,0.1c-0.3,0.2-0.4,0.9-0.2,1.4c0.1,0.4,0.5,0.7,0.9,0.7c0.3,0,0.3,0,0.5-0.1
	C42.7,334.4,42.9,333.9,42.8,333.6L42.8,333.6z M60.6,247.5c0,0-0.3-2.7-1.7-3.2c-1.4-0.5-2.1-0.4-3,0.3c-0.9,0.7-1.2,2.6-0.6,4.2
	c0.6,1.6,1.9,2,2.6,2c0.7-0.1,1,0,1.5-0.4C59.9,250,60.8,248.4,60.6,247.5L60.6,247.5z M225.8,194.9c0,0-0.2-1.5-0.9-1.8
	c-0.8-0.3-1.1-0.2-1.6,0.1s-0.7,1.4-0.3,2.3c0.2,0.7,0.8,1.1,1.4,1.1c0.4-0.1,0.6,0,0.8-0.2C225.4,196.3,225.9,195.4,225.8,194.9z
	 M238.4,228.6c0,0-0.3-2.7-1.7-3.2s-2.1-0.4-3,0.3s-1.2,2.6-0.6,4.3c0.6,1.6,1.9,2,2.6,2c0.7-0.1,1,0,1.5-0.4
	C237.7,231.2,238.6,229.6,238.4,228.6L238.4,228.6z M230.8,308.6c0,0-0.3-2.7-1.7-3.2c-1.4-0.5-2.1-0.4-3,0.3
	c-0.9,0.7-1.2,2.6-0.6,4.3c0.6,1.6,1.9,2,2.6,1.9c0.8-0.1,1,0,1.5-0.4C230.1,311.1,231,309.5,230.8,308.6L230.8,308.6z M227.5,317.6
	c0,0-0.2-1.8-1.2-2.1c-0.9-0.3-1.4-0.3-2,0.2c-0.6,0.5-0.8,1.8-0.4,2.9c0.3,0.8,1,1.4,1.8,1.3c0.5-0.1,0.7,0,1-0.3
	C227,319.3,227.6,318.2,227.5,317.6L227.5,317.6z M199.3,293.4c0,0-0.2-1.8-1.2-2.1c-0.9-0.3-1.4-0.3-2,0.2
	c-0.6,0.5-0.8,1.8-0.4,2.9c0.3,0.8,1,1.4,1.8,1.3c0.5-0.1,0.7,0,1-0.3S199.5,294,199.3,293.4L199.3,293.4z M186.7,344
	c0,0-0.3-1.7-1.6-2s-1.9-0.3-2.7,0.2c-0.8,0.4-1,1.7-0.5,2.7c0.5,1,1.7,1.3,2.4,1.2s0.9,0,1.3-0.3
	C186.1,345.6,186.9,344.6,186.7,344L186.7,344z M103.9,292.1c0,0-0.2-1.8-1.2-2.1s-1.4-0.3-2,0.2s-0.8,1.8-0.4,2.9
	c0.3,0.8,1,1.4,1.8,1.3c0.5-0.1,0.7,0,1-0.3C103.5,293.8,104,292.8,103.9,292.1L103.9,292.1z M107.7,279.2c0,0-0.1-0.9-0.6-1.1
	c-0.5-0.2-0.7-0.1-1,0.1c-0.3,0.2-0.4,0.9-0.2,1.4c0.1,0.4,0.5,0.7,0.9,0.7c0.3,0,0.3,0,0.5-0.1C107.5,280,107.7,279.5,107.7,279.2
	L107.7,279.2z M103,302.6c0,0-0.1-0.9-0.6-1.1c-0.5-0.2-0.7-0.1-1,0.1c-0.3,0.2-0.4,0.9-0.2,1.4c0.1,0.4,0.5,0.7,0.9,0.7
	c0.3,0,0.3,0,0.5-0.1C102.8,303.4,103.1,302.9,103,302.6L103,302.6z M219.7,272c0,0-0.1-0.9-0.6-1.1c-0.5-0.2-0.7-0.1-1,0.1
	c-0.3,0.2-0.4,0.9-0.2,1.4c0.1,0.4,0.5,0.7,0.9,0.7c0.3,0,0.3,0,0.5-0.1S219.7,272.3,219.7,272L219.7,272z M241.5,270.5
	c0,0-0.1-0.9-0.6-1.1c-0.5-0.2-0.7-0.1-1,0.1c-0.3,0.2-0.4,0.9-0.2,1.4c0.1,0.4,0.5,0.7,0.9,0.7c0.3,0,0.3,0,0.5-0.1
	C241.4,271.4,241.6,270.9,241.5,270.5L241.5,270.5z M231,246.1c0,0-0.1-0.9-0.6-1.1c-0.5-0.2-0.7-0.1-1,0.1
	c-0.3,0.2-0.4,0.9-0.2,1.4c0.1,0.4,0.5,0.7,0.9,0.7c0.3,0,0.3,0,0.5-0.1S231,246.4,231,246.1L231,246.1z M149.2,255.8
	c0,0-0.2-1.8-1.2-2.1c-0.9-0.3-1.4-0.3-2,0.2c-0.6,0.5-0.8,1.8-0.4,2.9c0.3,0.8,1,1.4,1.8,1.3c0.5-0.1,0.7,0,1-0.3
	C148.7,257.5,149.3,256.4,149.2,255.8L149.2,255.8z M165.5,278.5c0,0-0.1-0.9-0.6-1.1c-0.5-0.2-0.7-0.1-1,0.1
	c-0.3,0.2-0.4,0.9-0.2,1.4c0.1,0.4,0.5,0.7,0.9,0.7c0.3,0,0.3,0,0.5-0.1C165.3,279.4,165.6,278.9,165.5,278.5L165.5,278.5z
	 M133.8,222.3c0,0-0.1-0.9-0.6-1.1c-0.5-0.2-0.7-0.1-1,0.1c-0.3,0.2-0.4,0.9-0.2,1.4c0.1,0.4,0.5,0.7,0.9,0.7c0.3,0,0.3,0,0.5-0.1
	C133.6,223.1,133.9,222.6,133.8,222.3z M191.6,211c0,0-0.1-0.9-0.6-1.1c-0.5-0.2-0.7-0.1-1,0.1c-0.3,0.2-0.4,0.9-0.2,1.4
	c0.1,0.4,0.5,0.7,0.9,0.7c0.3,0,0.3,0,0.5-0.1C191.3,211.9,191.6,211.3,191.6,211L191.6,211z M107.5,233.1c0,0-0.1-0.9-0.6-1.1
	s-0.7-0.1-1,0.1c-0.3,0.2-0.4,0.9-0.2,1.4c0.1,0.4,0.5,0.7,0.9,0.7c0.3,0,0.3,0,0.5-0.1C107.3,233.9,107.6,233.4,107.5,233.1z
	 M155.1,313.8c0,0-0.1-0.9-0.6-1.1c-0.5-0.2-0.7-0.1-1,0.1c-0.3,0.2-0.4,0.9-0.2,1.4c0.1,0.4,0.5,0.7,0.9,0.7c0.3,0,0.3,0,0.5-0.1
	C154.9,314.7,155.2,314.2,155.1,313.8L155.1,313.8z M187.7,315.9c0,0-0.1-0.9-0.6-1.1c-0.5-0.2-0.7-0.1-1,0.1
	c-0.3,0.2-0.4,0.9-0.2,1.4c0.1,0.4,0.5,0.7,0.9,0.7c0.3,0,0.3,0,0.5-0.1C187.5,316.7,187.8,316.2,187.7,315.9L187.7,315.9z
	 M119.8,221.2c0,0-0.2-1.8-1.2-2.1s-1.4-0.3-2,0.2s-0.8,1.8-0.4,2.9c0.3,0.8,1,1.4,1.8,1.3c0.5-0.1,0.7,0,1-0.3
	C119.3,222.9,119.9,221.8,119.8,221.2L119.8,221.2z M167.9,197.7c0,0-0.2-1.8-1.2-2.1c-0.9-0.3-1.4-0.3-2,0.2
	c-0.6,0.5-0.8,1.8-0.4,2.9c0.3,0.8,1,1.4,1.8,1.3c0.5-0.1,0.7,0,1-0.3C167.4,199.4,168,198.3,167.9,197.7L167.9,197.7z M191.6,238.4
	c0,0-0.2-1.8-1.2-2.1c-0.9-0.3-1.4-0.3-2,0.2c-0.6,0.5-0.8,1.8-0.4,2.9c0.3,0.8,1,1.4,1.8,1.3c0.5-0.1,0.7,0,1-0.3
	C191.1,240.1,191.7,239,191.6,238.4L191.6,238.4z M142.4,333.9c0,0-0.1-0.9-0.6-1.1s-0.7-0.1-1,0.1c-0.3,0.2-0.4,0.9-0.2,1.4
	c0.1,0.4,0.5,0.7,0.9,0.7c0.3,0,0.3,0,0.5-0.1S142.4,334.2,142.4,333.9L142.4,333.9z M121.6,270.9c0,0-0.1-0.9-0.6-1.1
	c-0.5-0.2-0.7-0.1-1,0.1c-0.3,0.2-0.4,0.9-0.2,1.4c0.1,0.4,0.5,0.7,0.9,0.7c0.3,0,0.3,0,0.5-0.1
	C121.4,271.8,121.7,271.2,121.6,270.9L121.6,270.9z M181.7,263.1c0,0-0.1-0.9-0.6-1.1c-0.5-0.2-0.7-0.1-1,0.1
	c-0.3,0.2-0.4,0.9-0.2,1.4c0.1,0.4,0.5,0.7,0.9,0.7c0.3,0,0.3,0,0.5-0.1C181.5,264,181.8,263.4,181.7,263.1L181.7,263.1z M156.4,223
	c0,0-0.1-0.9-0.6-1.1c-0.5-0.2-0.7-0.1-1,0.1c-0.3,0.2-0.4,0.9-0.2,1.4c0.1,0.4,0.5,0.7,0.9,0.7c0.3,0,0.3,0,0.5-0.1
	C156.2,223.9,156.5,223.4,156.4,223L156.4,223z M134.6,191c0,0-0.1-0.9-0.6-1.1s-0.7-0.1-1,0.1c-0.3,0.2-0.4,0.9-0.2,1.4
	c0.1,0.4,0.5,0.7,0.9,0.7c0.3,0,0.3,0,0.5-0.1C134.3,191.8,134.6,191.3,134.6,191L134.6,191z M205.6,191.6c0,0-0.1-0.9-0.6-1.1
	c-0.5-0.2-0.7-0.1-1,0.1s-0.4,0.9-0.2,1.4c0.1,0.4,0.5,0.7,0.9,0.7c0.3,0,0.3,0,0.5-0.1C205.4,192.4,205.7,191.9,205.6,191.6
	L205.6,191.6z M162.1,309.7c0,0-0.2-1.8-1.2-2.1c-0.9-0.3-1.4-0.3-2,0.2s-0.8,1.8-0.4,2.9c0.3,0.8,1,1.4,1.8,1.3
	c0.5-0.1,0.7,0,1-0.3C161.7,311.4,162.2,310.3,162.1,309.7L162.1,309.7z M152.6,299.1c0,0-0.3-2.5-1.6-2.9c-1.2-0.4-1.9-0.4-2.7,0.3
	c-0.8,0.6-1,2.4-0.5,3.8c0.5,1.5,1.7,1.9,2.4,1.8c0.7-0.1,0.9,0,1.3-0.4C152,301.4,152.7,299.9,152.6,299.1z M210.5,342.9
	c0,0-0.2-1.5-0.9-1.8c-0.8-0.3-1.1-0.2-1.6,0.1s-0.6,1.4-0.3,2.3c0.2,0.7,0.8,1.1,1.4,1.1c0.4-0.1,0.5,0,0.8-0.2
	S210.6,343.4,210.5,342.9L210.5,342.9z M223.2,376.6c0,0-0.3-2.7-1.7-3.2c-1.4-0.5-2.1-0.4-3,0.3s-1.2,2.6-0.6,4.3
	c0.6,1.6,1.9,2,2.6,2c0.7-0.1,1,0,1.5-0.4C222.5,379.1,223.4,377.6,223.2,376.6L223.2,376.6z M92.5,427.2c0,0-0.1-0.9-0.6-1.1
	c-0.5-0.2-0.7-0.1-1,0.1c-0.3,0.2-0.4,0.9-0.2,1.4c0.1,0.4,0.5,0.7,0.9,0.7c0.3,0,0.3,0,0.5-0.1C92.2,428.1,92.5,427.5,92.5,427.2
	L92.5,427.2z M204.4,420c0,0-0.1-0.9-0.6-1.1c-0.5-0.2-0.7-0.1-1,0.1c-0.3,0.2-0.4,0.9-0.2,1.4c0.1,0.4,0.5,0.7,0.9,0.7
	c0.3,0,0.3,0,0.5-0.1C204.2,420.8,204.5,420.3,204.4,420L204.4,420z M226.3,418.6c0,0-0.1-0.9-0.6-1.1c-0.5-0.2-0.7-0.1-1,0.1
	c-0.3,0.2-0.4,0.9-0.2,1.4c0.1,0.4,0.5,0.7,0.9,0.7c0.3,0,0.3,0,0.5-0.1C226.1,419.4,226.4,418.9,226.3,418.6L226.3,418.6z
	 M215.7,394.1c0,0-0.1-0.9-0.6-1.1c-0.5-0.2-0.7-0.1-1,0.1c-0.3,0.2-0.4,0.9-0.2,1.4c0.1,0.4,0.5,0.7,0.9,0.7c0.3,0,0.3,0,0.5-0.1
	C215.5,394.9,215.8,394.4,215.7,394.1L215.7,394.1z M133.9,403.8c0,0-0.2-1.8-1.2-2.1s-1.4-0.3-2,0.2c-0.6,0.5-0.8,1.8-0.4,2.9
	c0.3,0.8,1,1.4,1.8,1.3c0.5-0.1,0.7,0,1-0.3C133.5,405.5,134.1,404.4,133.9,403.8L133.9,403.8z M150.3,426.5c0,0-0.1-0.9-0.6-1.1
	c-0.5-0.2-0.7-0.1-1,0.1c-0.3,0.2-0.4,0.9-0.2,1.4c0.1,0.4,0.5,0.7,0.9,0.7c0.3,0,0.3,0,0.5-0.1
	C150.1,427.3,150.3,426.8,150.3,426.5L150.3,426.5z M118.5,370.3c0,0-0.1-0.9-0.6-1.1c-0.5-0.2-0.7-0.1-1,0.1
	c-0.3,0.2-0.4,0.9-0.2,1.4c0.1,0.4,0.5,0.7,0.9,0.7c0.3,0,0.3,0,0.5-0.1C118.4,371.1,118.6,370.6,118.5,370.3z M176.3,359
	c0,0-0.1-0.9-0.6-1.1c-0.5-0.2-0.7-0.1-1,0.1c-0.3,0.2-0.4,0.9-0.2,1.4c0.1,0.4,0.5,0.7,0.9,0.7c0.3,0,0.3,0,0.5-0.1
	C176.2,359.9,176.4,359.3,176.3,359L176.3,359z M92.3,381.1c0,0-0.1-0.9-0.6-1.1c-0.5-0.2-0.7-0.1-1,0.1s-0.4,0.9-0.2,1.4
	c0.1,0.4,0.5,0.7,0.9,0.7c0.3,0,0.3,0,0.5-0.1C92.1,381.9,92.4,381.4,92.3,381.1L92.3,381.1z M104.6,369.2c0,0-0.2-1.8-1.2-2.1
	s-1.4-0.3-2,0.2c-0.6,0.5-0.8,1.8-0.4,2.9c0.3,0.8,1,1.4,1.8,1.3c0.5-0.1,0.7,0,1-0.3C104.1,370.9,104.7,369.8,104.6,369.2
	L104.6,369.2z M152.7,345.7c0,0-0.2-1.8-1.2-2.1c-0.9-0.3-1.4-0.3-2,0.2s-0.8,1.8-0.4,2.9c0.3,0.8,1,1.4,1.8,1.3
	c0.5-0.1,0.7,0,1-0.3C152.2,347.5,152.8,346.3,152.7,345.7L152.7,345.7z M176.4,386.4c0,0-0.2-1.8-1.2-2.1c-0.9-0.3-1.4-0.3-2,0.2
	c-0.6,0.5-0.8,1.8-0.4,2.9c0.3,0.8,1,1.4,1.8,1.3c0.5-0.1,0.7,0,1-0.3S176.5,387,176.4,386.4L176.4,386.4z M106.4,418.9
	c0,0-0.1-0.9-0.6-1.1c-0.5-0.2-0.7-0.1-1,0.1c-0.3,0.2-0.4,0.9-0.2,1.4c0.1,0.4,0.5,0.7,0.9,0.7c0.3,0,0.3,0,0.5-0.1
	C106.2,419.7,106.4,419.2,106.4,418.9z M166.5,411.1c0,0-0.1-0.9-0.6-1.1c-0.5-0.2-0.7-0.1-1,0.1c-0.3,0.2-0.4,0.9-0.2,1.4
	c0.1,0.4,0.5,0.7,0.9,0.7c0.3,0,0.3,0,0.5-0.1C166.3,411.9,166.6,411.4,166.5,411.1L166.5,411.1z M141.2,371c0,0-0.1-0.9-0.6-1.1
	c-0.5-0.2-0.7-0.1-1,0.1c-0.3,0.2-0.4,0.9-0.2,1.4c0.1,0.4,0.5,0.7,0.9,0.7c0.3,0,0.3,0,0.5-0.1C141,371.9,141.2,371.3,141.2,371
	L141.2,371z M119.3,339c0,0-0.1-0.9-0.6-1.1c-0.5-0.2-0.7-0.1-1,0.1c-0.3,0.2-0.4,0.9-0.2,1.4c0.1,0.4,0.5,0.7,0.9,0.7
	c0.3,0,0.3,0,0.5-0.1C119.1,339.8,119.4,339.3,119.3,339z M190.4,339.6c0,0-0.1-0.9-0.6-1.1c-0.5-0.2-0.7-0.1-1,0.1
	c-0.3,0.2-0.4,0.9-0.2,1.4c0.1,0.4,0.5,0.7,0.9,0.7c0.3,0,0.3,0,0.5-0.1C190.2,340.4,190.5,339.9,190.4,339.6L190.4,339.6z
	 M128.7,307.2c0,0-0.1-0.9-0.6-1.1c-0.5-0.2-0.7-0.1-1,0.1c-0.3,0.2-0.4,0.9-0.2,1.4c0.1,0.4,0.5,0.7,0.9,0.7c0.3,0,0.3,0,0.5-0.1
	C128.5,308.1,128.8,307.5,128.7,307.2L128.7,307.2z M88.8,336.2c0,0-0.3-2.7-1.7-3.2s-2.1-0.4-3,0.3c-0.9,0.7-1.2,2.6-0.6,4.3
	c0.6,1.6,1.9,2,2.6,2c0.7-0.1,1,0,1.5-0.4C88.1,338.7,89,337.2,88.8,336.2L88.8,336.2z M115.7,313.2c0,0-0.3-2.7-1.7-3.2
	s-2.1-0.4-3,0.3c-0.9,0.7-1.2,2.6-0.6,4.3c0.6,1.6,1.9,2,2.6,2c0.7-0.1,1,0,1.5-0.4C115,315.7,115.9,314.1,115.7,313.2L115.7,313.2z
	 M115.7,251c0,0-0.3-2.7-1.7-3.2c-1.4-0.5-2.1-0.4-3,0.3c-0.9,0.7-1.2,2.6-0.6,4.3c0.6,1.6,1.9,2,2.6,2c0.7-0.1,1,0,1.5-0.4
	C115,253.5,115.9,252,115.7,251L115.7,251z M112.6,195.3c0,0-0.3-2.7-1.7-3.2s-2.1-0.4-3,0.3s-1.2,2.6-0.6,4.3c0.6,1.6,1.9,2,2.7,2
	c0.8-0.1,1,0,1.5-0.4C111.9,197.8,112.7,196.2,112.6,195.3L112.6,195.3z M208.1,253.5c0,0-0.3-2.7-1.7-3.2s-2.1-0.4-3,0.3
	c-0.9,0.7-1.2,2.6-0.6,4.3c0.6,1.6,1.9,2,2.6,1.9c0.7-0.1,1,0,1.5-0.4C207.4,256,208.3,254.4,208.1,253.5z"/>
<path class="st2" d="M356.3,236.8c0,0-5.1-7.4-5.7-13.7c-0.5-6.2-5-11.4-9.4-15.1c-4.4-3.6-5.5-6.1-9.6-10.6s-8.7-6.1-13.7-7.5
	c-5-1.5-14.4-2.1-19.2-7.1s-9.6-11.8-15.4-13.1s-19.9-2.9-28-9.4c-8.1-6.4-12.9-14.7-12.9-14.7s-1.4,5.5,4.9,17.7
	c6.3,12.2,13.1,18.9,13.1,18.9s-3.6-2.6-10.1-4.8c-6.6-2.1-10.1-2.5-14.3-8c-4.2-5.5-8.9-16.7-20.1-26.1s-26.4-11.7-26.4-11.7
	s9.1,5.4,11.1,13.4c2,7.9,2.8,12.9,5.4,19.5s6.2,9.9,6.2,9.9s-12.4-9.5-24.1-15.5c-11.8-6-18.3-6.8-28.1-16.6
	c-9.8-9.8-14.9-28.1-14.9-28.1s-2.2,6.4-0.9,21.4c1.3,14.9,13.8,31.4,13.8,31.4s-13.9-11.1-22.4-25.6c-8.6-14.6-15.2-19.9-18.8-34.1
	c-3.6-14.1-11-22.8-22.2-28.3s-19.3-4.7-19.3-4.7s16.5,9.7,20.4,25s-0.8,24.1,9.1,49.5s32.4,49,32.4,49s-7.6,0.2-17.6-9.2
	s-14.9-20-14.9-20s2.9,17.7,9.8,29.5c7,11.8,10.7,11.8,17.2,18.2c6.6,6.4,9,12.1,17.3,14.6c8.3,2.5,20.8,1.9,28.6,6
	c7.8,4.2,12.4,13.5,12.4,13.5s-8.2-9.6-15.8-10.2c-7.6-0.6-14.9,5.1-14.9,5.1s13-3.4,21.8,10.3c8.8,13.8,11,23.8,21.9,35.4
	c10.9,11.5,23.1,13.8,29.5,13.5c6.4-0.3,9.8-0.3,15,3.2c5.2,3.5,6.5,6,6.5,6s-4.9-4-10.8-4.9c-5.9-0.8-10.4,0.7-10.4,0.7
	s8.2,1.3,15.8,9.5c7.6,8.2,16.7,16.7,27.8,12.4c11.1-4.3,20.4-4,31.9-2.1c11.5,1.9,19.8,1,30.2-4.6c10.4-5.6,14.8-14.1,23.4-20.7
	s11.6-15,7.5-26.4c-4.1-11.4-11.2-23-11.4-29.3C357.6,241.8,358.9,241.3,356.3,236.8L356.3,236.8z M194.9,142.1
	c1.2,3.2-1.8,4.7-4.7,3c-2.9-1.7-4.1-4.7-7-8.3c-2.9-3.6-13.7-5.4-13.7-5.4s8.7,0,15.7,3C192.3,137.3,194.9,142.1,194.9,142.1
	L194.9,142.1z M171.9,255.7c0.7,1.7,0.9,4.3-0.8,4.2c-1.8-0.1-3.8-1.6-9-6.3c-5.3-4.7-16.7-1.8-16.7-1.8s3.3-2.6,13.3-2.3
	C168.6,249.9,171.9,255.7,171.9,255.7z"/>
<path class="st3" d="M306.3,200.4c-0.7-0.5-1.5-1-2.3-1.4c-8.3-4-14.1-5-19.1-7.2s-10-6-10-6c2.5,2.6,4.4,5.7,5.4,9.1
	c1.8,5.6,2,7.3,2,7.3s-8.7-5.5-18.1-6c-9.4-0.5-20.5,0-26-2.8c-5.5-2.9-10.9-9.8-10.9-9.8s1.5,5.4,5.5,14.1c4,8.7,8.1,12.4,8.1,12.4
	s-9-8.5-21.2-11.2s-22.3-5.2-31.3-11.2c-9-6-15.6-17.4-15.6-17.4s1.2,11.3,7.6,22.2c6.4,10.9,14.2,17.2,14.2,17.2s-11.5-2-20.2-9.5
	c-8.7-7.5-9.8-12.3-17.4-16.7c-7.7-4.4-12.9-4.4-12.9-4.4s11.8,5.3,15,13.1c3.1,7.8,6.3,14.8,15.5,21.4s14.2,7.9,14.2,7.9
	s-9.1-1.7-15.8-1c-6.7,0.7-9.1,2-9.1,2s24.8,3.3,35.7,16.5c10.9,13.3,14.7,25.3,14.7,25.3s-4.2-3.7-10.1-4.2s-9.3,0.7-9.3,0.7
	s10,2.7,18,11.7c3.4,3.8,8.1,7,12.9,9.4c-0.7,0.3-1.5,0.6-2.3,0.8c-5.1,1.5-11.3-3-11.3-3c1.8,3,3.8,5.9,6,8.7
	c3.4,4.1,8.6,5.5,8.6,5.5s-2,1.8-10.6,0.7c-8.5-1-14.3-4.4-14.4-4.5c0.3,0.3,0.7,0.7,1,1c10.9,11.5,23.1,13.8,29.5,13.5
	c6.4-0.3,9.8-0.3,15,3.2c5.2,3.5,6.5,6,6.5,6s-4.9-4-10.8-4.9s-10.4,0.7-10.4,0.7s8.2,1.3,15.8,9.5c7.6,8.2,16.7,16.7,27.8,12.4
	c11.1-4.3,20.4-4,31.9-2.1c11.5,1.9,19.8,1,30.2-4.6c10.4-5.6,14.8-14.1,23.4-20.7s11.6-15,7.5-26.4c-4.1-11.4-11.2-23-11.4-29.3
	s1-7-1.6-11.4c0,0-5.1-7.4-5.7-13.7c-0.2-2.8-1.3-5.5-2.8-7.8l0,0c-1.8-2.9-4.2-5.3-6.6-7.3c-4.4-3.6-5.5-6.1-9.6-10.6
	s-8.7-6.1-13.7-7.5c-1.9-0.6-4.5-1-7.2-1.6l0,0c9.2,3.3,13.1,7.6,11.9,9.3c-4.4,6.1-18.8-4.1-23.5-6.6c0,0,0.5,0.6,3.6,4.1
	C306,198.7,306.3,200.4,306.3,200.4L306.3,200.4z"/>
<path class="st4" d="M270.4,225c0,0-10.1-9.7-17.1-12.6c-7-2.9-9.3-3.7-9.3-3.7s5.7,5.9,7.8,9.2c1.2,2,2.2,4.1,2.9,6.3
	c0,0-7.7-6.2-17.9-5.9c-10.2,0.3-13.9,2.1-21.2-0.6c-7.2-2.7-14.4-11-14.4-11s3.8,12.6,12.8,21c9.1,8.4,15.2,14.6,15.2,14.6
	s-6-3.5-10.2-4.9c-2.7-0.8-5.5-1.2-8.3-1.1c0,0,8.9,6.6,17,18c8.1,11.4,14,18.1,22.8,21.8c8.7,3.8,17.6,1.2,17.6,1.2L270.4,225z"/>
<path class="st5" d="M337.9,312.4c0,0-11.9,7.6-18.5,7.7c-6.6,0.1-12.1-4.7-18-6c-5.9-1.3-18-2.4-23.9-4.2
	c-6-1.7-13.2-5.6-18.4-11.3c-5.2-5.7-10-20.8-11.6-28.6c-1.6-7.7-1.8-12.4-2.2-19.9c-0.4-7.5,1.2-12.7,5-16.2c3.8-3.4,8-6.7,9-12.7
	c1-6,1.9-11.3,6.2-13.3c4.2-2,10.1-1.8,17-2c6.9-0.1,9.6-2.3,16.1-1.5c6.6,0.9,8.8-0.2,16.4,0.2c7.6,0.4,16.3,5.4,20.7,14.4
	s5.5,7.7,9.4,11.6c3.9,3.9,7.3,10.7,6.1,16.1c-1.1,5.4-1.7,8.6,0.5,12.8c2.2,4.3,8.8,15.1,10.7,21.6c1.8,6.5-2.4,16-6.7,19.4
	c-4.4,3.4-7.6,4.5-10.7,6.6C341.9,309.4,337.9,312.4,337.9,312.4z"/>
<path class="st6" d="M275.2,249.8c0,0-7.1-5.6-11.9-3.2s-6.4,4.3-7.1,8.2c-0.7,3.9,3.1,9.2,8.4,11.6c5.3,2.4,9.7,0,11.4-2.1
	c1.8-2.2,2.6-2.7,2.9-4.7C279.3,257.4,277.8,251.5,275.2,249.8z"/>
<path class="st7" d="M271.2,247.3c-2.4-1.1-5.4-2-7.9-0.8c-4.7,2.4-6.4,4.3-7.1,8.2c-0.7,3.7,2.7,8.6,7.5,11.2
	c-2-2.1-5.1-6.1-4-10.4C261.3,249.4,265.3,246.7,271.2,247.3z"/>
<path class="st6" d="M301.3,274.7c0,0,5.2,3.4,8.3,1.5c3.1-1.9,4.1-3.3,4.3-6c0.2-2.7-2.7-6.1-6.4-7.4c-3.8-1.3-6.6,0.6-7.6,2.1
	c-1,1.6-1.6,2-1.6,3.4C298,269.7,299.4,273.7,301.3,274.7z"/>
<path class="st7" d="M304.1,276.1c1.7,0.6,3.8,1,5.4,0.1c3.1-1.9,4.1-3.3,4.3-6c0.2-2.5-2.3-5.7-5.8-7.2c1.5,1.3,3.8,3.8,3.4,6.8
	C310.8,274.1,308.2,276.1,304.1,276.1z"/>
<path class="st7" d="M341.3,305.5c0,0,0.2-2.1-0.8-2.7c-1-0.6-1.6-0.7-2.5-0.4c-0.8,0.3-1.4,1.7-1.2,3c0.1,1,0.8,1.8,1.8,2
	c0.6,0.1,0.8,0.2,1.3,0C340.3,307.1,341.3,306.2,341.3,305.5L341.3,305.5z M281.2,285.1c0,0,0.3-2.8-1.1-3.6c-1.4-0.8-2.2-1-3.3-0.5
	c-1.1,0.5-1.9,2.3-1.6,4.1c0.3,1.8,1.6,2.5,2.5,2.6c0.8,0.1,1.1,0.2,1.7,0C279.8,287.5,281.2,286.1,281.2,285.1L281.2,285.1z
	 M285.3,293.1c0,0,0.1-1.4-0.6-1.8c-0.7-0.4-1.1-0.5-1.7-0.2c-0.6,0.2-1,1.2-0.8,2.1c0.1,0.7,0.6,1.2,1.2,1.3c0.4,0.1,0.6,0.1,0.8,0
	C284.6,294.3,285.3,293.6,285.3,293.1L285.3,293.1z M295.8,228c0,0,0.1-0.7-0.3-0.9c-0.3-0.2-0.5-0.2-0.8-0.1
	c-0.3,0.1-0.5,0.6-0.4,1c0,0.3,0.3,0.6,0.6,0.7c0.2,0,0.3,0.1,0.4,0C295.6,228.5,295.7,228.3,295.8,228L295.8,228z M309.4,262.5
	c0,0,0.1-0.7-0.3-0.9s-0.5-0.2-0.8-0.1s-0.5,0.6-0.4,1c0,0.3,0.3,0.6,0.6,0.7c0.2,0,0.3,0.1,0.4,0
	C309.1,263,309.3,262.7,309.4,262.5L309.4,262.5z M259.2,256.7c0,0,0.1-0.7-0.3-0.9c-0.4-0.2-0.5-0.2-0.8-0.1
	c-0.3,0.1-0.5,0.6-0.4,1c0,0.3,0.3,0.6,0.6,0.7c0.2,0,0.3,0.1,0.4,0C258.9,257.2,259.1,257,259.2,256.7L259.2,256.7z M321.7,246.1
	c0,0,0.1-1.4-0.6-1.8c-0.7-0.4-1.1-0.5-1.7-0.2c-0.6,0.2-1,1.2-0.8,2.1c0.1,0.7,0.6,1.2,1.2,1.3c0.4,0.1,0.6,0.1,0.8,0
	C321,247.3,321.7,246.6,321.7,246.1L321.7,246.1z M266.4,219.6c0,0,0.1-1.4-0.6-1.8c-0.7-0.4-1.1-0.5-1.7-0.2
	c-0.6,0.2-1,1.2-0.8,2.1c0.1,0.7,0.6,1.2,1.2,1.3c0.4,0.1,0.6,0.1,0.8,0C265.7,220.8,266.4,220.1,266.4,219.6L266.4,219.6z
	 M278.9,294.8c0,0,0.1-0.7-0.3-0.9c-0.3-0.2-0.5-0.2-0.8-0.1s-0.5,0.6-0.4,1c0,0.3,0.3,0.6,0.6,0.7c0.2,0,0.3,0.1,0.4,0
	C278.7,295.3,278.9,295.1,278.9,294.8L278.9,294.8z M326.5,225.9c0,0,0.1-0.7-0.3-0.9c-0.4-0.2-0.5-0.2-0.8-0.1
	c-0.3,0.1-0.5,0.6-0.4,1c0,0.3,0.3,0.6,0.6,0.7c0.2,0,0.3,0.1,0.4,0C326.2,226.4,326.4,226.2,326.5,225.9L326.5,225.9z M277.6,223.1
	c0,0,0.1-0.7-0.3-0.9c-0.3-0.2-0.5-0.2-0.8-0.1c-0.3,0.1-0.5,0.6-0.4,1c0,0.3,0.3,0.6,0.6,0.7c0.2,0,0.3,0.1,0.4,0
	C277.3,223.6,277.5,223.4,277.6,223.1L277.6,223.1z M293.5,270.7c0,0,0.1-0.7-0.3-0.9c-0.3-0.2-0.5-0.2-0.8-0.1s-0.5,0.6-0.4,1
	c0,0.3,0.3,0.6,0.6,0.7c0.2,0,0.3,0.1,0.4,0C293.3,271.3,293.4,271,293.5,270.7L293.5,270.7z M284.2,250.8c0,0,0.1-1.4-0.6-1.8
	c-0.7-0.4-1.1-0.5-1.7-0.2c-0.6,0.2-1,1.2-0.8,2.1c0.1,0.7,0.6,1.2,1.2,1.3c0.4,0.1,0.6,0.1,0.8,0
	C283.5,252,284.2,251.3,284.2,250.8L284.2,250.8z M351.2,258.3c0.2,0.4,0.4,0.8,0.6,1.3l0.2,0.3c-0.1,0.1-0.1,0.1-0.2,0.1
	c-0.1,0.1-0.2,0-0.4,0c-0.3-0.1-0.6-0.3-0.6-0.7C350.7,258.9,350.9,258.5,351.2,258.3L351.2,258.3L351.2,258.3z M356.6,279.4
	c0,0,0.1-0.7-0.3-0.9c-0.3-0.2-0.5-0.2-0.8-0.1c-0.3,0.1-0.5,0.6-0.4,1c0,0.3,0.3,0.6,0.6,0.7c0.2,0,0.3,0.1,0.4,0
	C356.3,280,356.6,279.7,356.6,279.4L356.6,279.4z M338.6,276.3c0,0,0.1-0.7-0.3-0.9c-0.3-0.2-0.5-0.2-0.8-0.1
	c-0.3,0.1-0.5,0.6-0.4,1c0,0.3,0.3,0.6,0.6,0.7c0.2,0,0.3,0.1,0.4,0C338.4,276.8,338.6,276.6,338.6,276.3L338.6,276.3z M262.3,282.6
	c-1.5-0.1-2.9,0.1-4.3,0.6c-2.4,0.8-0.1,1.2,2.7,1.1C263.4,284.1,266.5,283.7,262.3,282.6L262.3,282.6z M246,260.7
	c-0.1-0.5-0.1-1.1-0.2-1.6c0.1,0,0.2,0.1,0.3,0.1c0.3,0.2,0.3,0.9,0.3,0.9C246.4,260.4,246.2,260.6,246,260.7z M318.4,288.2
	c0,0,0.1-1.4-0.6-1.8c-0.7-0.4-1.1-0.5-1.7-0.2c-0.6,0.2-1,1.2-0.8,2.1c0.1,0.7,0.6,1.2,1.2,1.3c0.4,0.1,0.6,0.1,0.8,0
	C317.7,289.4,318.4,288.7,318.4,288.2L318.4,288.2z"/>
<path class="st6" d="M297.6,290.6c0,0-4.3-0.8-5.8,1.3s-1.8,3.3-1.2,5.1c0.6,1.8,3.4,3.3,6.2,3.1c2.8-0.2,4.2-2.1,4.4-3.5
	c0.3-1.3,0.5-1.7,0.2-2.7C301.1,293,299.2,290.8,297.6,290.6z"/>
<path class="st7" d="M295.4,290.5c-1.3,0.1-2.8,0.4-3.5,1.4c-1.5,2.1-1.8,3.3-1.2,5.1c0.5,1.7,3.1,3.1,5.7,3.1
	c-1.3-0.4-3.6-1.5-4-3.5C291.6,293.6,292.8,291.6,295.4,290.5z"/>
<path class="st6" d="M305.6,226.5c0,0,0.3-4.4-2-5.6c-2.3-1.2-3.5-1.4-5.2-0.6c-1.8,0.8-2.8,3.8-2.3,6.5c0.5,2.8,2.6,3.9,4,4
	c1.4,0.1,1.8,0.3,2.7-0.2C303.7,230.2,305.7,228.1,305.6,226.5z"/>
<path class="st7" d="M305.5,224.3c-0.2-1.3-0.7-2.7-1.8-3.3c-2.3-1.2-3.5-1.4-5.2-0.6c-1.6,0.7-2.7,3.4-2.4,6c0.3-1.4,1-3.7,3-4.4
	C302,220.9,304.1,221.8,305.5,224.3z"/>
<path class="st7" d="M334.2,263.9c0,0,0.3-2.6-1-3.4c-1.3-0.8-2-0.9-3.1-0.5s-1.8,2.2-1.6,3.8c0.2,1.7,1.5,2.4,2.3,2.5
	c0.8,0.1,1,0.2,1.6,0S334.2,264.8,334.2,263.9z"/>
<path class="st7" d="M265.4,239.5c0,0,0.3-2.6-1-3.4c-1.3-0.8-2-0.9-3.1-0.5c-1.1,0.5-1.8,2.2-1.6,3.8c0.2,1.7,1.5,2.4,2.3,2.5
	c0.8,0.1,1,0.2,1.6,0C264.2,241.7,265.4,240.4,265.4,239.5z"/>
<path class="st6" d="M336.5,248.1c0,0,1.6-5.2-0.7-7.4c-2.4-2.2-3.8-2.7-6.2-2.2s-4.6,3.7-4.8,7.2c-0.2,3.5,2.1,5.5,3.7,6
	c1.6,0.5,2.1,0.9,3.3,0.6C333,252,336.1,250,336.5,248.1z"/>
<path class="st7" d="M337.1,245.3c0.1-1.6,0-3.5-1.2-4.6c-2.4-2.1-3.8-2.7-6.2-2.2c-2.2,0.4-4.3,3.4-4.7,6.6c0.7-1.6,2.4-4.2,5-4.5
	C333.7,240.2,336.1,241.8,337.1,245.3z"/>
<path class="st7" d="M302.8,212.4c0,0-4-1.2-8.2-0.9c-4.2,0.3-3.8-0.2-8.7-0.4c-5-0.2-11.2,0.1-11.2,0.1s-4.8-0.4,0.4-1.3
	c5.2-0.9,9-0.9,11.3-1.1c2.3-0.2,6.7-0.1,9.6-0.3c2.9-0.2,4.3-1.2,8.7-0.8c4.4,0.5,6.7,0.2,11.5,0.7s9.8,2.8,11.7,5.9
	c2,3.1,3.7,4.3,5.3,7.8c0.7,1.4,1.5,2.7,2.5,3.8l0,0c0.9,1.1,2.8,4.9,1.5,3.6c-0.8-0.8-1.8-1.6-2.9-2.1c-0.4-0.5-1-1.1-1.8-2.1
	c-2.9-3.1-4-4.6-7.3-6.2c-3.3-1.6-2.5-1.9-6.9-2.8c-4.4-0.9-6.2-1-8-2.1C308.4,213.2,305.1,213.3,302.8,212.4z"/>
<path class="st6" d="M346.9,280.6c0,0-0.2-4.4-2.6-5.3c-2.4-1-3.6-0.9-5.3,0.1c-1.6,1-2.4,4.1-1.5,6.8c0.8,2.7,3.1,3.5,4.4,3.4
	c1.4-0.1,1.8,0.1,2.6-0.5C345.4,284.5,347.1,282.1,346.9,280.6z"/>
<path class="st7" d="M346.5,278.4c-0.3-1.2-1-2.6-2.2-3.1c-2.4-1-3.6-0.9-5.3,0.1c-1.6,0.9-2.3,3.7-1.7,6.3c0.1-1.4,0.6-3.8,2.5-4.8
	C342.6,275.5,344.8,276.1,346.5,278.4z"/>
<path class="st8" d="M448.5,434.8H15.4c-6,0-10.9-4.9-10.9-10.9V15.4c0-6,4.9-10.9,10.9-10.9h433.1c6,0,10.9,4.9,10.9,10.9v408.5
	C459.4,429.9,454.5,434.8,448.5,434.8z"/>
</svg>
