<?xml version="1.0" encoding="utf-8"?>
<!-- Generator: Adobe Illustrator 25.0.0, SVG Export Plug-In . SVG Version: 6.00 Build 0)  -->
<svg version="1.1" id="Layer_1" xmlns="http://www.w3.org/2000/svg" xmlns:xlink="http://www.w3.org/1999/xlink" x="0px" y="0px"
	 viewBox="0 0 455 428" style="enable-background:new 0 0 455 428;" xml:space="preserve">
<style type="text/css">
	.st0{fill:#F7FAFC;}
	.st1{fill:#0B3D91;}
	.st2{fill:#FFFFFF;}
	.st3{fill:#FC3D21;}
</style>
<rect class="st0" width="455" height="428"/>
<g>
	<circle class="st1" cx="215.1" cy="214" r="143.7"/>
	<g>
		<circle class="st2" cx="206.7" cy="97.9" r="1.6"/>
		<circle class="st2" cx="223.2" cy="100" r="1.6"/>
		<circle class="st2" cx="244.9" cy="129.3" r="1.6"/>
		<circle class="st2" cx="125.9" cy="279.6" r="1.6"/>
		<circle class="st2" cx="130.1" cy="292.5" r="1.6"/>
		<circle class="st2" cx="110.1" cy="281.6" r="1.2"/>
		<circle class="st2" cx="175.6" cy="306.9" r="1.2"/>
		<circle class="st2" cx="278.4" cy="285.5" r="1.2"/>
		<circle class="st2" cx="308.2" cy="253.1" r="1.2"/>
		<circle class="st2" cx="161.9" cy="138.7" r="1.2"/>
		<circle class="st2" cx="194.7" cy="114.5" r="1.2"/>
		<circle class="st2" cx="191.2" cy="112.2" r="1.2"/>
		<circle class="st2" cx="187.9" cy="109.8" r="1.2"/>
		<circle class="st2" cx="167" cy="144.9" r="1.2"/>
		<circle class="st2" cx="215.4" cy="82.1" r="1.2"/>
		<circle class="st2" cx="223.4" cy="116.9" r="1.2"/>
		<circle class="st2" cx="210.9" cy="110.1" r="1.2"/>
		<circle class="st2" cx="189.4" cy="119.4" r="1.2"/>
		<circle class="st2" cx="284.1" cy="317.4" r="1.2"/>
		<circle class="st2" cx="123.9" cy="287.8" r="1.2"/>
		<circle class="st2" cx="207.8" cy="303.4" r="1.2"/>
		<circle class="st2" cx="148.9" cy="286.8" r="1.2"/>
		<circle class="st2" cx="159.3" cy="303.9" r="1.2"/>
		<circle class="st2" cx="236.2" cy="293.1" r="1.2"/>
		<circle class="st2" cx="278.6" cy="269.2" r="1.2"/>
		<circle class="st2" cx="310.7" cy="283.9" r="1.2"/>
		<circle class="st2" cx="321.7" cy="290.9" r="1.2"/>
		<circle class="st2" cx="323.5" cy="271.8" r="1.2"/>
		<circle class="st2" cx="163.7" cy="244.7" r="1.2"/>
		<circle class="st2" cx="164.1" cy="272.4" r="1.6"/>
		<circle class="st2" cx="173.8" cy="292.8" r="1.6"/>
		<circle class="st2" cx="289.6" cy="271.6" r="1.6"/>
		<circle class="st2" cx="331.3" cy="269.2" r="1.6"/>
		<circle class="st2" cx="310.6" cy="260.4" r="1.6"/>
		<circle class="st2" cx="289.6" cy="261.3" r="1.6"/>
		<path class="st2" d="M246.2,96.9l4-0.4l-4-0.2c-0.1-0.8-0.7-1.4-1.5-1.5l-0.4-4l-0.2,4c-0.7,0.2-1.3,0.8-1.4,1.5l-4.1,0.4l4.1,0.2
			c0.2,0.7,0.7,1.2,1.4,1.4l0.4,4.1l0.2-4.1C245.4,98.2,246,97.6,246.2,96.9z"/>
		<path class="st2" d="M178.5,141.5l4-0.4l-4-0.2c-0.1-0.8-0.7-1.4-1.5-1.5l-0.4-4l-0.2,4c-0.7,0.2-1.3,0.8-1.4,1.5l-4.1,0.4
			l4.1,0.2c0.2,0.7,0.7,1.2,1.4,1.4l0.4,4.1l0.2-4.1C177.8,142.8,178.4,142.2,178.5,141.5z"/>
		<path class="st2" d="M328.3,259.4l4-0.4l-4-0.2c-0.1-0.8-0.7-1.4-1.5-1.5l-0.4-4l-0.2,4c-0.7,0.2-1.3,0.8-1.4,1.5l-4.1,0.4
			l4.1,0.2c0.2,0.7,0.7,1.2,1.4,1.4l0.4,4.1l0.2-4.1C327.6,260.7,328.2,260.1,328.3,259.4z"/>
		<path class="st2" d="M165,321.1l4-0.4l-4-0.2c-0.1-0.8-0.7-1.4-1.5-1.5l-0.4-4l-0.2,4c-0.7,0.2-1.3,0.8-1.4,1.5l-4.1,0.4l4.1,0.2
			c0.2,0.7,0.7,1.2,1.4,1.4l0.4,4.1l0.2-4.1C164.3,322.4,164.9,321.8,165,321.1z"/>
		<path class="st2" d="M315.6,291l4-0.4l-4-0.2c-0.1-0.8-0.7-1.4-1.5-1.5l-0.4-4l-0.2,4c-0.7,0.2-1.3,0.8-1.4,1.5l-4.1,0.4l4.1,0.2
			c0.2,0.7,0.7,1.2,1.4,1.4l0.4,4.1l0.2-4.1C314.9,292.3,315.5,291.7,315.6,291z"/>
		<path class="st3" d="M249.2,179.6c-16.7,6.5-33,12.3-46.8,16.6c-27.9,8.7-104.4,32.4-150.6,62.3l3.9,1.5
			c28.1-15.9,46.4-20.9,64-26.4c19.1-6,80.9-20.5,108.9-28.4c9.5-2.7,20.5-6.1,32.3-10.4c-2.7-3.8-5.6-7.6-8.6-11.4
			C251.3,182.1,250.3,180.8,249.2,179.6z M269.6,207.7c-4,2.7-7.4,4.9-9.8,6.3c-13.7,7.9-80.8,53.7-96,64.2
			c-15.2,10.5-57.6,50.5-70,62.1l-0.4,4.7c40.2-36.1,52.8-45,68.7-57.1c19.8-15,60.6-42.9,74.5-51.8c13.3-8.5,25.3-16.4,36-23.5
			c-0.2-0.3-0.4-0.6-0.5-0.9C271.3,210.4,270.5,209.1,269.6,207.7z M332.4,141.4c-19.6,11.5-50.4,25.3-80.3,37.1
			c0.7,0.9,1.4,1.8,2.1,2.7c3.3,4.2,6.5,8.4,9.5,12.7c23.5-8.7,49.3-20.3,69.8-34.4c-9.8,9.2-42,33.3-61.7,46.8c1,1.7,2,3.3,2.9,4.9
			c29.8-19.9,49.8-34.6,61.5-44.4c16.1-13.5,52.8-43.8,66.8-84.4C378.6,113.5,349.7,131.3,332.4,141.4z"/>
		<path class="st2" d="M196.7,249.6c-3.2-4-7.6-9.3-10.8-13.5c-4.4-5.5-8.5-11.1-12.2-16.7c-1.2,0.3-2.4,0.6-3.6,0.9
			c4.5,7,9.5,14,15,20.9c4,5,7.6,9,9.5,11.6c0.4,0.5,1.1,1.6,2.1,3.1c1.2-0.8,2.3-1.6,3.5-2.4C198.9,252.3,197.7,251,196.7,249.6z
			 M219.8,270.6c-2.6-2.5-8.9-6.6-15.5-12.7c-1.4,1-2.9,2-4.4,3c4.2,6,10,13.3,14.5,15.5C221.3,279.5,223.1,273.7,219.8,270.6z
			 M254.2,181.1c-37.6-47.3-83.5-73.3-103.2-57.5c-15.4,12.2-9.1,47.9,12.1,85.4c1.1-0.4,2.2-0.7,3.3-1.1
			c-21.4-36.5-27.2-70.5-12.7-82c18.2-14.5,62.2,11.6,98.7,57.5c7.6,9.5,14.2,19,19.8,28.3c21.5,35.6,28.1,67.8,13.3,81
			c-4.6,4-18.5,5.6-36.7-2.6c-0.3,0.3,0.2,1.2,0.5,1.4c15.7,6.3,30.8,8.7,38.4,2.7C305.8,279.7,291.8,228.4,254.2,181.1z"/>
		<path class="st2" d="M93.1,186.7h24.1l20.2,34.3c0,0,0-24.8,0-26.7c0-3-3.8-6.9-5.2-7.5c1.6,0,15.7,0,16.6,0
			c-1,0.3-4.3,4.2-4.3,7.5c0,1.6,0,37.6,0,39.3c0,2.4,3.5,5.7,5.2,7h-23.2L106,206.2c0,0,0,25.7,0,27.1c0,2.7,2.6,5.3,5.4,7.5H93.7
			c2.5-1.1,4.9-4.5,5.2-7.1c0.2-2.7,0-37.3,0-38.8C98.8,191.4,95.7,188.8,93.1,186.7z"/>
		<path class="st2" d="M313.2,240.6h32c-1.8-0.4-3.8-2.5-4.8-5.3c-1.1-2.8-18-48.5-18-48.5h-12.2c-3.5,2.5-7.1,5.1-11.1,7.9
			c0,0.1,0,0.2,0,0.3c-0.5,3.2-10.1,37.7-10.6,39.4c-0.8,2.4-4.9,5-6.6,6.4H299c-1.7-1.9-3.1-3.8-2.8-6c0.3-2.1,1.3-6.4,1.3-6.4
			h17.8c0.8,2.1,1.4,4.1,1.7,5.9C317.5,236.4,315.2,238.9,313.2,240.6z M299.1,221.4l6-19.7l7.9,19.7H299.1z M296.4,188.7
			c0.9-0.7,1.8-1.3,2.7-2h-4.7C294.9,187.1,295.6,187.8,296.4,188.7z"/>
		<path class="st2" d="M174,234.7c0.3-2.1,1.3-6.4,1.3-6.4h17.8c0.8,2.1,1.4,4.1,1.7,5.9c0.4,2.2-1.9,4.7-3.9,6.4h28.2
			c0.6-0.4,1.2-0.8,1.8-1.2c-1.1-1-2.1-2.4-2.8-4.1c-1.1-2.8-18-48.5-18-48.5h-27.9c1.3,1.2,5.2,4.6,4.6,8.2
			c-0.5,3.2-10.1,37.7-10.6,39.4c-0.8,2.4-4.9,5-6.6,6.4h17.2C175.1,238.8,173.7,236.9,174,234.7z M182.9,201.8l7.9,19.7h-14
			L182.9,201.8z"/>
		<path class="st2" d="M271.4,213.5c-5.3,3.5-10.8,7.2-16.6,11c2.6,1.3,4.7,2.9,4.9,4.9c0.4,3.9-7.4,5.7-14.4,4.9
			c-1.4-0.2-2.8-0.5-4.1-1c-1.5,0.9-2.9,1.9-4.4,2.8c-1.5,1-3.4,2.2-5.5,3.6v5.6c1.4-2.7,4.5-5.2,6.8-5.3c1-0.1,4.6,3.2,19.2,2.4
			c7.1-0.4,20.8-7.9,20.6-16.6C277.6,220.6,274.9,216.6,271.4,213.5z M231.2,226.9v5.7c1.3-0.9,2.6-1.7,3.8-2.5
			C233,228.6,231.6,227.4,231.2,226.9z M266.4,209.9c-1.4-0.8-2.7-1.5-4.1-2.1c-6.9-3.2-14.1-3.8-15.6-8.2c-1.1-3.1,1.9-5.9,9.2-5.8
			s14.1,4.5,15.9,6V186c-0.5,0.5-2.9,3.2-5,2.8c-4.1-0.9-11.2-2-19.2-1.9c-9.2,0.1-17.2,7.2-17.5,16.2c-0.4,12.6,9.7,16.1,15.4,18
			c0.6,0.2,1.3,0.4,2,0.7c5.5-3.6,9.8-6.3,12.3-7.7C261.5,213,263.8,211.6,266.4,209.9z"/>
	</g>
</g>
</svg>
